<mxfile host="Electron" modified="2024-03-12T11:06:15.310Z" agent="Mozilla/5.0 (X11; Linux x86_64) AppleWebKit/537.36 (KHTML, like Gecko) draw.io/24.0.4 Chrome/120.0.6099.109 Electron/28.1.0 Safari/537.36" etag="1BEhpmtahU-3WHKcD3hu" version="24.0.4" type="device" pages="6">
  <diagram id="C5RBs43oDa-KdzZeNtuy" name="server">
    <mxGraphModel dx="1194" dy="600" grid="1" gridSize="10" guides="1" tooltips="1" connect="1" arrows="1" fold="1" page="1" pageScale="1" pageWidth="827" pageHeight="1169" math="0" shadow="0">
      <root>
        <mxCell id="WIyWlLk6GJQsqaUBKTNV-0" />
        <mxCell id="WIyWlLk6GJQsqaUBKTNV-1" parent="WIyWlLk6GJQsqaUBKTNV-0" />
        <mxCell id="ZdfVmxlPSpVTwCTJn2dA-35" value="" style="rounded=1;whiteSpace=wrap;html=1;" parent="WIyWlLk6GJQsqaUBKTNV-1" vertex="1">
          <mxGeometry x="20" y="382" width="730" height="211" as="geometry" />
        </mxCell>
        <mxCell id="ZdfVmxlPSpVTwCTJn2dA-0" value="Static IoTDB" style="shape=cylinder3;whiteSpace=wrap;html=1;boundedLbl=1;backgroundOutline=1;size=15;" parent="WIyWlLk6GJQsqaUBKTNV-1" vertex="1">
          <mxGeometry x="668" y="435" width="60" height="80" as="geometry" />
        </mxCell>
        <mxCell id="ZdfVmxlPSpVTwCTJn2dA-1" value="In-memory workspace" style="shape=cylinder3;whiteSpace=wrap;html=1;boundedLbl=1;backgroundOutline=1;size=15;" parent="WIyWlLk6GJQsqaUBKTNV-1" vertex="1">
          <mxGeometry x="570" y="488" width="70" height="80" as="geometry" />
        </mxCell>
        <mxCell id="ZdfVmxlPSpVTwCTJn2dA-3" value="" style="shape=actor;whiteSpace=wrap;html=1;" parent="WIyWlLk6GJQsqaUBKTNV-1" vertex="1">
          <mxGeometry x="272" y="395" width="40" height="60" as="geometry" />
        </mxCell>
        <mxCell id="ZdfVmxlPSpVTwCTJn2dA-4" value="cURL request" style="strokeWidth=2;html=1;shape=mxgraph.flowchart.direct_data;whiteSpace=wrap;" parent="WIyWlLk6GJQsqaUBKTNV-1" vertex="1">
          <mxGeometry x="390" y="425" width="170" height="30" as="geometry" />
        </mxCell>
        <mxCell id="ZdfVmxlPSpVTwCTJn2dA-5" value="Timed response of CSV or Triples result set." style="curved=1;endArrow=classic;html=1;rounded=0;exitX=1;exitY=0.667;exitDx=0;exitDy=0;exitPerimeter=0;entryX=0.5;entryY=0;entryDx=0;entryDy=0;entryPerimeter=0;" parent="WIyWlLk6GJQsqaUBKTNV-1" source="ZdfVmxlPSpVTwCTJn2dA-4" target="ZdfVmxlPSpVTwCTJn2dA-0" edge="1">
          <mxGeometry width="50" height="50" relative="1" as="geometry">
            <mxPoint x="554" y="451" as="sourcePoint" />
            <mxPoint x="604" y="401" as="targetPoint" />
            <Array as="points">
              <mxPoint x="604" y="451" />
              <mxPoint x="554" y="401" />
            </Array>
          </mxGeometry>
        </mxCell>
        <mxCell id="ZdfVmxlPSpVTwCTJn2dA-6" value="Web ontology&amp;nbsp;request" style="strokeWidth=2;html=1;shape=mxgraph.flowchart.direct_data;whiteSpace=wrap;" parent="WIyWlLk6GJQsqaUBKTNV-1" vertex="1">
          <mxGeometry x="260" y="515" width="170" height="30" as="geometry" />
        </mxCell>
        <mxCell id="ZdfVmxlPSpVTwCTJn2dA-11" value="IoT Service Ontology&amp;nbsp;" style="endArrow=classic;startArrow=classic;html=1;rounded=0;entryX=1;entryY=0.5;entryDx=0;entryDy=0;entryPerimeter=0;exitX=0;exitY=0.5;exitDx=0;exitDy=0;exitPerimeter=0;" parent="WIyWlLk6GJQsqaUBKTNV-1" source="ZdfVmxlPSpVTwCTJn2dA-1" target="ZdfVmxlPSpVTwCTJn2dA-6" edge="1">
          <mxGeometry width="50" height="50" relative="1" as="geometry">
            <mxPoint x="520" y="615" as="sourcePoint" />
            <mxPoint x="570" y="565" as="targetPoint" />
          </mxGeometry>
        </mxCell>
        <mxCell id="ZdfVmxlPSpVTwCTJn2dA-18" value="FoaF Login" style="verticalLabelPosition=bottom;verticalAlign=top;html=1;shape=hexagon;perimeter=hexagonPerimeter2;arcSize=6;size=0.27;" parent="WIyWlLk6GJQsqaUBKTNV-1" vertex="1">
          <mxGeometry x="108" y="421" width="100" height="38" as="geometry" />
        </mxCell>
        <mxCell id="ZdfVmxlPSpVTwCTJn2dA-19" value="" style="endArrow=classic;html=1;rounded=0;entryX=1;entryY=0.5;entryDx=0;entryDy=0;exitX=0;exitY=0.75;exitDx=0;exitDy=0;" parent="WIyWlLk6GJQsqaUBKTNV-1" source="ZdfVmxlPSpVTwCTJn2dA-3" target="ZdfVmxlPSpVTwCTJn2dA-18" edge="1">
          <mxGeometry width="50" height="50" relative="1" as="geometry">
            <mxPoint x="120" y="435" as="sourcePoint" />
            <mxPoint x="170" y="385" as="targetPoint" />
          </mxGeometry>
        </mxCell>
        <mxCell id="ZdfVmxlPSpVTwCTJn2dA-20" value="" style="endArrow=classic;startArrow=classic;html=1;rounded=0;exitX=1;exitY=0.75;exitDx=0;exitDy=0;entryX=0;entryY=0.5;entryDx=0;entryDy=0;entryPerimeter=0;" parent="WIyWlLk6GJQsqaUBKTNV-1" source="ZdfVmxlPSpVTwCTJn2dA-3" target="ZdfVmxlPSpVTwCTJn2dA-4" edge="1">
          <mxGeometry width="50" height="50" relative="1" as="geometry">
            <mxPoint x="220" y="645" as="sourcePoint" />
            <mxPoint x="270" y="595" as="targetPoint" />
          </mxGeometry>
        </mxCell>
        <mxCell id="ZdfVmxlPSpVTwCTJn2dA-22" value="Project Selector Webpage" style="verticalLabelPosition=bottom;verticalAlign=top;html=1;shape=process;whiteSpace=wrap;rounded=1;size=0.14;arcSize=6;" parent="WIyWlLk6GJQsqaUBKTNV-1" vertex="1">
          <mxGeometry x="50" y="515" width="160" height="30" as="geometry" />
        </mxCell>
        <mxCell id="ZdfVmxlPSpVTwCTJn2dA-29" value="" style="endArrow=classic;html=1;rounded=0;entryX=0;entryY=0;entryDx=0;entryDy=0;" parent="WIyWlLk6GJQsqaUBKTNV-1" source="ZdfVmxlPSpVTwCTJn2dA-18" target="ZdfVmxlPSpVTwCTJn2dA-22" edge="1">
          <mxGeometry width="50" height="50" relative="1" as="geometry">
            <mxPoint x="180" y="576" as="sourcePoint" />
            <mxPoint x="200" y="515" as="targetPoint" />
          </mxGeometry>
        </mxCell>
        <mxCell id="ZdfVmxlPSpVTwCTJn2dA-33" value="&lt;b&gt;&lt;font style=&quot;font-size: 18px;&quot;&gt;IoT&amp;nbsp;&lt;/font&gt;&lt;/b&gt;&lt;b style=&quot;border-color: var(--border-color);&quot;&gt;&lt;font style=&quot;border-color: var(--border-color); font-size: 18px;&quot;&gt;Streaming&amp;nbsp;&lt;/font&gt;&lt;/b&gt;&lt;b&gt;&lt;font style=&quot;font-size: 18px;&quot;&gt;Ontology Server&amp;nbsp; 2024-02-12&lt;/font&gt;&lt;/b&gt;" style="text;html=1;strokeColor=none;fillColor=none;align=center;verticalAlign=middle;whiteSpace=wrap;rounded=0;" parent="WIyWlLk6GJQsqaUBKTNV-1" vertex="1">
          <mxGeometry x="15" y="14" width="395" height="40" as="geometry" />
        </mxCell>
        <mxCell id="ZdfVmxlPSpVTwCTJn2dA-34" value="&lt;b&gt;FoaF Registration Component&lt;/b&gt;&lt;b&gt;&lt;br&gt;&lt;/b&gt;" style="text;html=1;strokeColor=none;fillColor=none;align=center;verticalAlign=middle;whiteSpace=wrap;rounded=0;" parent="WIyWlLk6GJQsqaUBKTNV-1" vertex="1">
          <mxGeometry x="550" y="58" width="204" height="30" as="geometry" />
        </mxCell>
        <mxCell id="k_RKLp8cV5WZQtAVE3XR-1" value="" style="rounded=1;whiteSpace=wrap;html=1;" parent="WIyWlLk6GJQsqaUBKTNV-1" vertex="1">
          <mxGeometry x="100" y="88" width="580" height="222" as="geometry" />
        </mxCell>
        <mxCell id="k_RKLp8cV5WZQtAVE3XR-4" value="" style="shape=actor;whiteSpace=wrap;html=1;" parent="WIyWlLk6GJQsqaUBKTNV-1" vertex="1">
          <mxGeometry x="603" y="105" width="40" height="60" as="geometry" />
        </mxCell>
        <mxCell id="k_RKLp8cV5WZQtAVE3XR-9" value="FoaF Registration" style="verticalLabelPosition=bottom;verticalAlign=top;html=1;shape=hexagon;perimeter=hexagonPerimeter2;arcSize=6;size=0.27;" parent="WIyWlLk6GJQsqaUBKTNV-1" vertex="1">
          <mxGeometry x="414" y="131" width="100" height="38" as="geometry" />
        </mxCell>
        <mxCell id="k_RKLp8cV5WZQtAVE3XR-10" value="" style="endArrow=classic;html=1;rounded=0;entryX=1;entryY=0.5;entryDx=0;entryDy=0;exitX=0;exitY=0.75;exitDx=0;exitDy=0;" parent="WIyWlLk6GJQsqaUBKTNV-1" source="k_RKLp8cV5WZQtAVE3XR-4" target="k_RKLp8cV5WZQtAVE3XR-9" edge="1">
          <mxGeometry width="50" height="50" relative="1" as="geometry">
            <mxPoint x="140" y="141" as="sourcePoint" />
            <mxPoint x="190" y="91" as="targetPoint" />
          </mxGeometry>
        </mxCell>
        <mxCell id="k_RKLp8cV5WZQtAVE3XR-13" value="Project Selector Webpage" style="verticalLabelPosition=bottom;verticalAlign=top;html=1;shape=process;whiteSpace=wrap;rounded=1;size=0.14;arcSize=6;" parent="WIyWlLk6GJQsqaUBKTNV-1" vertex="1">
          <mxGeometry x="272" y="221" width="160" height="30" as="geometry" />
        </mxCell>
        <mxCell id="k_RKLp8cV5WZQtAVE3XR-15" value="" style="endArrow=classic;html=1;rounded=0;exitX=1;exitY=0.5;exitDx=0;exitDy=0;entryX=0;entryY=0.5;entryDx=0;entryDy=0;exitPerimeter=0;" parent="WIyWlLk6GJQsqaUBKTNV-1" source="k_RKLp8cV5WZQtAVE3XR-16" target="k_RKLp8cV5WZQtAVE3XR-13" edge="1">
          <mxGeometry width="50" height="50" relative="1" as="geometry">
            <mxPoint x="170" y="271" as="sourcePoint" />
            <mxPoint x="220" y="221" as="targetPoint" />
          </mxGeometry>
        </mxCell>
        <mxCell id="k_RKLp8cV5WZQtAVE3XR-16" value="GraphDB" style="shape=cylinder3;whiteSpace=wrap;html=1;boundedLbl=1;backgroundOutline=1;size=15;" parent="WIyWlLk6GJQsqaUBKTNV-1" vertex="1">
          <mxGeometry x="130" y="194" width="60" height="84" as="geometry" />
        </mxCell>
        <mxCell id="k_RKLp8cV5WZQtAVE3XR-17" value="" style="endArrow=classic;startArrow=classic;html=1;rounded=0;exitX=1;exitY=0;exitDx=0;exitDy=0;entryX=0;entryY=0.5;entryDx=0;entryDy=0;" parent="WIyWlLk6GJQsqaUBKTNV-1" source="k_RKLp8cV5WZQtAVE3XR-18" target="k_RKLp8cV5WZQtAVE3XR-9" edge="1">
          <mxGeometry width="50" height="50" relative="1" as="geometry">
            <mxPoint x="50" y="181" as="sourcePoint" />
            <mxPoint x="100" y="131" as="targetPoint" />
          </mxGeometry>
        </mxCell>
        <mxCell id="k_RKLp8cV5WZQtAVE3XR-18" value="SHACL validation" style="rhombus;whiteSpace=wrap;html=1;" parent="WIyWlLk6GJQsqaUBKTNV-1" vertex="1">
          <mxGeometry x="252" y="130" width="80" height="80" as="geometry" />
        </mxCell>
        <mxCell id="k_RKLp8cV5WZQtAVE3XR-19" value="" style="endArrow=classic;startArrow=classic;html=1;rounded=0;exitX=0;exitY=0.5;exitDx=0;exitDy=0;entryX=1;entryY=0;entryDx=0;entryDy=15;entryPerimeter=0;" parent="WIyWlLk6GJQsqaUBKTNV-1" source="k_RKLp8cV5WZQtAVE3XR-18" target="k_RKLp8cV5WZQtAVE3XR-16" edge="1">
          <mxGeometry width="50" height="50" relative="1" as="geometry">
            <mxPoint x="120" y="207" as="sourcePoint" />
            <mxPoint x="140" y="156" as="targetPoint" />
          </mxGeometry>
        </mxCell>
        <mxCell id="k_RKLp8cV5WZQtAVE3XR-20" value="Service Selector Webpage" style="verticalLabelPosition=bottom;verticalAlign=top;html=1;shape=process;whiteSpace=wrap;rounded=1;size=0.14;arcSize=6;" parent="WIyWlLk6GJQsqaUBKTNV-1" vertex="1">
          <mxGeometry x="483" y="221" width="160" height="30" as="geometry" />
        </mxCell>
        <mxCell id="k_RKLp8cV5WZQtAVE3XR-21" value="" style="endArrow=classic;startArrow=classic;html=1;rounded=0;exitX=1;exitY=0.5;exitDx=0;exitDy=0;entryX=0;entryY=0.5;entryDx=0;entryDy=0;" parent="WIyWlLk6GJQsqaUBKTNV-1" source="k_RKLp8cV5WZQtAVE3XR-13" target="k_RKLp8cV5WZQtAVE3XR-20" edge="1">
          <mxGeometry width="50" height="50" relative="1" as="geometry">
            <mxPoint x="430" y="289" as="sourcePoint" />
            <mxPoint x="480" y="239" as="targetPoint" />
          </mxGeometry>
        </mxCell>
        <mxCell id="k_RKLp8cV5WZQtAVE3XR-22" value="&lt;b&gt;Data Retrieval&amp;nbsp;&lt;/b&gt;&lt;b style=&quot;border-color: var(--border-color);&quot;&gt;Component&lt;/b&gt;&lt;b&gt;&lt;br&gt;&lt;/b&gt;" style="text;html=1;strokeColor=none;fillColor=none;align=center;verticalAlign=middle;whiteSpace=wrap;rounded=0;" parent="WIyWlLk6GJQsqaUBKTNV-1" vertex="1">
          <mxGeometry x="570" y="344" width="190" height="30" as="geometry" />
        </mxCell>
        <mxCell id="k_RKLp8cV5WZQtAVE3XR-23" value="" style="endArrow=classic;startArrow=classic;html=1;rounded=0;entryX=0.881;entryY=0;entryDx=0;entryDy=0;exitX=0.5;exitY=1;exitDx=0;exitDy=0;entryPerimeter=0;" parent="WIyWlLk6GJQsqaUBKTNV-1" source="k_RKLp8cV5WZQtAVE3XR-4" target="k_RKLp8cV5WZQtAVE3XR-20" edge="1">
          <mxGeometry width="50" height="50" relative="1" as="geometry">
            <mxPoint x="442" y="246" as="sourcePoint" />
            <mxPoint x="493" y="246" as="targetPoint" />
          </mxGeometry>
        </mxCell>
        <mxCell id="k_RKLp8cV5WZQtAVE3XR-28" value="" style="endArrow=classic;html=1;rounded=0;exitX=1;exitY=0.5;exitDx=0;exitDy=0;" parent="WIyWlLk6GJQsqaUBKTNV-1" source="ZdfVmxlPSpVTwCTJn2dA-22" target="ZdfVmxlPSpVTwCTJn2dA-6" edge="1">
          <mxGeometry width="50" height="50" relative="1" as="geometry">
            <mxPoint x="200" y="179" as="sourcePoint" />
            <mxPoint x="282" y="179" as="targetPoint" />
          </mxGeometry>
        </mxCell>
        <mxCell id="k_RKLp8cV5WZQtAVE3XR-29" value="&lt;b&gt;time series analysis&lt;/b&gt;" style="endArrow=classic;startArrow=classic;html=1;rounded=0;exitX=0.75;exitY=1;exitDx=0;exitDy=0;entryX=0;entryY=0;entryDx=0;entryDy=15;entryPerimeter=0;" parent="WIyWlLk6GJQsqaUBKTNV-1" source="ZdfVmxlPSpVTwCTJn2dA-3" target="ZdfVmxlPSpVTwCTJn2dA-1" edge="1">
          <mxGeometry width="50" height="50" relative="1" as="geometry">
            <mxPoint x="322" y="450" as="sourcePoint" />
            <mxPoint x="400" y="450" as="targetPoint" />
          </mxGeometry>
        </mxCell>
        <mxCell id="6ySYtzb5Qx5gIVw8ycWp-2" value="CSV data file" style="shape=document;whiteSpace=wrap;html=1;boundedLbl=1;" parent="WIyWlLk6GJQsqaUBKTNV-1" vertex="1">
          <mxGeometry x="24" y="693" width="120" height="50" as="geometry" />
        </mxCell>
        <mxCell id="6ySYtzb5Qx5gIVw8ycWp-3" value="Ontology Service" style="shape=process;whiteSpace=wrap;html=1;backgroundOutline=1;" parent="WIyWlLk6GJQsqaUBKTNV-1" vertex="1">
          <mxGeometry x="192" y="690" width="120" height="60" as="geometry" />
        </mxCell>
        <mxCell id="6ySYtzb5Qx5gIVw8ycWp-5" value="GraphDB" style="shape=cylinder3;whiteSpace=wrap;html=1;boundedLbl=1;backgroundOutline=1;size=15;" parent="WIyWlLk6GJQsqaUBKTNV-1" vertex="1">
          <mxGeometry x="662" y="681" width="60" height="84" as="geometry" />
        </mxCell>
        <mxCell id="6ySYtzb5Qx5gIVw8ycWp-6" value="Static IoTDB" style="shape=cylinder3;whiteSpace=wrap;html=1;boundedLbl=1;backgroundOutline=1;size=15;" parent="WIyWlLk6GJQsqaUBKTNV-1" vertex="1">
          <mxGeometry x="363" y="680" width="60" height="80" as="geometry" />
        </mxCell>
        <mxCell id="6ySYtzb5Qx5gIVw8ycWp-7" value="&lt;b&gt;Data Import &amp;amp; Analysis&amp;nbsp;&lt;/b&gt;&lt;b style=&quot;border-color: var(--border-color);&quot;&gt;Components&lt;/b&gt;&lt;b&gt;&lt;br&gt;&lt;/b&gt;" style="text;html=1;strokeColor=none;fillColor=none;align=center;verticalAlign=middle;whiteSpace=wrap;rounded=0;" parent="WIyWlLk6GJQsqaUBKTNV-1" vertex="1">
          <mxGeometry x="520" y="635" width="230" height="30" as="geometry" />
        </mxCell>
        <mxCell id="6ySYtzb5Qx5gIVw8ycWp-8" value="Data summary CSV file" style="shape=document;whiteSpace=wrap;html=1;boundedLbl=1;" parent="WIyWlLk6GJQsqaUBKTNV-1" vertex="1">
          <mxGeometry x="360" y="797" width="132" height="50" as="geometry" />
        </mxCell>
        <mxCell id="6ySYtzb5Qx5gIVw8ycWp-10" value="XSV program" style="shape=process;whiteSpace=wrap;html=1;backgroundOutline=1;" parent="WIyWlLk6GJQsqaUBKTNV-1" vertex="1">
          <mxGeometry x="192" y="795" width="120" height="60" as="geometry" />
        </mxCell>
        <mxCell id="6ySYtzb5Qx5gIVw8ycWp-11" value="CSV data file" style="shape=document;whiteSpace=wrap;html=1;boundedLbl=1;" parent="WIyWlLk6GJQsqaUBKTNV-1" vertex="1">
          <mxGeometry x="24" y="797" width="120" height="50" as="geometry" />
        </mxCell>
        <mxCell id="6ySYtzb5Qx5gIVw8ycWp-16" value="" style="shape=flexArrow;endArrow=classic;html=1;rounded=0;entryX=0.5;entryY=1;entryDx=0;entryDy=0;exitX=0.25;exitY=0;exitDx=0;exitDy=0;entryPerimeter=0;" parent="WIyWlLk6GJQsqaUBKTNV-1" source="6ySYtzb5Qx5gIVw8ycWp-8" target="6ySYtzb5Qx5gIVw8ycWp-6" edge="1">
          <mxGeometry width="50" height="50" relative="1" as="geometry">
            <mxPoint x="322" y="820" as="sourcePoint" />
            <mxPoint x="370" y="820" as="targetPoint" />
          </mxGeometry>
        </mxCell>
        <mxCell id="6ySYtzb5Qx5gIVw8ycWp-17" value="" style="shape=actor;whiteSpace=wrap;html=1;" parent="WIyWlLk6GJQsqaUBKTNV-1" vertex="1">
          <mxGeometry x="525" y="678" width="40" height="60" as="geometry" />
        </mxCell>
        <mxCell id="6ySYtzb5Qx5gIVw8ycWp-18" value="data request" style="endArrow=classic;startArrow=classic;html=1;rounded=0;exitX=1;exitY=0;exitDx=0;exitDy=27.5;entryX=0.1;entryY=0.5;entryDx=0;entryDy=0;entryPerimeter=0;exitPerimeter=0;" parent="WIyWlLk6GJQsqaUBKTNV-1" source="6ySYtzb5Qx5gIVw8ycWp-6" target="6ySYtzb5Qx5gIVw8ycWp-17" edge="1">
          <mxGeometry width="50" height="50" relative="1" as="geometry">
            <mxPoint x="322" y="450" as="sourcePoint" />
            <mxPoint x="400" y="450" as="targetPoint" />
          </mxGeometry>
        </mxCell>
        <mxCell id="6ySYtzb5Qx5gIVw8ycWp-19" value="data analysis" style="endArrow=classic;startArrow=classic;html=1;rounded=0;exitX=0.9;exitY=0.5;exitDx=0;exitDy=0;entryX=0;entryY=0;entryDx=0;entryDy=28.5;entryPerimeter=0;exitPerimeter=0;" parent="WIyWlLk6GJQsqaUBKTNV-1" source="6ySYtzb5Qx5gIVw8ycWp-17" target="6ySYtzb5Qx5gIVw8ycWp-5" edge="1">
          <mxGeometry width="50" height="50" relative="1" as="geometry">
            <mxPoint x="433" y="718" as="sourcePoint" />
            <mxPoint x="539" y="718" as="targetPoint" />
          </mxGeometry>
        </mxCell>
        <mxCell id="6ySYtzb5Qx5gIVw8ycWp-20" value="Symbolic computing Engine" style="shape=process;whiteSpace=wrap;html=1;backgroundOutline=1;" parent="WIyWlLk6GJQsqaUBKTNV-1" vertex="1">
          <mxGeometry x="525" y="795" width="120" height="60" as="geometry" />
        </mxCell>
        <mxCell id="6ySYtzb5Qx5gIVw8ycWp-21" value="data analysis" style="endArrow=classic;startArrow=classic;html=1;rounded=0;exitX=0.75;exitY=1;exitDx=0;exitDy=0;entryX=0.25;entryY=0;entryDx=0;entryDy=0;" parent="WIyWlLk6GJQsqaUBKTNV-1" source="6ySYtzb5Qx5gIVw8ycWp-17" target="6ySYtzb5Qx5gIVw8ycWp-20" edge="1">
          <mxGeometry width="50" height="50" relative="1" as="geometry">
            <mxPoint x="571" y="718" as="sourcePoint" />
            <mxPoint x="672" y="720" as="targetPoint" />
          </mxGeometry>
        </mxCell>
        <mxCell id="6ySYtzb5Qx5gIVw8ycWp-22" value="&lt;b&gt;Ontology Container&amp;nbsp;&lt;/b&gt;&lt;b style=&quot;border-color: var(--border-color);&quot;&gt;Components&lt;/b&gt;&lt;b&gt;&lt;br&gt;&lt;/b&gt;" style="text;html=1;strokeColor=none;fillColor=none;align=center;verticalAlign=middle;whiteSpace=wrap;rounded=0;" parent="WIyWlLk6GJQsqaUBKTNV-1" vertex="1">
          <mxGeometry x="381" y="886" width="220" height="30" as="geometry" />
        </mxCell>
        <mxCell id="6ySYtzb5Qx5gIVw8ycWp-24" value="Authentication container" style="rounded=1;whiteSpace=wrap;html=1;" parent="WIyWlLk6GJQsqaUBKTNV-1" vertex="1">
          <mxGeometry x="20" y="920" width="120" height="60" as="geometry" />
        </mxCell>
        <mxCell id="6ySYtzb5Qx5gIVw8ycWp-26" value="authentication ontology" style="endArrow=classic;startArrow=classic;html=1;rounded=0;exitX=0;exitY=0.25;exitDx=0;exitDy=0;entryX=1;entryY=0.25;entryDx=0;entryDy=0;" parent="WIyWlLk6GJQsqaUBKTNV-1" source="6ySYtzb5Qx5gIVw8ycWp-42" target="6ySYtzb5Qx5gIVw8ycWp-24" edge="1">
          <mxGeometry width="50" height="50" relative="1" as="geometry">
            <mxPoint x="286" y="935" as="sourcePoint" />
            <mxPoint x="150" y="938" as="targetPoint" />
          </mxGeometry>
        </mxCell>
        <mxCell id="6ySYtzb5Qx5gIVw8ycWp-27" value="Communication Service" style="shape=process;whiteSpace=wrap;html=1;backgroundOutline=1;" parent="WIyWlLk6GJQsqaUBKTNV-1" vertex="1">
          <mxGeometry x="285" y="1044" width="120" height="60" as="geometry" />
        </mxCell>
        <mxCell id="6ySYtzb5Qx5gIVw8ycWp-28" value="" style="endArrow=classic;startArrow=classic;html=1;rounded=0;entryX=0;entryY=0.25;entryDx=0;entryDy=0;exitX=1;exitY=0.25;exitDx=0;exitDy=0;" parent="WIyWlLk6GJQsqaUBKTNV-1" source="6ySYtzb5Qx5gIVw8ycWp-37" target="6ySYtzb5Qx5gIVw8ycWp-27" edge="1">
          <mxGeometry width="50" height="50" relative="1" as="geometry">
            <mxPoint x="140" y="1060" as="sourcePoint" />
            <mxPoint x="746" y="983" as="targetPoint" />
          </mxGeometry>
        </mxCell>
        <mxCell id="6ySYtzb5Qx5gIVw8ycWp-29" value="Sensor stream container" style="rounded=1;whiteSpace=wrap;html=1;" parent="WIyWlLk6GJQsqaUBKTNV-1" vertex="1">
          <mxGeometry x="429" y="920" width="120" height="60" as="geometry" />
        </mxCell>
        <mxCell id="6ySYtzb5Qx5gIVw8ycWp-30" value="request ontology" style="endArrow=classic;startArrow=classic;html=1;rounded=0;entryX=0.25;entryY=0;entryDx=0;entryDy=0;exitX=0.25;exitY=1;exitDx=0;exitDy=0;" parent="WIyWlLk6GJQsqaUBKTNV-1" source="6ySYtzb5Qx5gIVw8ycWp-42" target="6ySYtzb5Qx5gIVw8ycWp-27" edge="1">
          <mxGeometry width="50" height="50" relative="1" as="geometry">
            <mxPoint x="312" y="965" as="sourcePoint" />
            <mxPoint x="815" y="1130" as="targetPoint" />
          </mxGeometry>
        </mxCell>
        <mxCell id="6ySYtzb5Qx5gIVw8ycWp-31" value="" style="endArrow=classic;html=1;rounded=0;exitX=0.145;exitY=1;exitDx=0;exitDy=-4.35;entryX=1;entryY=0;entryDx=0;entryDy=27.5;exitPerimeter=0;entryPerimeter=0;" parent="WIyWlLk6GJQsqaUBKTNV-1" source="ZdfVmxlPSpVTwCTJn2dA-0" target="ZdfVmxlPSpVTwCTJn2dA-1" edge="1">
          <mxGeometry width="50" height="50" relative="1" as="geometry">
            <mxPoint x="200" y="246" as="sourcePoint" />
            <mxPoint x="282" y="246" as="targetPoint" />
          </mxGeometry>
        </mxCell>
        <mxCell id="6ySYtzb5Qx5gIVw8ycWp-33" value="" style="endArrow=classic;html=1;rounded=0;exitX=1;exitY=0.25;exitDx=0;exitDy=0;entryX=0;entryY=0;entryDx=0;entryDy=27.5;entryPerimeter=0;" parent="WIyWlLk6GJQsqaUBKTNV-1" source="6ySYtzb5Qx5gIVw8ycWp-3" target="6ySYtzb5Qx5gIVw8ycWp-6" edge="1">
          <mxGeometry width="50" height="50" relative="1" as="geometry">
            <mxPoint x="697" y="531" as="sourcePoint" />
            <mxPoint x="650" y="536" as="targetPoint" />
          </mxGeometry>
        </mxCell>
        <mxCell id="6ySYtzb5Qx5gIVw8ycWp-34" value="" style="endArrow=classic;html=1;rounded=0;exitX=1;exitY=0.25;exitDx=0;exitDy=0;entryX=0;entryY=0.25;entryDx=0;entryDy=0;" parent="WIyWlLk6GJQsqaUBKTNV-1" source="6ySYtzb5Qx5gIVw8ycWp-2" target="6ySYtzb5Qx5gIVw8ycWp-3" edge="1">
          <mxGeometry width="50" height="50" relative="1" as="geometry">
            <mxPoint x="707" y="541" as="sourcePoint" />
            <mxPoint x="660" y="546" as="targetPoint" />
          </mxGeometry>
        </mxCell>
        <mxCell id="6ySYtzb5Qx5gIVw8ycWp-35" value="" style="endArrow=classic;html=1;rounded=0;exitX=1;exitY=0.25;exitDx=0;exitDy=0;entryX=0;entryY=0.25;entryDx=0;entryDy=0;" parent="WIyWlLk6GJQsqaUBKTNV-1" source="6ySYtzb5Qx5gIVw8ycWp-10" target="6ySYtzb5Qx5gIVw8ycWp-8" edge="1">
          <mxGeometry width="50" height="50" relative="1" as="geometry">
            <mxPoint x="697" y="531" as="sourcePoint" />
            <mxPoint x="650" y="536" as="targetPoint" />
          </mxGeometry>
        </mxCell>
        <mxCell id="6ySYtzb5Qx5gIVw8ycWp-36" value="" style="endArrow=classic;html=1;rounded=0;exitX=1;exitY=0.25;exitDx=0;exitDy=0;entryX=0;entryY=0.25;entryDx=0;entryDy=0;" parent="WIyWlLk6GJQsqaUBKTNV-1" source="6ySYtzb5Qx5gIVw8ycWp-11" target="6ySYtzb5Qx5gIVw8ycWp-10" edge="1">
          <mxGeometry width="50" height="50" relative="1" as="geometry">
            <mxPoint x="707" y="541" as="sourcePoint" />
            <mxPoint x="660" y="546" as="targetPoint" />
          </mxGeometry>
        </mxCell>
        <mxCell id="6ySYtzb5Qx5gIVw8ycWp-37" value="Symbolic computing&amp;nbsp;container" style="rounded=1;whiteSpace=wrap;html=1;" parent="WIyWlLk6GJQsqaUBKTNV-1" vertex="1">
          <mxGeometry x="79" y="1044" width="120" height="60" as="geometry" />
        </mxCell>
        <mxCell id="6ySYtzb5Qx5gIVw8ycWp-38" value="data analysis" style="endArrow=classic;startArrow=classic;html=1;rounded=0;exitX=0.5;exitY=1;exitDx=0;exitDy=0;entryX=0.75;entryY=0;entryDx=0;entryDy=0;exitPerimeter=0;" parent="WIyWlLk6GJQsqaUBKTNV-1" source="6ySYtzb5Qx5gIVw8ycWp-5" target="6ySYtzb5Qx5gIVw8ycWp-20" edge="1">
          <mxGeometry width="50" height="50" relative="1" as="geometry">
            <mxPoint x="565" y="748" as="sourcePoint" />
            <mxPoint x="565" y="805" as="targetPoint" />
          </mxGeometry>
        </mxCell>
        <mxCell id="6ySYtzb5Qx5gIVw8ycWp-39" value="" style="endArrow=classic;startArrow=classic;html=1;rounded=0;entryX=1;entryY=0.25;entryDx=0;entryDy=0;exitX=0;exitY=0.25;exitDx=0;exitDy=0;" parent="WIyWlLk6GJQsqaUBKTNV-1" source="6ySYtzb5Qx5gIVw8ycWp-41" target="6ySYtzb5Qx5gIVw8ycWp-27" edge="1">
          <mxGeometry width="50" height="50" relative="1" as="geometry">
            <mxPoint x="570" y="1059" as="sourcePoint" />
            <mxPoint x="241" y="1051" as="targetPoint" />
          </mxGeometry>
        </mxCell>
        <mxCell id="6ySYtzb5Qx5gIVw8ycWp-40" value="" style="endArrow=classic;startArrow=classic;html=1;rounded=0;exitX=0.5;exitY=1;exitDx=0;exitDy=0;entryX=0.75;entryY=0;entryDx=0;entryDy=0;" parent="WIyWlLk6GJQsqaUBKTNV-1" source="6ySYtzb5Qx5gIVw8ycWp-29" target="6ySYtzb5Qx5gIVw8ycWp-27" edge="1">
          <mxGeometry width="50" height="50" relative="1" as="geometry">
            <mxPoint x="480" y="1067" as="sourcePoint" />
            <mxPoint x="331" y="1066" as="targetPoint" />
          </mxGeometry>
        </mxCell>
        <mxCell id="6ySYtzb5Qx5gIVw8ycWp-41" value="Ontology inference container" style="rounded=1;whiteSpace=wrap;html=1;" parent="WIyWlLk6GJQsqaUBKTNV-1" vertex="1">
          <mxGeometry x="482" y="1044" width="120" height="60" as="geometry" />
        </mxCell>
        <mxCell id="6ySYtzb5Qx5gIVw8ycWp-42" value="Public interface" style="rounded=1;whiteSpace=wrap;html=1;" parent="WIyWlLk6GJQsqaUBKTNV-1" vertex="1">
          <mxGeometry x="285" y="920" width="120" height="60" as="geometry" />
        </mxCell>
      </root>
    </mxGraphModel>
  </diagram>
  <diagram id="STKNTwtgmbIuUFgsIsq4" name="saref.device">
    <mxGraphModel dx="1194" dy="1700" grid="1" gridSize="10" guides="1" tooltips="1" connect="1" arrows="1" fold="1" page="1" pageScale="1" pageWidth="850" pageHeight="1100" math="0" shadow="0">
      <root>
        <mxCell id="0" />
        <mxCell id="1" parent="0" />
        <mxCell id="uCqAEJKMxBrhqZcYt9JN-1" value="saref:accomplishes" style="rounded=0;html=1;jettySize=auto;orthogonalLoop=1;strokeWidth=1;fontStyle=0;fontSize=13;verticalAlign=middle;entryX=1;entryY=0.25;entryDx=0;entryDy=0;jumpStyle=none;spacing=0;" parent="1" target="uCqAEJKMxBrhqZcYt9JN-18" edge="1">
          <mxGeometry x="-0.2993" y="-13" relative="1" as="geometry">
            <mxPoint x="299" y="-641" as="sourcePoint" />
            <mxPoint x="-1.7058823529412166" y="-683.6470588235293" as="targetPoint" />
            <mxPoint as="offset" />
          </mxGeometry>
        </mxCell>
        <mxCell id="uCqAEJKMxBrhqZcYt9JN-2" style="edgeStyle=orthogonalEdgeStyle;rounded=0;orthogonalLoop=1;jettySize=auto;html=1;strokeWidth=1;fontColor=#CC0066;fontSize=13;verticalAlign=middle;entryX=1;entryY=0.5;entryDx=0;entryDy=0;exitX=0.5;exitY=1;exitDx=0;exitDy=0;" parent="1" source="uCqAEJKMxBrhqZcYt9JN-10" target="uCqAEJKMxBrhqZcYt9JN-4" edge="1">
          <mxGeometry relative="1" as="geometry">
            <mxPoint x="452.5" y="-454.5" as="targetPoint" />
            <mxPoint x="350" y="-475" as="sourcePoint" />
          </mxGeometry>
        </mxCell>
        <mxCell id="uCqAEJKMxBrhqZcYt9JN-3" value="saref:hasFunction" style="text;html=1;resizable=0;points=[];align=center;verticalAlign=middle;labelBackgroundColor=#ffffff;fontColor=#000000;fontSize=13;" parent="uCqAEJKMxBrhqZcYt9JN-2" vertex="1" connectable="0">
          <mxGeometry x="-0.0718" y="33" relative="1" as="geometry">
            <mxPoint x="-92" y="-10.5" as="offset" />
          </mxGeometry>
        </mxCell>
        <mxCell id="uCqAEJKMxBrhqZcYt9JN-4" value="saref:Function" style="rounded=0;whiteSpace=wrap;html=1;strokeWidth=1;strokeColor=#666666;fillColor=#fff2cc;fontStyle=0;fontSize=13;verticalAlign=middle;fontColor=#333333;" parent="1" vertex="1">
          <mxGeometry x="80" y="-465" width="120" height="30" as="geometry" />
        </mxCell>
        <mxCell id="uCqAEJKMxBrhqZcYt9JN-5" value="saref:Command" style="rounded=0;whiteSpace=wrap;html=1;strokeWidth=1;strokeColor=#666666;fillColor=#fff2cc;fontStyle=0;fontSize=13;verticalAlign=middle;fontColor=#333333;" parent="1" vertex="1">
          <mxGeometry x="80" y="-381" width="120" height="30" as="geometry" />
        </mxCell>
        <mxCell id="uCqAEJKMxBrhqZcYt9JN-6" style="edgeStyle=orthogonalEdgeStyle;rounded=0;html=1;jettySize=auto;orthogonalLoop=1;strokeWidth=1;fontStyle=0;fontSize=13;verticalAlign=middle;exitX=0.583;exitY=0.011;exitDx=0;exitDy=0;exitPerimeter=0;" parent="1" source="uCqAEJKMxBrhqZcYt9JN-5" edge="1">
          <mxGeometry relative="1" as="geometry">
            <mxPoint x="150" y="-385" as="sourcePoint" />
            <mxPoint x="150" y="-435" as="targetPoint" />
          </mxGeometry>
        </mxCell>
        <mxCell id="uCqAEJKMxBrhqZcYt9JN-7" value="saref:isCommandOf" style="text;html=1;resizable=0;points=[];align=center;verticalAlign=middle;labelBackgroundColor=#ffffff;fontColor=#000000;fontSize=13;" parent="uCqAEJKMxBrhqZcYt9JN-6" vertex="1" connectable="0">
          <mxGeometry x="0.1333" y="-3" relative="1" as="geometry">
            <mxPoint x="58.5" y="20.5" as="offset" />
          </mxGeometry>
        </mxCell>
        <mxCell id="uCqAEJKMxBrhqZcYt9JN-8" style="edgeStyle=orthogonalEdgeStyle;rounded=0;html=1;jettySize=auto;orthogonalLoop=1;strokeWidth=1;fontStyle=0;fontSize=13;verticalAlign=middle;entryX=0.417;entryY=0.022;entryDx=0;entryDy=0;entryPerimeter=0;" parent="1" target="uCqAEJKMxBrhqZcYt9JN-5" edge="1">
          <mxGeometry relative="1" as="geometry">
            <mxPoint x="130" y="-435" as="sourcePoint" />
            <mxPoint x="130" y="-385" as="targetPoint" />
            <Array as="points" />
          </mxGeometry>
        </mxCell>
        <mxCell id="uCqAEJKMxBrhqZcYt9JN-9" value="saref:hasCommand" style="text;html=1;resizable=0;points=[];align=center;verticalAlign=middle;labelBackgroundColor=#ffffff;fontColor=#000000;fontSize=13;" parent="uCqAEJKMxBrhqZcYt9JN-8" vertex="1" connectable="0">
          <mxGeometry x="0.1333" y="-3" relative="1" as="geometry">
            <mxPoint x="-56.5" y="-20" as="offset" />
          </mxGeometry>
        </mxCell>
        <mxCell id="uCqAEJKMxBrhqZcYt9JN-10" value="saref:Device" style="rounded=0;whiteSpace=wrap;html=1;strokeWidth=1;strokeColor=#666666;fillColor=#fff2cc;fontStyle=0;fontSize=13;verticalAlign=top;fontColor=#333333;" parent="1" vertex="1">
          <mxGeometry x="300" y="-689" width="150" height="80" as="geometry" />
        </mxCell>
        <mxCell id="uCqAEJKMxBrhqZcYt9JN-11" value="saref:Service" style="rounded=0;whiteSpace=wrap;html=1;strokeWidth=1;strokeColor=#666666;fillColor=#fff2cc;fontStyle=0;fontSize=13;verticalAlign=middle;fontColor=#333333;" parent="1" vertex="1">
          <mxGeometry x="85" y="-549" width="110" height="30" as="geometry" />
        </mxCell>
        <mxCell id="uCqAEJKMxBrhqZcYt9JN-12" style="edgeStyle=orthogonalEdgeStyle;rounded=0;html=1;entryX=0.283;entryY=1.011;entryDx=0;entryDy=0;jettySize=auto;orthogonalLoop=1;strokeWidth=1;fontStyle=0;fontSize=13;verticalAlign=middle;exitX=1;exitY=0.75;exitDx=0;exitDy=0;entryPerimeter=0;" parent="1" source="uCqAEJKMxBrhqZcYt9JN-11" target="uCqAEJKMxBrhqZcYt9JN-10" edge="1">
          <mxGeometry relative="1" as="geometry">
            <mxPoint x="269.7941176470588" y="-448.6470588235293" as="sourcePoint" />
            <mxPoint x="269.7941176470588" y="-559.2352941176471" as="targetPoint" />
          </mxGeometry>
        </mxCell>
        <mxCell id="uCqAEJKMxBrhqZcYt9JN-13" value="saref:isOfferedBy" style="text;html=1;resizable=0;points=[];align=center;verticalAlign=middle;labelBackgroundColor=#ffffff;fontColor=#000000;fontSize=13;" parent="uCqAEJKMxBrhqZcYt9JN-12" vertex="1" connectable="0">
          <mxGeometry x="0.1333" y="-3" relative="1" as="geometry">
            <mxPoint x="-70" y="6" as="offset" />
          </mxGeometry>
        </mxCell>
        <mxCell id="uCqAEJKMxBrhqZcYt9JN-14" style="edgeStyle=orthogonalEdgeStyle;rounded=0;html=1;jettySize=auto;orthogonalLoop=1;strokeWidth=1;fontStyle=0;fontSize=13;verticalAlign=middle;exitX=0.133;exitY=0.996;exitDx=0;exitDy=0;entryX=1;entryY=0.25;entryDx=0;entryDy=0;exitPerimeter=0;" parent="1" source="uCqAEJKMxBrhqZcYt9JN-10" target="uCqAEJKMxBrhqZcYt9JN-11" edge="1">
          <mxGeometry relative="1" as="geometry">
            <mxPoint x="59.79411764705878" y="-694.7352941176471" as="sourcePoint" />
            <mxPoint x="59.79411764705878" y="-584.1470588235293" as="targetPoint" />
          </mxGeometry>
        </mxCell>
        <mxCell id="uCqAEJKMxBrhqZcYt9JN-15" value="saref:offers" style="text;html=1;resizable=0;points=[];align=center;verticalAlign=middle;labelBackgroundColor=#ffffff;fontColor=#000000;fontSize=13;" parent="uCqAEJKMxBrhqZcYt9JN-14" vertex="1" connectable="0">
          <mxGeometry x="0.1333" y="-3" relative="1" as="geometry">
            <mxPoint x="4" y="-50.5" as="offset" />
          </mxGeometry>
        </mxCell>
        <mxCell id="uCqAEJKMxBrhqZcYt9JN-16" style="edgeStyle=orthogonalEdgeStyle;rounded=0;html=1;jettySize=auto;orthogonalLoop=1;strokeWidth=1;fontStyle=0;fontSize=13;verticalAlign=middle;exitX=0.5;exitY=1;exitDx=0;exitDy=0;entryX=0.5;entryY=0;entryDx=0;entryDy=0;" parent="1" source="uCqAEJKMxBrhqZcYt9JN-11" target="uCqAEJKMxBrhqZcYt9JN-4" edge="1">
          <mxGeometry relative="1" as="geometry">
            <mxPoint x="29.794117647058783" y="-474.2352941176471" as="sourcePoint" />
            <mxPoint x="29.794117647058783" y="-363.6470588235293" as="targetPoint" />
          </mxGeometry>
        </mxCell>
        <mxCell id="uCqAEJKMxBrhqZcYt9JN-17" value="saref:represents" style="text;html=1;resizable=0;points=[];align=center;verticalAlign=middle;labelBackgroundColor=#ffffff;fontColor=#000000;fontSize=13;" parent="uCqAEJKMxBrhqZcYt9JN-16" vertex="1" connectable="0">
          <mxGeometry x="0.1333" y="-3" relative="1" as="geometry">
            <mxPoint x="-49" y="-20" as="offset" />
          </mxGeometry>
        </mxCell>
        <mxCell id="uCqAEJKMxBrhqZcYt9JN-18" value="saref:Task" style="rounded=0;whiteSpace=wrap;html=1;strokeWidth=1;strokeColor=#666666;fillColor=#fff2cc;fontStyle=0;fontSize=13;verticalAlign=middle;fontColor=#333333;" parent="1" vertex="1">
          <mxGeometry x="19" y="-649" width="110" height="30" as="geometry" />
        </mxCell>
        <mxCell id="uCqAEJKMxBrhqZcYt9JN-19" style="rounded=0;html=1;jettySize=auto;orthogonalLoop=1;strokeWidth=1;fontStyle=0;fontSize=13;verticalAlign=middle;exitX=1;exitY=0.75;exitDx=0;exitDy=0;entryX=-0.021;entryY=0.658;entryDx=0;entryDy=0;entryPerimeter=0;" parent="1" source="uCqAEJKMxBrhqZcYt9JN-18" edge="1">
          <mxGeometry relative="1" as="geometry">
            <mxPoint x="208.29411764705878" y="-548.1470588235293" as="sourcePoint" />
            <mxPoint x="296.8499999999999" y="-626.36" as="targetPoint" />
          </mxGeometry>
        </mxCell>
        <mxCell id="uCqAEJKMxBrhqZcYt9JN-20" value="saref:is&lt;br&gt;AccomplishedBy" style="text;html=1;resizable=0;points=[];align=center;verticalAlign=middle;labelBackgroundColor=#ffffff;fontColor=#000000;fontSize=13;" parent="uCqAEJKMxBrhqZcYt9JN-19" vertex="1" connectable="0">
          <mxGeometry x="0.1333" y="-3" relative="1" as="geometry">
            <mxPoint x="-46.5" y="14.5" as="offset" />
          </mxGeometry>
        </mxCell>
        <mxCell id="uCqAEJKMxBrhqZcYt9JN-21" style="edgeStyle=orthogonalEdgeStyle;rounded=0;html=1;entryX=0;entryY=0.5;entryDx=0;entryDy=0;jettySize=auto;orthogonalLoop=1;strokeWidth=1;fontStyle=0;fontSize=13;verticalAlign=middle;" parent="1" target="uCqAEJKMxBrhqZcYt9JN-23" edge="1">
          <mxGeometry relative="1" as="geometry">
            <mxPoint x="200" y="-366" as="sourcePoint" />
            <mxPoint x="360.2380952380952" y="-448.45238095238096" as="targetPoint" />
          </mxGeometry>
        </mxCell>
        <mxCell id="uCqAEJKMxBrhqZcYt9JN-22" value="saref:actsUpon" style="text;html=1;resizable=0;points=[];align=center;verticalAlign=middle;labelBackgroundColor=#ffffff;fontColor=#000000;fontSize=13;" parent="uCqAEJKMxBrhqZcYt9JN-21" vertex="1" connectable="0">
          <mxGeometry x="0.1333" y="-3" relative="1" as="geometry">
            <mxPoint x="-38" y="5.5" as="offset" />
          </mxGeometry>
        </mxCell>
        <mxCell id="uCqAEJKMxBrhqZcYt9JN-23" value="saref:State" style="rounded=0;whiteSpace=wrap;html=1;strokeWidth=1;strokeColor=#666666;fillColor=#fff2cc;fontStyle=0;fontSize=13;verticalAlign=middle;fontColor=#333333;" parent="1" vertex="1">
          <mxGeometry x="350" y="-381" width="120" height="30" as="geometry" />
        </mxCell>
        <mxCell id="uCqAEJKMxBrhqZcYt9JN-24" style="edgeStyle=orthogonalEdgeStyle;rounded=0;html=1;entryX=0.5;entryY=0;entryDx=0;entryDy=0;jettySize=auto;orthogonalLoop=1;strokeWidth=1;fontStyle=0;fontSize=13;verticalAlign=middle;" parent="1" target="uCqAEJKMxBrhqZcYt9JN-23" edge="1">
          <mxGeometry relative="1" as="geometry">
            <mxPoint x="410" y="-609" as="sourcePoint" />
            <mxPoint x="385.2380952380952" y="-368.9047619047619" as="targetPoint" />
          </mxGeometry>
        </mxCell>
        <mxCell id="uCqAEJKMxBrhqZcYt9JN-25" value="saref:hasState" style="text;html=1;resizable=0;points=[];align=center;verticalAlign=middle;labelBackgroundColor=#ffffff;fontColor=#000000;fontSize=13;" parent="uCqAEJKMxBrhqZcYt9JN-24" vertex="1" connectable="0">
          <mxGeometry x="0.1333" y="-3" relative="1" as="geometry">
            <mxPoint x="50.5" y="35" as="offset" />
          </mxGeometry>
        </mxCell>
        <mxCell id="uCqAEJKMxBrhqZcYt9JN-26" value="saref:Commodity" style="rounded=0;whiteSpace=wrap;html=1;strokeWidth=1;strokeColor=#666666;fillColor=#f5f5f5;fontStyle=0;fontSize=13;verticalAlign=middle;fontColor=#333333;" parent="1" vertex="1">
          <mxGeometry x="327.5" y="-769" width="110" height="30" as="geometry" />
        </mxCell>
        <mxCell id="uCqAEJKMxBrhqZcYt9JN-27" value="saref:Profile" style="rounded=0;whiteSpace=wrap;html=1;strokeWidth=1;strokeColor=#666666;fillColor=#f5f5f5;fontStyle=0;fontSize=13;verticalAlign=middle;fontColor=#333333;" parent="1" vertex="1">
          <mxGeometry x="157" y="-840" width="110" height="30" as="geometry" />
        </mxCell>
        <mxCell id="uCqAEJKMxBrhqZcYt9JN-28" value="saref:Property" style="rounded=0;whiteSpace=wrap;html=1;strokeWidth=1;strokeColor=#666666;fillColor=#fff2cc;fontStyle=0;fontSize=13;verticalAlign=middle;fontColor=#333333;" parent="1" vertex="1">
          <mxGeometry x="540" y="-840" width="270" height="30" as="geometry" />
        </mxCell>
        <mxCell id="uCqAEJKMxBrhqZcYt9JN-29" style="rounded=0;html=1;entryX=0.5;entryY=1;entryDx=0;entryDy=0;jettySize=auto;orthogonalLoop=1;strokeWidth=1;fontStyle=0;dashed=1;fontSize=13;verticalAlign=middle;exitX=0.547;exitY=0;exitDx=0;exitDy=0;exitPerimeter=0;" parent="1" source="uCqAEJKMxBrhqZcYt9JN-10" target="uCqAEJKMxBrhqZcYt9JN-26" edge="1">
          <mxGeometry relative="1" as="geometry">
            <mxPoint x="383" y="-689" as="sourcePoint" />
            <mxPoint x="680.1034482758621" y="-609.4310344827586" as="targetPoint" />
          </mxGeometry>
        </mxCell>
        <mxCell id="uCqAEJKMxBrhqZcYt9JN-30" value="saref:isUsedFor" style="text;html=1;resizable=0;points=[];align=center;verticalAlign=middle;labelBackgroundColor=#ffffff;fontColor=#000000;fontSize=13;" parent="uCqAEJKMxBrhqZcYt9JN-29" vertex="1" connectable="0">
          <mxGeometry x="0.1333" y="-3" relative="1" as="geometry">
            <mxPoint x="52" y="3.5" as="offset" />
          </mxGeometry>
        </mxCell>
        <mxCell id="uCqAEJKMxBrhqZcYt9JN-31" style="edgeStyle=orthogonalEdgeStyle;rounded=0;html=1;jettySize=auto;orthogonalLoop=1;strokeWidth=1;fontStyle=0;fontSize=13;verticalAlign=middle;entryX=0.5;entryY=1;entryDx=0;entryDy=0;exitX=0;exitY=0.25;exitDx=0;exitDy=0;" parent="1" source="uCqAEJKMxBrhqZcYt9JN-10" target="uCqAEJKMxBrhqZcYt9JN-27" edge="1">
          <mxGeometry relative="1" as="geometry">
            <mxPoint x="260" y="-675" as="sourcePoint" />
            <mxPoint x="110" y="-785" as="targetPoint" />
          </mxGeometry>
        </mxCell>
        <mxCell id="uCqAEJKMxBrhqZcYt9JN-32" value="saref:hasProfile" style="text;html=1;resizable=0;points=[];align=center;verticalAlign=middle;labelBackgroundColor=#ffffff;fontColor=#000000;fontSize=13;" parent="uCqAEJKMxBrhqZcYt9JN-31" vertex="1" connectable="0">
          <mxGeometry x="0.1333" y="-3" relative="1" as="geometry">
            <mxPoint x="-53" y="18" as="offset" />
          </mxGeometry>
        </mxCell>
        <mxCell id="uCqAEJKMxBrhqZcYt9JN-33" value="&lt;font face=&quot;Tahoma&quot; style=&quot;font-size: 15px;&quot;&gt;&lt;br style=&quot;font-size: 15px;&quot;&gt;&lt;/font&gt;" style="ellipse;whiteSpace=wrap;html=1;aspect=fixed;spacing=0;spacingTop=15;fontSize=15;spacingLeft=0;" parent="1" vertex="1">
          <mxGeometry x="372.5" y="-835" width="20" height="20" as="geometry" />
        </mxCell>
        <mxCell id="uCqAEJKMxBrhqZcYt9JN-34" style="edgeStyle=orthogonalEdgeStyle;rounded=0;html=1;entryX=0;entryY=0.5;entryDx=0;entryDy=0;jettySize=auto;orthogonalLoop=1;strokeWidth=1;fontStyle=0;dashed=1;fontSize=13;verticalAlign=middle;exitX=1;exitY=0.5;exitDx=0;exitDy=0;" parent="1" source="uCqAEJKMxBrhqZcYt9JN-27" target="uCqAEJKMxBrhqZcYt9JN-33" edge="1">
          <mxGeometry relative="1" as="geometry">
            <mxPoint x="337.6896551724137" y="-699.9310344827586" as="sourcePoint" />
            <mxPoint x="254.9310344827586" y="-790.2758620689655" as="targetPoint" />
          </mxGeometry>
        </mxCell>
        <mxCell id="uCqAEJKMxBrhqZcYt9JN-35" value="saref:isAbout" style="text;html=1;resizable=0;points=[];align=center;verticalAlign=middle;labelBackgroundColor=#ffffff;fontColor=#000000;fontSize=13;" parent="uCqAEJKMxBrhqZcYt9JN-34" vertex="1" connectable="0">
          <mxGeometry x="0.1333" y="-3" relative="1" as="geometry">
            <mxPoint x="-17.5" y="-15.5" as="offset" />
          </mxGeometry>
        </mxCell>
        <mxCell id="uCqAEJKMxBrhqZcYt9JN-36" style="edgeStyle=orthogonalEdgeStyle;rounded=0;html=1;entryX=0;entryY=0.5;entryDx=0;entryDy=0;jettySize=auto;orthogonalLoop=1;strokeWidth=1;fontStyle=0;dashed=1;fontSize=13;verticalAlign=middle;exitX=1;exitY=0.5;exitDx=0;exitDy=0;" parent="1" source="uCqAEJKMxBrhqZcYt9JN-33" target="uCqAEJKMxBrhqZcYt9JN-28" edge="1">
          <mxGeometry relative="1" as="geometry">
            <mxPoint x="310.1034482758621" y="-783.7586206896551" as="sourcePoint" />
            <mxPoint x="382.51724137931046" y="-783.7586206896551" as="targetPoint" />
          </mxGeometry>
        </mxCell>
        <mxCell id="uCqAEJKMxBrhqZcYt9JN-37" style="edgeStyle=orthogonalEdgeStyle;rounded=0;orthogonalLoop=1;jettySize=auto;html=1;exitX=0.5;exitY=1;exitDx=0;exitDy=0;dashed=1;fontSize=15;" parent="1" source="uCqAEJKMxBrhqZcYt9JN-33" target="uCqAEJKMxBrhqZcYt9JN-26" edge="1">
          <mxGeometry relative="1" as="geometry">
            <mxPoint x="440" y="-775" as="targetPoint" />
          </mxGeometry>
        </mxCell>
        <mxCell id="uCqAEJKMxBrhqZcYt9JN-38" value="saref:Measurement" style="rounded=0;whiteSpace=wrap;html=1;strokeWidth=1;strokeColor=#666666;fillColor=#fff2cc;fontStyle=0;fontSize=13;verticalAlign=middle;fontColor=#333333;" parent="1" vertex="1">
          <mxGeometry x="693" y="-649" width="130" height="30" as="geometry" />
        </mxCell>
        <mxCell id="uCqAEJKMxBrhqZcYt9JN-39" style="edgeStyle=orthogonalEdgeStyle;rounded=0;html=1;jettySize=auto;orthogonalLoop=1;strokeWidth=1;fontStyle=0;fontSize=13;verticalAlign=middle;exitX=0.997;exitY=0.34;exitDx=0;exitDy=0;exitPerimeter=0;entryX=0.134;entryY=1.034;entryDx=0;entryDy=0;entryPerimeter=0;" parent="1" source="uCqAEJKMxBrhqZcYt9JN-10" target="uCqAEJKMxBrhqZcYt9JN-28" edge="1">
          <mxGeometry relative="1" as="geometry">
            <mxPoint x="400" y="-667.2142857142857" as="sourcePoint" />
            <mxPoint x="610" y="-788" as="targetPoint" />
          </mxGeometry>
        </mxCell>
        <mxCell id="uCqAEJKMxBrhqZcYt9JN-40" value="saref:isMeasured&lt;br&gt;ByDevice&lt;br&gt;saref:isControlled&lt;br&gt;ByDevice" style="text;html=1;resizable=0;points=[];align=center;verticalAlign=middle;labelBackgroundColor=#ffffff;fontColor=#000000;fontSize=13;" parent="uCqAEJKMxBrhqZcYt9JN-39" vertex="1" connectable="0">
          <mxGeometry x="0.1333" y="-3" relative="1" as="geometry">
            <mxPoint x="-73" y="-86.5" as="offset" />
          </mxGeometry>
        </mxCell>
        <mxCell id="uCqAEJKMxBrhqZcYt9JN-41" style="edgeStyle=orthogonalEdgeStyle;rounded=0;html=1;jettySize=auto;orthogonalLoop=1;strokeWidth=1;fontStyle=0;fontSize=13;verticalAlign=middle;exitX=0.087;exitY=1.004;exitDx=0;exitDy=0;exitPerimeter=0;entryX=1.001;entryY=0.189;entryDx=0;entryDy=0;entryPerimeter=0;" parent="1" source="uCqAEJKMxBrhqZcYt9JN-28" target="uCqAEJKMxBrhqZcYt9JN-10" edge="1">
          <mxGeometry relative="1" as="geometry">
            <mxPoint x="580" y="-745" as="sourcePoint" />
            <mxPoint x="480" y="-675" as="targetPoint" />
          </mxGeometry>
        </mxCell>
        <mxCell id="uCqAEJKMxBrhqZcYt9JN-42" value="saref:measuresProperty" style="text;html=1;resizable=0;points=[];align=center;verticalAlign=middle;labelBackgroundColor=#ffffff;fontColor=#000000;fontSize=13;" parent="uCqAEJKMxBrhqZcYt9JN-41" vertex="1" connectable="0">
          <mxGeometry x="0.1333" y="-3" relative="1" as="geometry">
            <mxPoint x="92" y="-58" as="offset" />
          </mxGeometry>
        </mxCell>
        <mxCell id="uCqAEJKMxBrhqZcYt9JN-43" style="edgeStyle=orthogonalEdgeStyle;rounded=0;html=1;jettySize=auto;orthogonalLoop=1;strokeWidth=1;fontStyle=0;fontSize=13;verticalAlign=middle;entryX=0.844;entryY=1.016;entryDx=0;entryDy=0;entryPerimeter=0;exitX=0.526;exitY=-0.027;exitDx=0;exitDy=0;exitPerimeter=0;" parent="1" source="uCqAEJKMxBrhqZcYt9JN-38" edge="1">
          <mxGeometry relative="1" as="geometry">
            <mxPoint x="761" y="-665" as="sourcePoint" />
            <mxPoint x="761.4347826086957" y="-809.2173913043478" as="targetPoint" />
          </mxGeometry>
        </mxCell>
        <mxCell id="uCqAEJKMxBrhqZcYt9JN-44" style="edgeStyle=orthogonalEdgeStyle;rounded=0;html=1;jettySize=auto;orthogonalLoop=1;strokeWidth=1;fontStyle=0;fontSize=13;verticalAlign=middle;" parent="1" edge="1">
          <mxGeometry relative="1" as="geometry">
            <mxPoint x="744" y="-810" as="sourcePoint" />
            <mxPoint x="744" y="-649" as="targetPoint" />
          </mxGeometry>
        </mxCell>
        <mxCell id="uCqAEJKMxBrhqZcYt9JN-45" value="saref:relatesTo&lt;br&gt;Measurement" style="text;html=1;resizable=0;points=[];align=center;verticalAlign=middle;labelBackgroundColor=#ffffff;fontSize=13;" parent="uCqAEJKMxBrhqZcYt9JN-44" vertex="1" connectable="0">
          <mxGeometry x="0.0408" relative="1" as="geometry">
            <mxPoint x="-47" y="-59" as="offset" />
          </mxGeometry>
        </mxCell>
        <mxCell id="uCqAEJKMxBrhqZcYt9JN-46" style="edgeStyle=orthogonalEdgeStyle;rounded=0;html=1;jettySize=auto;orthogonalLoop=1;strokeWidth=1;fontStyle=0;fontSize=13;verticalAlign=middle;" parent="1" edge="1">
          <mxGeometry relative="1" as="geometry">
            <mxPoint x="410" y="-630" as="sourcePoint" />
            <mxPoint x="693" y="-630" as="targetPoint" />
          </mxGeometry>
        </mxCell>
        <mxCell id="uCqAEJKMxBrhqZcYt9JN-47" value="saref:makesMeasurement" style="text;html=1;resizable=0;points=[];align=center;verticalAlign=middle;labelBackgroundColor=#ffffff;fontColor=#000000;fontSize=13;" parent="uCqAEJKMxBrhqZcYt9JN-46" vertex="1" connectable="0">
          <mxGeometry x="0.1333" y="-3" relative="1" as="geometry">
            <mxPoint x="-40" y="8" as="offset" />
          </mxGeometry>
        </mxCell>
        <mxCell id="uCqAEJKMxBrhqZcYt9JN-48" style="edgeStyle=orthogonalEdgeStyle;rounded=0;html=1;jettySize=auto;orthogonalLoop=1;strokeWidth=1;fontStyle=0;fontSize=13;verticalAlign=middle;entryX=1.003;entryY=0.589;entryDx=0;entryDy=0;entryPerimeter=0;" parent="1" target="uCqAEJKMxBrhqZcYt9JN-10" edge="1">
          <mxGeometry relative="1" as="geometry">
            <mxPoint x="693" y="-642" as="sourcePoint" />
            <mxPoint x="400" y="-554.0714285714286" as="targetPoint" />
          </mxGeometry>
        </mxCell>
        <mxCell id="uCqAEJKMxBrhqZcYt9JN-49" value="saref:measurement&lt;br&gt;MadeBy" style="text;html=1;resizable=0;points=[];align=center;verticalAlign=middle;labelBackgroundColor=none;fontColor=#000000;fontSize=13;" parent="uCqAEJKMxBrhqZcYt9JN-48" vertex="1" connectable="0">
          <mxGeometry x="0.1333" y="-3" relative="1" as="geometry">
            <mxPoint x="109" y="-17.5" as="offset" />
          </mxGeometry>
        </mxCell>
        <mxCell id="uCqAEJKMxBrhqZcYt9JN-50" style="edgeStyle=orthogonalEdgeStyle;rounded=0;html=1;jettySize=auto;orthogonalLoop=1;strokeWidth=1;fontStyle=0;dashed=1;fontSize=13;verticalAlign=middle;" parent="1" edge="1">
          <mxGeometry relative="1" as="geometry">
            <mxPoint x="300" y="-675" as="sourcePoint" />
            <mxPoint x="320" y="-689" as="targetPoint" />
            <Array as="points">
              <mxPoint x="270" y="-675" />
              <mxPoint x="270" y="-709" />
              <mxPoint x="320" y="-709" />
              <mxPoint x="320" y="-689" />
            </Array>
          </mxGeometry>
        </mxCell>
        <mxCell id="uCqAEJKMxBrhqZcYt9JN-51" value="saref:consistsOf" style="text;html=1;resizable=0;points=[];align=center;verticalAlign=middle;labelBackgroundColor=#ffffff;fontColor=#000000;fontSize=13;" parent="uCqAEJKMxBrhqZcYt9JN-50" vertex="1" connectable="0">
          <mxGeometry x="0.1333" y="-3" relative="1" as="geometry">
            <mxPoint x="-2" y="-14.5" as="offset" />
          </mxGeometry>
        </mxCell>
        <mxCell id="uCqAEJKMxBrhqZcYt9JN-52" value="saref:Energy" style="rounded=0;whiteSpace=wrap;html=1;strokeWidth=1;strokeColor=#666666;fillColor=#f5f5f5;fontStyle=0;fontSize=13;verticalAlign=middle;fontColor=#333333;" parent="1" vertex="1">
          <mxGeometry x="584" y="-480.5" width="109" height="30" as="geometry" />
        </mxCell>
        <mxCell id="uCqAEJKMxBrhqZcYt9JN-53" value="saref:Power" style="rounded=0;whiteSpace=wrap;html=1;strokeWidth=1;strokeColor=#666666;fillColor=#f5f5f5;fontStyle=0;fontSize=13;verticalAlign=middle;fontColor=#333333;" parent="1" vertex="1">
          <mxGeometry x="584" y="-525" width="109" height="30" as="geometry" />
        </mxCell>
        <mxCell id="uCqAEJKMxBrhqZcYt9JN-54" value="&lt;font face=&quot;Tahoma&quot; style=&quot;font-size: 15px;&quot;&gt;&lt;br style=&quot;font-size: 15px;&quot;&gt;&lt;/font&gt;" style="ellipse;whiteSpace=wrap;html=1;aspect=fixed;spacing=0;spacingTop=15;fontSize=15;spacingLeft=0;" parent="1" vertex="1">
          <mxGeometry x="536" y="-520" width="20" height="20" as="geometry" />
        </mxCell>
        <mxCell id="uCqAEJKMxBrhqZcYt9JN-55" style="edgeStyle=orthogonalEdgeStyle;rounded=0;html=1;entryX=0;entryY=0.5;entryDx=0;entryDy=0;jettySize=auto;orthogonalLoop=1;strokeWidth=1;fontStyle=0;dashed=1;fontSize=13;verticalAlign=middle;exitX=0.909;exitY=1.006;exitDx=0;exitDy=0;exitPerimeter=0;" parent="1" source="uCqAEJKMxBrhqZcYt9JN-10" target="uCqAEJKMxBrhqZcYt9JN-54" edge="1">
          <mxGeometry relative="1" as="geometry">
            <mxPoint x="430.16666666666674" y="-510.16666666666663" as="sourcePoint" />
            <mxPoint x="418.4310344827586" y="-475.27586206896547" as="targetPoint" />
          </mxGeometry>
        </mxCell>
        <mxCell id="uCqAEJKMxBrhqZcYt9JN-56" value="saref:hasTypicalConsumption" style="text;html=1;resizable=0;points=[];align=center;verticalAlign=middle;labelBackgroundColor=#ffffff;fontColor=#000000;fontSize=13;" parent="uCqAEJKMxBrhqZcYt9JN-55" vertex="1" connectable="0">
          <mxGeometry x="0.1333" y="-3" relative="1" as="geometry">
            <mxPoint x="80" y="-33" as="offset" />
          </mxGeometry>
        </mxCell>
        <mxCell id="uCqAEJKMxBrhqZcYt9JN-57" style="edgeStyle=orthogonalEdgeStyle;rounded=0;html=1;entryX=0;entryY=0.5;entryDx=0;entryDy=0;jettySize=auto;orthogonalLoop=1;strokeWidth=1;fontStyle=0;dashed=1;fontSize=13;verticalAlign=middle;exitX=1;exitY=0.5;exitDx=0;exitDy=0;" parent="1" source="uCqAEJKMxBrhqZcYt9JN-54" target="uCqAEJKMxBrhqZcYt9JN-53" edge="1">
          <mxGeometry relative="1" as="geometry">
            <mxPoint x="473.6034482758621" y="-468.7586206896551" as="sourcePoint" />
            <mxPoint x="546.0172413793105" y="-468.7586206896551" as="targetPoint" />
          </mxGeometry>
        </mxCell>
        <mxCell id="uCqAEJKMxBrhqZcYt9JN-58" style="edgeStyle=orthogonalEdgeStyle;rounded=0;orthogonalLoop=1;jettySize=auto;html=1;exitX=0.5;exitY=1;exitDx=0;exitDy=0;dashed=1;fontSize=15;entryX=0;entryY=0.5;entryDx=0;entryDy=0;" parent="1" source="uCqAEJKMxBrhqZcYt9JN-54" target="uCqAEJKMxBrhqZcYt9JN-52" edge="1">
          <mxGeometry relative="1" as="geometry">
            <mxPoint x="603.5" y="-460" as="targetPoint" />
          </mxGeometry>
        </mxCell>
        <mxCell id="uCqAEJKMxBrhqZcYt9JN-59" value="saref:hasManufacturer::&lt;br&gt;saref:hasModel::" style="rounded=0;whiteSpace=wrap;html=1;strokeWidth=1;fontStyle=0;dashed=1;fontSize=13;verticalAlign=middle;align=left;spacingLeft=2;" parent="1" vertex="1">
          <mxGeometry x="300" y="-658" width="150" height="50" as="geometry" />
        </mxCell>
        <mxCell id="uCqAEJKMxBrhqZcYt9JN-60" value="saref:relatesTo&lt;br&gt;Property" style="text;html=1;resizable=0;points=[];align=center;verticalAlign=middle;labelBackgroundColor=#ffffff;fontColor=#000000;fontSize=13;" parent="1" vertex="1" connectable="0">
          <mxGeometry x="766.559575655978" y="-742.4835785063588" as="geometry">
            <mxPoint x="43.5" y="68.5" as="offset" />
          </mxGeometry>
        </mxCell>
        <mxCell id="uCqAEJKMxBrhqZcYt9JN-61" value="saref:controlsProperty" style="text;html=1;resizable=0;points=[];align=center;verticalAlign=middle;labelBackgroundColor=#ffffff;fontColor=#000000;fontSize=13;" parent="1" vertex="1" connectable="0">
          <mxGeometry x="552" y="-666" as="geometry">
            <mxPoint x="92" y="-48" as="offset" />
          </mxGeometry>
        </mxCell>
      </root>
    </mxGraphModel>
  </diagram>
  <diagram id="HNz0BpbUuo1-l3IaCTlg" name="AlignedTimeseriesModel">
    <mxGraphModel dx="3744" dy="2800" grid="1" gridSize="10" guides="1" tooltips="1" connect="1" arrows="1" fold="1" page="1" pageScale="1" pageWidth="850" pageHeight="1100" math="0" shadow="0">
      <root>
        <mxCell id="0" />
        <mxCell id="1" parent="0" />
        <mxCell id="dFeDw-KJVFiXb_9Lhizh-1" value="AlignedTimeseriesModel" style="rounded=0;whiteSpace=wrap;html=1;strokeWidth=1;fontStyle=0;fontSize=13;verticalAlign=middle;fillColor=#dae8fc;strokeColor=#000000;" parent="1" vertex="1">
          <mxGeometry x="-2387" y="-1904" width="170" height="35.25" as="geometry" />
        </mxCell>
        <mxCell id="Ff9MaRYu3YvUu19PNN_v-1" value="hasTimeseriesModel" style="edgeStyle=orthogonalEdgeStyle;rounded=0;orthogonalLoop=1;jettySize=auto;html=1;exitX=0;exitY=0.25;exitDx=0;exitDy=0;entryX=0;entryY=0.25;entryDx=0;entryDy=0;" parent="1" source="U4KXBAX9sy_acLBvtlqc-1" target="dFeDw-KJVFiXb_9Lhizh-1" edge="1">
          <mxGeometry relative="1" as="geometry">
            <mxPoint x="-2498" y="-1702" as="targetPoint" />
            <mxPoint x="-2488" y="-1652" as="sourcePoint" />
            <Array as="points">
              <mxPoint x="-2498" y="-1662" />
              <mxPoint x="-2498" y="-1895" />
            </Array>
          </mxGeometry>
        </mxCell>
        <mxCell id="IriO60DpgjELif-vW_TR-1" value="hasTrendComponent" style="edgeStyle=orthogonalEdgeStyle;rounded=0;orthogonalLoop=1;jettySize=auto;html=1;exitX=0;exitY=0.75;exitDx=0;exitDy=0;entryX=0;entryY=0.75;entryDx=0;entryDy=0;" parent="1" source="U4KXBAX9sy_acLBvtlqc-1" target="dFeDw-KJVFiXb_9Lhizh-1" edge="1">
          <mxGeometry relative="1" as="geometry">
            <mxPoint x="-2488" y="-1882" as="targetPoint" />
            <mxPoint x="-2538" y="-1798" as="sourcePoint" />
            <Array as="points">
              <mxPoint x="-2458" y="-1645" />
              <mxPoint x="-2458" y="-1878" />
            </Array>
          </mxGeometry>
        </mxCell>
        <mxCell id="IriO60DpgjELif-vW_TR-3" value="hasSeasonalComponent" style="edgeStyle=orthogonalEdgeStyle;rounded=0;orthogonalLoop=1;jettySize=auto;html=1;exitX=1;exitY=0;exitDx=0;exitDy=0;entryX=1;entryY=1;entryDx=0;entryDy=0;" parent="1" source="U4KXBAX9sy_acLBvtlqc-1" target="dFeDw-KJVFiXb_9Lhizh-1" edge="1">
          <mxGeometry relative="1" as="geometry">
            <mxPoint x="-2398" y="-1666" as="targetPoint" />
            <mxPoint x="-2448" y="-1582" as="sourcePoint" />
            <Array as="points">
              <mxPoint x="-2272" y="-1769" />
              <mxPoint x="-2217" y="-1769" />
            </Array>
          </mxGeometry>
        </mxCell>
        <mxCell id="IriO60DpgjELif-vW_TR-4" value="hasIrregularComponent" style="edgeStyle=orthogonalEdgeStyle;rounded=0;orthogonalLoop=1;jettySize=auto;html=1;exitX=0.75;exitY=0;exitDx=0;exitDy=0;entryX=0.75;entryY=1;entryDx=0;entryDy=0;" parent="1" source="U4KXBAX9sy_acLBvtlqc-1" target="dFeDw-KJVFiXb_9Lhizh-1" edge="1">
          <mxGeometry relative="1" as="geometry">
            <mxPoint x="-2308" y="-1622" as="targetPoint" />
            <mxPoint x="-2358" y="-1538" as="sourcePoint" />
            <Array as="points">
              <mxPoint x="-2315" y="-1752" />
              <mxPoint x="-2259" y="-1752" />
            </Array>
          </mxGeometry>
        </mxCell>
        <mxCell id="IriO60DpgjELif-vW_TR-5" value="hasCyclicComponent" style="edgeStyle=orthogonalEdgeStyle;rounded=0;orthogonalLoop=1;jettySize=auto;html=1;entryX=1;entryY=0.75;entryDx=0;entryDy=0;exitX=1;exitY=0.75;exitDx=0;exitDy=0;" parent="1" source="U4KXBAX9sy_acLBvtlqc-1" target="dFeDw-KJVFiXb_9Lhizh-1" edge="1">
          <mxGeometry relative="1" as="geometry">
            <mxPoint x="-2098" y="-1762" as="targetPoint" />
            <mxPoint x="-2148" y="-1678" as="sourcePoint" />
          </mxGeometry>
        </mxCell>
        <mxCell id="Gl4OGokzxu6dIieCX3Ob-1" value="hasStationarity" style="edgeStyle=orthogonalEdgeStyle;rounded=0;orthogonalLoop=1;jettySize=auto;html=1;exitX=0.363;exitY=0.03;exitDx=0;exitDy=0;entryX=0.25;entryY=1;entryDx=0;entryDy=0;exitPerimeter=0;" parent="1" source="U4KXBAX9sy_acLBvtlqc-1" target="dFeDw-KJVFiXb_9Lhizh-1" edge="1">
          <mxGeometry relative="1" as="geometry">
            <mxPoint x="-2328" y="-1522" as="targetPoint" />
            <mxPoint x="-2378" y="-1438" as="sourcePoint" />
            <Array as="points">
              <mxPoint x="-2381" y="-1702" />
              <mxPoint x="-2344" y="-1702" />
            </Array>
          </mxGeometry>
        </mxCell>
        <mxCell id="Gl4OGokzxu6dIieCX3Ob-2" value="hasCovarianceFunction" style="edgeStyle=orthogonalEdgeStyle;rounded=0;orthogonalLoop=1;jettySize=auto;html=1;exitX=0.25;exitY=0;exitDx=0;exitDy=0;entryX=0;entryY=1;entryDx=0;entryDy=0;" parent="1" source="U4KXBAX9sy_acLBvtlqc-1" target="dFeDw-KJVFiXb_9Lhizh-1" edge="1">
          <mxGeometry relative="1" as="geometry">
            <mxPoint x="-2418" y="-1542" as="targetPoint" />
            <mxPoint x="-2468" y="-1458" as="sourcePoint" />
          </mxGeometry>
        </mxCell>
        <mxCell id="Gl4OGokzxu6dIieCX3Ob-3" value="hasAutoCorrelation" style="edgeStyle=orthogonalEdgeStyle;rounded=0;orthogonalLoop=1;jettySize=auto;html=1;exitX=1;exitY=0.25;exitDx=0;exitDy=0;entryX=0.859;entryY=0;entryDx=0;entryDy=0;entryPerimeter=0;" parent="1" source="U4KXBAX9sy_acLBvtlqc-1" target="dFeDw-KJVFiXb_9Lhizh-1" edge="1">
          <mxGeometry relative="1" as="geometry">
            <mxPoint x="-2538" y="-1562" as="targetPoint" />
            <mxPoint x="-2158" y="-1642" as="sourcePoint" />
            <Array as="points">
              <mxPoint x="-2138" y="-1662" />
              <mxPoint x="-2138" y="-1924" />
              <mxPoint x="-2241" y="-1924" />
            </Array>
          </mxGeometry>
        </mxCell>
        <mxCell id="Gl4OGokzxu6dIieCX3Ob-4" value="hasSeasonality" style="edgeStyle=orthogonalEdgeStyle;rounded=0;orthogonalLoop=1;jettySize=auto;html=1;exitX=0.5;exitY=0;exitDx=0;exitDy=0;entryX=0.5;entryY=1;entryDx=0;entryDy=0;" parent="1" source="U4KXBAX9sy_acLBvtlqc-1" target="dFeDw-KJVFiXb_9Lhizh-1" edge="1">
          <mxGeometry relative="1" as="geometry">
            <mxPoint x="-2188" y="-1522" as="targetPoint" />
            <mxPoint x="-2238" y="-1438" as="sourcePoint" />
            <Array as="points">
              <mxPoint x="-2357" y="-1782" />
              <mxPoint x="-2302" y="-1782" />
            </Array>
          </mxGeometry>
        </mxCell>
        <mxCell id="U4KXBAX9sy_acLBvtlqc-1" value="MathematicalStatement" style="rounded=0;whiteSpace=wrap;html=1;strokeWidth=1;fontStyle=0;fontSize=13;verticalAlign=middle;fillColor=#dae8fc;strokeColor=#000000;" parent="1" vertex="1">
          <mxGeometry x="-2443" y="-1670" width="171" height="33" as="geometry" />
        </mxCell>
        <mxCell id="poNywXjUV8vylEI_nNT8-1" value="hasMember" style="edgeStyle=orthogonalEdgeStyle;rounded=0;orthogonalLoop=1;jettySize=auto;html=1;exitX=0;exitY=0;exitDx=0;exitDy=0;entryX=0.866;entryY=0.967;entryDx=0;entryDy=0;entryPerimeter=0;" parent="1" source="cUN1fglqeP0jbeBrYUu4-1" target="poNywXjUV8vylEI_nNT8-2" edge="1">
          <mxGeometry relative="1" as="geometry">
            <Array as="points" />
            <mxPoint x="-2433.5" y="-1320" as="sourcePoint" />
            <mxPoint x="-2474.5" y="-1380" as="targetPoint" />
          </mxGeometry>
        </mxCell>
        <mxCell id="poNywXjUV8vylEI_nNT8-2" value="TimeSeriesNodeSet" style="rounded=0;whiteSpace=wrap;html=1;strokeWidth=1;fontStyle=0;fontSize=13;verticalAlign=middle;fillColor=#dae8fc;strokeColor=#000000;" parent="1" vertex="1">
          <mxGeometry x="-2513.5" y="-1440" width="160" height="30" as="geometry" />
        </mxCell>
        <mxCell id="dbTwlH7K__KCzDbvbU6p-1" value="xsd:decimal" style="rounded=0;whiteSpace=wrap;html=1;strokeWidth=1;fontStyle=0;fontSize=13;verticalAlign=middle;" parent="1" vertex="1">
          <mxGeometry x="-2505.5" y="-1359" width="75.5" height="20" as="geometry" />
        </mxCell>
        <mxCell id="cUN1fglqeP0jbeBrYUu4-1" value="AlignedSequence" style="rounded=0;whiteSpace=wrap;html=1;strokeWidth=1;fontStyle=0;fontSize=13;verticalAlign=middle;fillColor=#dae8fc;strokeColor=#000000;" parent="1" vertex="1">
          <mxGeometry x="-2310" y="-1322.25" width="130" height="29.25" as="geometry" />
        </mxCell>
        <mxCell id="Q0HNM_6OAm2KAwF5EjX4-1" value="saref:Function" style="rounded=0;whiteSpace=wrap;html=1;strokeWidth=1;strokeColor=#000000;fillColor=#fff2cc;fontStyle=0;fontSize=13;verticalAlign=middle;" parent="1" vertex="1">
          <mxGeometry x="-2260" y="-1590" width="140.5" height="32.25" as="geometry" />
        </mxCell>
        <mxCell id="Q0HNM_6OAm2KAwF5EjX4-2" value="MeasuringFunction" style="rounded=0;whiteSpace=wrap;html=1;strokeWidth=1;fontStyle=0;fontSize=13;verticalAlign=middle;fillColor=#dae8fc;strokeColor=#000000;" parent="1" vertex="1">
          <mxGeometry x="-2098" y="-1545" width="129" height="33" as="geometry" />
        </mxCell>
        <mxCell id="Q0HNM_6OAm2KAwF5EjX4-3" value="AlignedSequenceFunction" style="rounded=0;whiteSpace=wrap;html=1;strokeWidth=1;fontStyle=0;fontSize=13;verticalAlign=middle;fillColor=#dae8fc;strokeColor=#000000;" parent="1" vertex="1">
          <mxGeometry x="-2297" y="-1517" width="160" height="33" as="geometry" />
        </mxCell>
        <mxCell id="Q0HNM_6OAm2KAwF5EjX4-4" value="hasProcedure" style="edgeStyle=orthogonalEdgeStyle;rounded=0;orthogonalLoop=1;jettySize=auto;html=1;exitX=0;exitY=1;exitDx=0;exitDy=0;entryX=1;entryY=0.5;entryDx=0;entryDy=0;" parent="1" source="Q0HNM_6OAm2KAwF5EjX4-3" target="poNywXjUV8vylEI_nNT8-2" edge="1">
          <mxGeometry x="-0.0051" relative="1" as="geometry">
            <Array as="points">
              <mxPoint x="-2297" y="-1426" />
              <mxPoint x="-2278" y="-1426" />
              <mxPoint x="-2278" y="-1425" />
            </Array>
            <mxPoint x="-1718" y="-1180" as="sourcePoint" />
            <mxPoint x="-1968.5" y="-1213" as="targetPoint" />
            <mxPoint as="offset" />
          </mxGeometry>
        </mxCell>
        <mxCell id="Q0HNM_6OAm2KAwF5EjX4-5" value="hasDataAccessWebService" style="edgeStyle=orthogonalEdgeStyle;rounded=0;orthogonalLoop=1;jettySize=auto;html=1;exitX=0.5;exitY=1;exitDx=0;exitDy=0;entryX=0.5;entryY=0;entryDx=0;entryDy=0;" parent="1" source="6qc-Ym1OKEP7moOWyjJp-2" target="poNywXjUV8vylEI_nNT8-2" edge="1">
          <mxGeometry relative="1" as="geometry">
            <Array as="points" />
            <mxPoint x="-2459" y="-1310" as="sourcePoint" />
            <mxPoint x="-2459" y="-1390" as="targetPoint" />
          </mxGeometry>
        </mxCell>
        <mxCell id="dNHMq5w7RyQo7rnOGyaf-1" style="edgeStyle=orthogonalEdgeStyle;rounded=0;orthogonalLoop=1;jettySize=auto;html=1;strokeWidth=1;endSize=10;endArrow=block;endFill=0;fontStyle=0;fontSize=13;verticalAlign=middle;exitX=0.5;exitY=1;exitDx=0;exitDy=0;entryX=0.5;entryY=0;entryDx=0;entryDy=0;" parent="1" source="U4KXBAX9sy_acLBvtlqc-1" target="Q0HNM_6OAm2KAwF5EjX4-1" edge="1">
          <mxGeometry relative="1" as="geometry">
            <mxPoint x="-2238" y="-1750" as="sourcePoint" />
            <mxPoint x="-2158" y="-1780" as="targetPoint" />
          </mxGeometry>
        </mxCell>
        <mxCell id="dNHMq5w7RyQo7rnOGyaf-2" style="edgeStyle=orthogonalEdgeStyle;rounded=0;orthogonalLoop=1;jettySize=auto;html=1;strokeWidth=1;endSize=10;endArrow=block;endFill=0;fontStyle=0;fontSize=13;verticalAlign=middle;exitX=0;exitY=0.5;exitDx=0;exitDy=0;entryX=0.75;entryY=1;entryDx=0;entryDy=0;" parent="1" source="Q0HNM_6OAm2KAwF5EjX4-2" target="Q0HNM_6OAm2KAwF5EjX4-1" edge="1">
          <mxGeometry relative="1" as="geometry">
            <mxPoint x="-2188" y="-1613" as="sourcePoint" />
            <mxPoint x="-2099" y="-1480" as="targetPoint" />
          </mxGeometry>
        </mxCell>
        <mxCell id="dNHMq5w7RyQo7rnOGyaf-6" value="isMultivariate" style="edgeStyle=orthogonalEdgeStyle;rounded=0;orthogonalLoop=1;jettySize=auto;html=1;exitX=0.25;exitY=1;exitDx=0;exitDy=0;entryX=0.25;entryY=0;entryDx=0;entryDy=0;" parent="1" source="poNywXjUV8vylEI_nNT8-2" target="dbTwlH7K__KCzDbvbU6p-1" edge="1">
          <mxGeometry relative="1" as="geometry">
            <Array as="points" />
            <mxPoint x="-2225" y="-1170" as="sourcePoint" />
            <mxPoint x="-2480" y="-1350" as="targetPoint" />
          </mxGeometry>
        </mxCell>
        <mxCell id="6qc-Ym1OKEP7moOWyjJp-1" value="WebService" style="rounded=0;whiteSpace=wrap;html=1;strokeWidth=1;fontStyle=0;fontSize=13;verticalAlign=middle;fillColor=#dae8fc;strokeColor=#000000;" parent="1" vertex="1">
          <mxGeometry x="-2498.5" y="-1573.5" width="130" height="28.5" as="geometry" />
        </mxCell>
        <mxCell id="6qc-Ym1OKEP7moOWyjJp-2" value="DataAccessWebService" style="rounded=0;whiteSpace=wrap;html=1;strokeWidth=1;fontStyle=0;fontSize=13;verticalAlign=middle;fillColor=#dae8fc;strokeColor=#000000;" parent="1" vertex="1">
          <mxGeometry x="-2513.5" y="-1510" width="160" height="30" as="geometry" />
        </mxCell>
        <mxCell id="6qc-Ym1OKEP7moOWyjJp-3" style="edgeStyle=orthogonalEdgeStyle;rounded=0;orthogonalLoop=1;jettySize=auto;html=1;strokeWidth=1;endSize=10;endArrow=block;endFill=0;fontStyle=0;fontSize=13;verticalAlign=middle;exitX=0.5;exitY=0;exitDx=0;exitDy=0;entryX=0.5;entryY=1;entryDx=0;entryDy=0;" parent="1" source="6qc-Ym1OKEP7moOWyjJp-2" target="6qc-Ym1OKEP7moOWyjJp-1" edge="1">
          <mxGeometry relative="1" as="geometry">
            <mxPoint x="-2079" y="-1563" as="sourcePoint" />
            <mxPoint x="-2118" y="-1564" as="targetPoint" />
          </mxGeometry>
        </mxCell>
        <mxCell id="thRLt8XKd3SmJUgEzZLr-1" value="saref:Service" style="rounded=0;whiteSpace=wrap;html=1;strokeWidth=1;strokeColor=#000000;fillColor=#fff2cc;fontStyle=0;fontSize=13;verticalAlign=middle;" parent="1" vertex="1">
          <mxGeometry x="-2493.5" y="-1625" width="120" height="30.25" as="geometry" />
        </mxCell>
        <mxCell id="thRLt8XKd3SmJUgEzZLr-2" style="edgeStyle=orthogonalEdgeStyle;rounded=0;orthogonalLoop=1;jettySize=auto;html=1;strokeWidth=1;endSize=10;endArrow=block;endFill=0;fontStyle=0;fontSize=13;verticalAlign=middle;exitX=0.5;exitY=0;exitDx=0;exitDy=0;entryX=0.5;entryY=1;entryDx=0;entryDy=0;" parent="1" source="6qc-Ym1OKEP7moOWyjJp-1" target="thRLt8XKd3SmJUgEzZLr-1" edge="1">
          <mxGeometry relative="1" as="geometry">
            <mxPoint x="-2438.5" y="-1586.18" as="sourcePoint" />
            <mxPoint x="-2322.5" y="-1484.18" as="targetPoint" />
          </mxGeometry>
        </mxCell>
        <mxCell id="P8pg5NNXj9CfoQnYPt64-3" style="edgeStyle=orthogonalEdgeStyle;rounded=0;orthogonalLoop=1;jettySize=auto;html=1;strokeWidth=1;endSize=10;endArrow=block;endFill=0;fontStyle=0;fontSize=13;verticalAlign=middle;exitX=0.25;exitY=0;exitDx=0;exitDy=0;entryX=0.25;entryY=1;entryDx=0;entryDy=0;" parent="1" source="Q0HNM_6OAm2KAwF5EjX4-3" target="Q0HNM_6OAm2KAwF5EjX4-1" edge="1">
          <mxGeometry relative="1" as="geometry">
            <mxPoint x="-2423" y="-1500" as="sourcePoint" />
            <mxPoint x="-2423" y="-1535" as="targetPoint" />
          </mxGeometry>
        </mxCell>
        <mxCell id="FIbgg4mjqi4XXJHv_CFr-1" value="Comparable" style="rounded=0;whiteSpace=wrap;html=1;strokeWidth=1;fontStyle=0;fontSize=13;verticalAlign=middle;fillColor=#dae8fc;strokeColor=#000000;" parent="1" vertex="1">
          <mxGeometry x="-1946" y="-1314" width="160" height="27" as="geometry" />
        </mxCell>
        <mxCell id="FIbgg4mjqi4XXJHv_CFr-2" value="Composable" style="rounded=0;whiteSpace=wrap;html=1;strokeWidth=1;fontStyle=0;fontSize=13;verticalAlign=middle;fillColor=#dae8fc;strokeColor=#000000;" parent="1" vertex="1">
          <mxGeometry x="-1981" y="-1362" width="160" height="27" as="geometry" />
        </mxCell>
        <mxCell id="FIbgg4mjqi4XXJHv_CFr-3" value="hasComposable" style="edgeStyle=orthogonalEdgeStyle;rounded=0;orthogonalLoop=1;jettySize=auto;html=1;entryX=1;entryY=0.25;entryDx=0;entryDy=0;exitX=0;exitY=1;exitDx=0;exitDy=0;" parent="1" source="FIbgg4mjqi4XXJHv_CFr-2" target="cUN1fglqeP0jbeBrYUu4-1" edge="1">
          <mxGeometry x="-0.0051" relative="1" as="geometry">
            <Array as="points">
              <mxPoint x="-1981" y="-1315" />
            </Array>
            <mxPoint x="-1707" y="-1446" as="sourcePoint" />
            <mxPoint x="-2040" y="-1450" as="targetPoint" />
            <mxPoint as="offset" />
          </mxGeometry>
        </mxCell>
        <mxCell id="FIbgg4mjqi4XXJHv_CFr-4" value="hasComparable" style="edgeStyle=orthogonalEdgeStyle;rounded=0;orthogonalLoop=1;jettySize=auto;html=1;exitX=0;exitY=0.75;exitDx=0;exitDy=0;entryX=1;entryY=1;entryDx=0;entryDy=0;" parent="1" source="FIbgg4mjqi4XXJHv_CFr-1" target="cUN1fglqeP0jbeBrYUu4-1" edge="1">
          <mxGeometry x="0.2711" relative="1" as="geometry">
            <Array as="points">
              <mxPoint x="-1946" y="-1290" />
              <mxPoint x="-2070" y="-1290" />
              <mxPoint x="-2070" y="-1293" />
            </Array>
            <mxPoint x="-1950" y="-1290" as="sourcePoint" />
            <mxPoint x="-2070" y="-1370" as="targetPoint" />
            <mxPoint as="offset" />
          </mxGeometry>
        </mxCell>
        <mxCell id="clby1EOMXRlBetJYY5vL-1" value="hasSequenceFormula" style="edgeStyle=orthogonalEdgeStyle;rounded=0;orthogonalLoop=1;jettySize=auto;html=1;entryX=0;entryY=0.25;entryDx=0;entryDy=0;exitX=0;exitY=0;exitDx=0;exitDy=0;" parent="1" source="clby1EOMXRlBetJYY5vL-7" target="cUN1fglqeP0jbeBrYUu4-1" edge="1">
          <mxGeometry relative="1" as="geometry">
            <Array as="points">
              <mxPoint x="-2513" y="-1315" />
            </Array>
            <mxPoint x="-2310" y="-1140" as="sourcePoint" />
            <mxPoint x="-2140" y="-1220" as="targetPoint" />
          </mxGeometry>
        </mxCell>
        <mxCell id="clby1EOMXRlBetJYY5vL-2" value="hasRecurrenceRelation" style="edgeStyle=orthogonalEdgeStyle;rounded=0;orthogonalLoop=1;jettySize=auto;html=1;entryX=0;entryY=0.75;entryDx=0;entryDy=0;exitX=0.25;exitY=0;exitDx=0;exitDy=0;" parent="1" source="clby1EOMXRlBetJYY5vL-7" target="cUN1fglqeP0jbeBrYUu4-1" edge="1">
          <mxGeometry relative="1" as="geometry">
            <Array as="points">
              <mxPoint x="-2471" y="-1300" />
            </Array>
            <mxPoint x="-2280" y="-1140" as="sourcePoint" />
            <mxPoint x="-2130" y="-1210" as="targetPoint" />
          </mxGeometry>
        </mxCell>
        <mxCell id="clby1EOMXRlBetJYY5vL-3" value="hasValueTable" style="edgeStyle=orthogonalEdgeStyle;rounded=0;orthogonalLoop=1;jettySize=auto;html=1;entryX=0;entryY=1;entryDx=0;entryDy=0;exitX=0.5;exitY=0;exitDx=0;exitDy=0;" parent="1" source="clby1EOMXRlBetJYY5vL-7" target="cUN1fglqeP0jbeBrYUu4-1" edge="1">
          <mxGeometry relative="1" as="geometry">
            <Array as="points">
              <mxPoint x="-2428" y="-1260" />
              <mxPoint x="-2320" y="-1260" />
              <mxPoint x="-2320" y="-1293" />
            </Array>
            <mxPoint x="-2245" y="-1130" as="sourcePoint" />
            <mxPoint x="-2120" y="-1200" as="targetPoint" />
          </mxGeometry>
        </mxCell>
        <mxCell id="clby1EOMXRlBetJYY5vL-7" value="MathematicalStatement" style="rounded=0;whiteSpace=wrap;html=1;strokeWidth=1;fontStyle=0;fontSize=13;verticalAlign=middle;fillColor=#dae8fc;strokeColor=#000000;" parent="1" vertex="1">
          <mxGeometry x="-2513.5" y="-1230" width="171" height="33" as="geometry" />
        </mxCell>
        <mxCell id="fIHoFogp1N_5TaRh09Ds-1" style="edgeStyle=orthogonalEdgeStyle;rounded=0;orthogonalLoop=1;jettySize=auto;html=1;exitX=0;exitY=0;exitDx=0;exitDy=0;entryX=0.25;entryY=1;entryDx=0;entryDy=0;" parent="1" source="fIHoFogp1N_5TaRh09Ds-4" target="cUN1fglqeP0jbeBrYUu4-1" edge="1">
          <mxGeometry relative="1" as="geometry">
            <mxPoint x="-2260" y="-1170" as="sourcePoint" />
            <mxPoint x="-2210" y="-1091.88" as="targetPoint" />
            <Array as="points">
              <mxPoint x="-2277" y="-1200" />
              <mxPoint x="-2277" y="-1200" />
            </Array>
          </mxGeometry>
        </mxCell>
        <mxCell id="fIHoFogp1N_5TaRh09Ds-2" value="hasErrorModel" style="edgeLabel;html=1;align=center;verticalAlign=middle;resizable=0;points=[];" parent="fIHoFogp1N_5TaRh09Ds-1" vertex="1" connectable="0">
          <mxGeometry x="-0.021" relative="1" as="geometry">
            <mxPoint as="offset" />
          </mxGeometry>
        </mxCell>
        <mxCell id="fIHoFogp1N_5TaRh09Ds-4" value="ErrorModel" style="rounded=0;whiteSpace=wrap;html=1;strokeWidth=1;fontStyle=0;fontSize=13;verticalAlign=middle;fillColor=#dae8fc;strokeColor=#000000;" parent="1" vertex="1">
          <mxGeometry x="-2277.5" y="-1197" width="140" height="28.5" as="geometry" />
        </mxCell>
        <mxCell id="fIHoFogp1N_5TaRh09Ds-5" value="ForecastingModel" style="rounded=0;whiteSpace=wrap;html=1;strokeWidth=1;fontStyle=0;fontSize=13;verticalAlign=middle;fillColor=#dae8fc;strokeColor=#000000;" parent="1" vertex="1">
          <mxGeometry x="-2137.5" y="-1234" width="140" height="31.5" as="geometry" />
        </mxCell>
        <mxCell id="fIHoFogp1N_5TaRh09Ds-6" value="hasForecastingModel" style="edgeStyle=orthogonalEdgeStyle;rounded=0;orthogonalLoop=1;jettySize=auto;html=1;exitX=0;exitY=0.75;exitDx=0;exitDy=0;entryX=0.5;entryY=1;entryDx=0;entryDy=0;" parent="1" source="fIHoFogp1N_5TaRh09Ds-5" target="cUN1fglqeP0jbeBrYUu4-1" edge="1">
          <mxGeometry x="0.0041" relative="1" as="geometry">
            <mxPoint x="-2267" y="-1187" as="sourcePoint" />
            <mxPoint x="-2267" y="-1283" as="targetPoint" />
            <Array as="points">
              <mxPoint x="-2245" y="-1210" />
            </Array>
            <mxPoint as="offset" />
          </mxGeometry>
        </mxCell>
        <mxCell id="Ja6j2X_3AMPptWdXpMAg-1" value="AlignedTimeseriesModel" style="rounded=0;whiteSpace=wrap;html=1;strokeWidth=1;fontStyle=0;fontSize=13;verticalAlign=middle;fillColor=#dae8fc;strokeColor=#000000;" parent="1" vertex="1">
          <mxGeometry x="-2126.5" y="-1278" width="170" height="32.25" as="geometry" />
        </mxCell>
        <mxCell id="Ja6j2X_3AMPptWdXpMAg-2" value="hasTimeseriesModel" style="edgeStyle=orthogonalEdgeStyle;rounded=0;orthogonalLoop=1;jettySize=auto;html=1;exitX=0;exitY=0.75;exitDx=0;exitDy=0;entryX=0.75;entryY=1;entryDx=0;entryDy=0;" parent="1" source="Ja6j2X_3AMPptWdXpMAg-1" target="cUN1fglqeP0jbeBrYUu4-1" edge="1">
          <mxGeometry x="0.0041" relative="1" as="geometry">
            <mxPoint x="-2127" y="-1200" as="sourcePoint" />
            <mxPoint x="-2210" y="-1270" as="targetPoint" />
            <Array as="points">
              <mxPoint x="-2137" y="-1260" />
              <mxPoint x="-2212" y="-1260" />
              <mxPoint x="-2212" y="-1270" />
            </Array>
            <mxPoint as="offset" />
          </mxGeometry>
        </mxCell>
        <mxCell id="Ja6j2X_3AMPptWdXpMAg-3" value="saref:Function" style="rounded=0;whiteSpace=wrap;html=1;strokeWidth=1;strokeColor=#000000;fillColor=#fff2cc;fontStyle=0;fontSize=13;verticalAlign=middle;" parent="1" vertex="1">
          <mxGeometry x="-1890" y="-1433" width="104" height="32.25" as="geometry" />
        </mxCell>
        <mxCell id="Ja6j2X_3AMPptWdXpMAg-4" style="edgeStyle=orthogonalEdgeStyle;rounded=0;orthogonalLoop=1;jettySize=auto;html=1;strokeWidth=1;endSize=10;endArrow=block;endFill=0;fontStyle=0;fontSize=13;verticalAlign=middle;exitX=1;exitY=0;exitDx=0;exitDy=0;entryX=1;entryY=1;entryDx=0;entryDy=0;" parent="1" source="FIbgg4mjqi4XXJHv_CFr-1" target="Ja6j2X_3AMPptWdXpMAg-3" edge="1">
          <mxGeometry relative="1" as="geometry">
            <mxPoint x="-1884.5" y="-1392" as="sourcePoint" />
            <mxPoint x="-2083.5" y="-1485" as="targetPoint" />
          </mxGeometry>
        </mxCell>
        <mxCell id="Ja6j2X_3AMPptWdXpMAg-5" style="edgeStyle=orthogonalEdgeStyle;rounded=0;orthogonalLoop=1;jettySize=auto;html=1;strokeWidth=1;endSize=10;endArrow=block;endFill=0;fontStyle=0;fontSize=13;verticalAlign=middle;exitX=1;exitY=0;exitDx=0;exitDy=0;entryX=0.75;entryY=1;entryDx=0;entryDy=0;" parent="1" source="FIbgg4mjqi4XXJHv_CFr-2" target="Ja6j2X_3AMPptWdXpMAg-3" edge="1">
          <mxGeometry relative="1" as="geometry">
            <mxPoint x="-2214" y="-1432" as="sourcePoint" />
            <mxPoint x="-2214" y="-1548" as="targetPoint" />
          </mxGeometry>
        </mxCell>
        <mxCell id="Ja6j2X_3AMPptWdXpMAg-6" value="GenericModel" style="rounded=0;whiteSpace=wrap;html=1;strokeWidth=1;fontStyle=0;fontSize=13;verticalAlign=middle;fillColor=#dae8fc;strokeColor=#000000;" parent="1" vertex="1">
          <mxGeometry x="-1910" y="-1278" width="160" height="31.5" as="geometry" />
        </mxCell>
        <mxCell id="Ja6j2X_3AMPptWdXpMAg-7" style="edgeStyle=orthogonalEdgeStyle;rounded=0;orthogonalLoop=1;jettySize=auto;html=1;strokeWidth=1;endSize=10;endArrow=block;endFill=0;fontStyle=0;fontSize=13;verticalAlign=middle;exitX=1;exitY=0.5;exitDx=0;exitDy=0;entryX=0.75;entryY=1;entryDx=0;entryDy=0;" parent="1" source="fIHoFogp1N_5TaRh09Ds-4" target="Ja6j2X_3AMPptWdXpMAg-6" edge="1">
          <mxGeometry relative="1" as="geometry">
            <mxPoint x="-1828" y="-1178" as="sourcePoint" />
            <mxPoint x="-1794" y="-1186" as="targetPoint" />
            <Array as="points">
              <mxPoint x="-2137" y="-1181" />
              <mxPoint x="-1790" y="-1181" />
            </Array>
          </mxGeometry>
        </mxCell>
        <mxCell id="Ja6j2X_3AMPptWdXpMAg-10" style="edgeStyle=orthogonalEdgeStyle;rounded=0;orthogonalLoop=1;jettySize=auto;html=1;strokeWidth=1;endSize=10;endArrow=block;endFill=0;fontStyle=0;fontSize=13;verticalAlign=middle;exitX=1;exitY=0.5;exitDx=0;exitDy=0;entryX=0.5;entryY=1;entryDx=0;entryDy=0;" parent="1" source="fIHoFogp1N_5TaRh09Ds-5" target="Ja6j2X_3AMPptWdXpMAg-6" edge="1">
          <mxGeometry relative="1" as="geometry">
            <mxPoint x="-2214" y="-1432" as="sourcePoint" />
            <mxPoint x="-2214" y="-1548" as="targetPoint" />
          </mxGeometry>
        </mxCell>
        <mxCell id="Ja6j2X_3AMPptWdXpMAg-11" style="edgeStyle=orthogonalEdgeStyle;rounded=0;orthogonalLoop=1;jettySize=auto;html=1;strokeWidth=1;endSize=10;endArrow=block;endFill=0;fontStyle=0;fontSize=13;verticalAlign=middle;exitX=1;exitY=0.75;exitDx=0;exitDy=0;entryX=0;entryY=0.75;entryDx=0;entryDy=0;" parent="1" source="Ja6j2X_3AMPptWdXpMAg-1" target="Ja6j2X_3AMPptWdXpMAg-6" edge="1">
          <mxGeometry relative="1" as="geometry">
            <mxPoint x="-2214" y="-1432" as="sourcePoint" />
            <mxPoint x="-2214" y="-1548" as="targetPoint" />
          </mxGeometry>
        </mxCell>
        <mxCell id="Ja6j2X_3AMPptWdXpMAg-12" value="hasAlignedSequenceFunction" style="edgeStyle=orthogonalEdgeStyle;rounded=0;orthogonalLoop=1;jettySize=auto;html=1;exitX=0.25;exitY=1;exitDx=0;exitDy=0;entryX=0.25;entryY=0;entryDx=0;entryDy=0;" parent="1" source="Q0HNM_6OAm2KAwF5EjX4-3" target="cUN1fglqeP0jbeBrYUu4-1" edge="1">
          <mxGeometry x="-0.0051" relative="1" as="geometry">
            <Array as="points">
              <mxPoint x="-2257" y="-1340" />
              <mxPoint x="-2277" y="-1340" />
            </Array>
            <mxPoint x="-2287" y="-1474" as="sourcePoint" />
            <mxPoint x="-2343" y="-1415" as="targetPoint" />
            <mxPoint as="offset" />
          </mxGeometry>
        </mxCell>
        <mxCell id="aYSWUJDTqHMqW8GyDGgD-1" value="AlignedSequenceEvent" style="rounded=0;whiteSpace=wrap;html=1;strokeWidth=1;fontStyle=0;fontSize=13;verticalAlign=middle;fillColor=#dae8fc;strokeColor=#000000;" parent="1" vertex="1">
          <mxGeometry x="-2144" y="-1380" width="147.5" height="35" as="geometry" />
        </mxCell>
        <mxCell id="aYSWUJDTqHMqW8GyDGgD-2" value="saref:EventFunction" style="rounded=0;whiteSpace=wrap;html=1;strokeWidth=1;strokeColor=#000000;fillColor=#fff2cc;fontStyle=0;fontSize=13;verticalAlign=middle;" parent="1" vertex="1">
          <mxGeometry x="-2049" y="-1433.75" width="130" height="32.75" as="geometry" />
        </mxCell>
        <mxCell id="aYSWUJDTqHMqW8GyDGgD-5" value="hasAlignedSequenceEvent" style="edgeStyle=orthogonalEdgeStyle;rounded=0;orthogonalLoop=1;jettySize=auto;html=1;exitX=0;exitY=0.5;exitDx=0;exitDy=0;" parent="1" source="aYSWUJDTqHMqW8GyDGgD-1" target="cUN1fglqeP0jbeBrYUu4-1" edge="1">
          <mxGeometry relative="1" as="geometry">
            <mxPoint x="-1818" y="-1797" as="sourcePoint" />
            <mxPoint x="-1818" y="-1730" as="targetPoint" />
          </mxGeometry>
        </mxCell>
        <mxCell id="aYSWUJDTqHMqW8GyDGgD-6" style="edgeStyle=orthogonalEdgeStyle;rounded=0;orthogonalLoop=1;jettySize=auto;html=1;strokeWidth=1;endSize=10;endArrow=block;endFill=0;fontStyle=0;fontSize=13;verticalAlign=middle;exitX=1;exitY=0;exitDx=0;exitDy=0;entryX=0.75;entryY=1;entryDx=0;entryDy=0;" parent="1" source="aYSWUJDTqHMqW8GyDGgD-1" target="aYSWUJDTqHMqW8GyDGgD-2" edge="1">
          <mxGeometry relative="1" as="geometry">
            <mxPoint x="-1811" y="-1352" as="sourcePoint" />
            <mxPoint x="-1802" y="-1383" as="targetPoint" />
            <Array as="points">
              <mxPoint x="-1951" y="-1380" />
            </Array>
          </mxGeometry>
        </mxCell>
        <mxCell id="xImLyMTMwtGf5dEh-xGL-2" value="ComputationGraph" style="rounded=0;whiteSpace=wrap;html=1;strokeWidth=1;fontStyle=0;fontSize=13;verticalAlign=middle;fillColor=#dae8fc;strokeColor=#000000;" parent="1" vertex="1">
          <mxGeometry x="-2250" y="-1460.75" width="151" height="27" as="geometry" />
        </mxCell>
        <mxCell id="xImLyMTMwtGf5dEh-xGL-3" value="hasComputationGraph" style="edgeStyle=orthogonalEdgeStyle;rounded=0;orthogonalLoop=1;jettySize=auto;html=1;exitX=0.25;exitY=1;exitDx=0;exitDy=0;entryX=0.75;entryY=0;entryDx=0;entryDy=0;" parent="1" source="xImLyMTMwtGf5dEh-xGL-2" target="cUN1fglqeP0jbeBrYUu4-1" edge="1">
          <mxGeometry x="-0.0051" relative="1" as="geometry">
            <Array as="points">
              <mxPoint x="-2212" y="-1340" />
            </Array>
            <mxPoint x="-1971" y="-1325" as="sourcePoint" />
            <mxPoint x="-2180" y="-1340" as="targetPoint" />
            <mxPoint as="offset" />
          </mxGeometry>
        </mxCell>
        <mxCell id="1T00XywmLzxCbAwfCI8j-1" value="ProbabilityDistribution" style="rounded=0;whiteSpace=wrap;html=1;strokeWidth=1;fontStyle=0;fontSize=13;verticalAlign=middle;fillColor=#dae8fc;strokeColor=#000000;" parent="1" vertex="1">
          <mxGeometry x="-2058" y="-1490" width="168" height="28.5" as="geometry" />
        </mxCell>
        <mxCell id="1T00XywmLzxCbAwfCI8j-2" style="edgeStyle=orthogonalEdgeStyle;rounded=0;orthogonalLoop=1;jettySize=auto;html=1;exitX=0;exitY=0.5;exitDx=0;exitDy=0;entryX=1;entryY=0;entryDx=0;entryDy=0;" parent="1" source="1T00XywmLzxCbAwfCI8j-1" target="cUN1fglqeP0jbeBrYUu4-1" edge="1">
          <mxGeometry relative="1" as="geometry">
            <Array as="points">
              <mxPoint x="-2080" y="-1476" />
              <mxPoint x="-2080" y="-1400" />
              <mxPoint x="-2180" y="-1400" />
            </Array>
            <mxPoint x="-1825" y="-1441" as="sourcePoint" />
            <mxPoint x="-2188" y="-1326" as="targetPoint" />
          </mxGeometry>
        </mxCell>
        <mxCell id="1T00XywmLzxCbAwfCI8j-3" value="hasProbabilityDistribution" style="edgeLabel;html=1;align=center;verticalAlign=middle;resizable=0;points=[];" parent="1T00XywmLzxCbAwfCI8j-2" vertex="1" connectable="0">
          <mxGeometry x="-0.0252" y="-1" relative="1" as="geometry">
            <mxPoint as="offset" />
          </mxGeometry>
        </mxCell>
        <mxCell id="1T00XywmLzxCbAwfCI8j-6" value="saref:observes" style="edgeStyle=orthogonalEdgeStyle;rounded=0;orthogonalLoop=1;jettySize=auto;html=1;entryX=0;entryY=0.75;entryDx=0;entryDy=0;exitX=0;exitY=0.25;exitDx=0;exitDy=0;" parent="1" source="D19UyOq0NKjgO4asgjqT-3" target="WI2SvS1sXuQpzBF1noll-1" edge="1">
          <mxGeometry relative="1" as="geometry">
            <Array as="points">
              <mxPoint x="-1912" y="-1744" />
              <mxPoint x="-2100" y="-1744" />
              <mxPoint x="-2100" y="-1849" />
            </Array>
            <mxPoint x="-2100" y="-1750" as="sourcePoint" />
            <mxPoint x="-2002.5" y="-1868.75" as="targetPoint" />
          </mxGeometry>
        </mxCell>
        <mxCell id="NLheBwylQN3crHA1VxG--1" value="ssn-system:Precision" style="rounded=0;whiteSpace=wrap;html=1;strokeWidth=1;fontStyle=0;fontSize=13;verticalAlign=middle;fillColor=#d5e8d4;strokeColor=#000000;" parent="1" vertex="1">
          <mxGeometry x="-2535.5" y="-2150" width="152" height="29" as="geometry" />
        </mxCell>
        <mxCell id="NLheBwylQN3crHA1VxG--2" value="ssn-system:Accuracy" style="rounded=0;whiteSpace=wrap;html=1;strokeWidth=1;fontStyle=0;fontSize=13;verticalAlign=middle;fillColor=#d5e8d4;strokeColor=#000000;" parent="1" vertex="1">
          <mxGeometry x="-2535.5" y="-2110" width="152" height="28.5" as="geometry" />
        </mxCell>
        <mxCell id="NLheBwylQN3crHA1VxG--4" value="Sequence" style="rounded=0;whiteSpace=wrap;html=1;strokeWidth=1;fontStyle=0;fontSize=13;verticalAlign=middle;fillColor=#dae8fc;strokeColor=#000000;" parent="1" vertex="1">
          <mxGeometry x="-2200" y="-2035.13" width="95" height="27.5" as="geometry" />
        </mxCell>
        <mxCell id="NLheBwylQN3crHA1VxG--5" style="edgeStyle=orthogonalEdgeStyle;rounded=0;orthogonalLoop=1;jettySize=auto;html=1;strokeWidth=1;endSize=10;endArrow=block;endFill=0;fontStyle=0;fontSize=13;verticalAlign=middle;exitX=0.75;exitY=0;exitDx=0;exitDy=0;entryX=0.5;entryY=1;entryDx=0;entryDy=0;" parent="1" source="NLheBwylQN3crHA1VxG--4" target="NLheBwylQN3crHA1VxG--11" edge="1">
          <mxGeometry relative="1" as="geometry">
            <mxPoint x="-2518" y="-2152.13" as="sourcePoint" />
            <mxPoint x="-1980" y="-2150" as="targetPoint" />
            <Array as="points">
              <mxPoint x="-2006" y="-2035" />
            </Array>
          </mxGeometry>
        </mxCell>
        <mxCell id="NLheBwylQN3crHA1VxG--11" value="saref:Command" style="rounded=0;whiteSpace=wrap;html=1;strokeWidth=1;strokeColor=#000000;fillColor=#fff2cc;fontStyle=0;fontSize=13;verticalAlign=middle;" parent="1" vertex="1">
          <mxGeometry x="-2066" y="-2191.12" width="120" height="32.25" as="geometry" />
        </mxCell>
        <mxCell id="NLheBwylQN3crHA1VxG--18" style="edgeStyle=orthogonalEdgeStyle;rounded=0;orthogonalLoop=1;jettySize=auto;html=1;strokeWidth=1;endSize=10;endArrow=block;endFill=0;fontStyle=0;fontSize=13;verticalAlign=middle;entryX=0.5;entryY=1;entryDx=0;entryDy=0;exitX=0;exitY=0.25;exitDx=0;exitDy=0;" parent="1" source="WI2SvS1sXuQpzBF1noll-1" target="NLheBwylQN3crHA1VxG--4" edge="1">
          <mxGeometry relative="1" as="geometry">
            <mxPoint x="-2077" y="-1856" as="sourcePoint" />
            <mxPoint x="-2332" y="-1600" as="targetPoint" />
            <Array as="points">
              <mxPoint x="-2110" y="-1863" />
              <mxPoint x="-2110" y="-1950" />
              <mxPoint x="-2152" y="-1950" />
            </Array>
          </mxGeometry>
        </mxCell>
        <mxCell id="fu7DCbE1SIBm4xOox_Q6-1" style="edgeStyle=orthogonalEdgeStyle;rounded=0;orthogonalLoop=1;jettySize=auto;html=1;exitX=1;exitY=0.25;exitDx=0;exitDy=0;entryX=1;entryY=0;entryDx=0;entryDy=0;" parent="1" source="dFeDw-KJVFiXb_9Lhizh-1" target="dFeDw-KJVFiXb_9Lhizh-1" edge="1">
          <mxGeometry relative="1" as="geometry" />
        </mxCell>
        <mxCell id="5ZpvPT6sZTTubdMgG0JQ-1" value="hasResolution" style="edgeStyle=orthogonalEdgeStyle;rounded=0;html=1;entryX=1;entryY=1;entryDx=0;entryDy=0;jettySize=auto;orthogonalLoop=1;strokeWidth=1;fontStyle=0;dashed=1;fontSize=13;verticalAlign=middle;exitX=0.75;exitY=0;exitDx=0;exitDy=0;" parent="1" source="NLheBwylQN3crHA1VxG--4" target="5ZpvPT6sZTTubdMgG0JQ-3" edge="1">
          <mxGeometry relative="1" as="geometry">
            <mxPoint x="-1982" y="-1900" as="sourcePoint" />
            <mxPoint x="-1959" y="-1629.75" as="targetPoint" />
            <Array as="points">
              <mxPoint x="-2129" y="-2050" />
              <mxPoint x="-2070" y="-2050" />
              <mxPoint x="-2070" y="-2160" />
            </Array>
          </mxGeometry>
        </mxCell>
        <mxCell id="5ZpvPT6sZTTubdMgG0JQ-3" value="saref:Property" style="rounded=0;whiteSpace=wrap;html=1;strokeWidth=1;strokeColor=#000000;fillColor=#fff2cc;fontStyle=0;fontSize=13;verticalAlign=middle;" parent="1" vertex="1">
          <mxGeometry x="-2210" y="-2190" width="111" height="30" as="geometry" />
        </mxCell>
        <mxCell id="5ZpvPT6sZTTubdMgG0JQ-4" value="hasAccuracy" style="edgeStyle=orthogonalEdgeStyle;rounded=0;html=1;jettySize=auto;orthogonalLoop=1;strokeWidth=1;fontStyle=0;dashed=1;fontSize=13;verticalAlign=middle;exitX=0;exitY=0.5;exitDx=0;exitDy=0;" parent="1" source="NLheBwylQN3crHA1VxG--4" edge="1">
          <mxGeometry x="-0.0005" relative="1" as="geometry">
            <mxPoint x="-2137.5" y="-2007.63" as="sourcePoint" />
            <mxPoint x="-2200" y="-2160" as="targetPoint" />
            <Array as="points">
              <mxPoint x="-2220" y="-2021" />
              <mxPoint x="-2220" y="-2130" />
              <mxPoint x="-2200" y="-2130" />
            </Array>
            <mxPoint as="offset" />
          </mxGeometry>
        </mxCell>
        <mxCell id="WgUeZxc1UOMIKVoB2jnF-1" value="ssn-system:Resolution" style="rounded=0;whiteSpace=wrap;html=1;strokeWidth=1;fontStyle=0;fontSize=13;verticalAlign=middle;fillColor=#d5e8d4;strokeColor=#000000;" parent="1" vertex="1">
          <mxGeometry x="-2535.5" y="-2190" width="152" height="28.5" as="geometry" />
        </mxCell>
        <mxCell id="uprROOEAye6d1K8scylu-1" value="hasPrecision" style="edgeStyle=orthogonalEdgeStyle;rounded=0;html=1;jettySize=auto;orthogonalLoop=1;strokeWidth=1;fontStyle=0;dashed=1;fontSize=13;verticalAlign=middle;exitX=0.25;exitY=0;exitDx=0;exitDy=0;entryX=0.5;entryY=1;entryDx=0;entryDy=0;" parent="1" source="NLheBwylQN3crHA1VxG--4" target="5ZpvPT6sZTTubdMgG0JQ-3" edge="1">
          <mxGeometry x="-0.003" relative="1" as="geometry">
            <mxPoint x="-2025" y="-2025" as="sourcePoint" />
            <mxPoint x="-2232" y="-2110" as="targetPoint" />
            <Array as="points">
              <mxPoint x="-2176" y="-2050" />
              <mxPoint x="-2154" y="-2050" />
            </Array>
            <mxPoint as="offset" />
          </mxGeometry>
        </mxCell>
        <mxCell id="uprROOEAye6d1K8scylu-2" value="saref:isMeasuredIn" style="edgeStyle=orthogonalEdgeStyle;rounded=0;html=1;jettySize=auto;orthogonalLoop=1;strokeWidth=1;fontStyle=0;dashed=1;fontSize=13;verticalAlign=middle;exitX=0;exitY=0.25;exitDx=0;exitDy=0;entryX=1;entryY=0.25;entryDx=0;entryDy=0;" parent="1" source="5ZpvPT6sZTTubdMgG0JQ-3" target="WgUeZxc1UOMIKVoB2jnF-1" edge="1">
          <mxGeometry x="-0.0005" relative="1" as="geometry">
            <mxPoint x="-2049" y="-2025" as="sourcePoint" />
            <mxPoint x="-2166" y="-2150" as="targetPoint" />
            <Array as="points">
              <mxPoint x="-2262" y="-2182" />
              <mxPoint x="-2166" y="-2183" />
            </Array>
            <mxPoint as="offset" />
          </mxGeometry>
        </mxCell>
        <mxCell id="uprROOEAye6d1K8scylu-3" value="saref:isMeasuredIn" style="edgeStyle=orthogonalEdgeStyle;rounded=0;html=1;jettySize=auto;orthogonalLoop=1;strokeWidth=1;fontStyle=0;dashed=1;fontSize=13;verticalAlign=middle;exitX=0;exitY=0.5;exitDx=0;exitDy=0;entryX=1;entryY=0.5;entryDx=0;entryDy=0;" parent="1" source="5ZpvPT6sZTTubdMgG0JQ-3" target="NLheBwylQN3crHA1VxG--1" edge="1">
          <mxGeometry x="-0.0005" relative="1" as="geometry">
            <mxPoint x="-2222" y="-2172" as="sourcePoint" />
            <mxPoint x="-2343" y="-2173" as="targetPoint" />
            <Array as="points">
              <mxPoint x="-2232" y="-2172" />
              <mxPoint x="-2252" y="-2172" />
              <mxPoint x="-2252" y="-2160" />
              <mxPoint x="-2332" y="-2160" />
              <mxPoint x="-2332" y="-2135" />
            </Array>
            <mxPoint as="offset" />
          </mxGeometry>
        </mxCell>
        <mxCell id="uprROOEAye6d1K8scylu-4" value="saref:isMeasuredIn" style="edgeStyle=orthogonalEdgeStyle;rounded=0;html=1;jettySize=auto;orthogonalLoop=1;strokeWidth=1;fontStyle=0;dashed=1;fontSize=13;verticalAlign=middle;exitX=0;exitY=1;exitDx=0;exitDy=0;entryX=1;entryY=0.5;entryDx=0;entryDy=0;" parent="1" source="5ZpvPT6sZTTubdMgG0JQ-3" target="NLheBwylQN3crHA1VxG--2" edge="1">
          <mxGeometry x="-0.0005" relative="1" as="geometry">
            <mxPoint x="-2222" y="-2165" as="sourcePoint" />
            <mxPoint x="-2322" y="-2096" as="targetPoint" />
            <Array as="points">
              <mxPoint x="-2232" y="-2110" />
              <mxPoint x="-2282" y="-2110" />
              <mxPoint x="-2282" y="-2100" />
              <mxPoint x="-2322" y="-2100" />
              <mxPoint x="-2322" y="-2096" />
            </Array>
            <mxPoint as="offset" />
          </mxGeometry>
        </mxCell>
        <mxCell id="WI2SvS1sXuQpzBF1noll-1" value="AlignedSequence" style="rounded=0;whiteSpace=wrap;html=1;strokeWidth=1;fontStyle=0;fontSize=13;verticalAlign=middle;fillColor=#dae8fc;strokeColor=#000000;" parent="1" vertex="1">
          <mxGeometry x="-2077" y="-1870.75" width="130" height="29.25" as="geometry" />
        </mxCell>
        <mxCell id="hpePCL_Ej60tjbjKGio5-1" style="edgeStyle=orthogonalEdgeStyle;rounded=0;orthogonalLoop=1;jettySize=auto;html=1;entryX=0.25;entryY=0;entryDx=0;entryDy=0;exitX=0.5;exitY=1;exitDx=0;exitDy=0;" parent="1" source="hpePCL_Ej60tjbjKGio5-6" target="WI2SvS1sXuQpzBF1noll-1" edge="1">
          <mxGeometry relative="1" as="geometry">
            <mxPoint x="-2011" y="-1907.75" as="sourcePoint" />
            <mxPoint x="-2061.5" y="-1750" as="targetPoint" />
            <Array as="points">
              <mxPoint x="-2040" y="-1887.75" />
              <mxPoint x="-2044" y="-1887.75" />
            </Array>
          </mxGeometry>
        </mxCell>
        <mxCell id="hpePCL_Ej60tjbjKGio5-2" value="hasClock" style="edgeLabel;html=1;align=center;verticalAlign=middle;resizable=0;points=[];" parent="hpePCL_Ej60tjbjKGio5-1" vertex="1" connectable="0">
          <mxGeometry x="0.287" y="-2" relative="1" as="geometry">
            <mxPoint y="1" as="offset" />
          </mxGeometry>
        </mxCell>
        <mxCell id="hpePCL_Ej60tjbjKGio5-3" style="edgeStyle=orthogonalEdgeStyle;rounded=0;orthogonalLoop=1;jettySize=auto;html=1;exitX=0;exitY=0.5;exitDx=0;exitDy=0;entryX=0.75;entryY=0;entryDx=0;entryDy=0;" parent="1" source="6907O11MscOs__ElFufE-2" target="WI2SvS1sXuQpzBF1noll-1" edge="1">
          <mxGeometry relative="1" as="geometry">
            <mxPoint x="-1667.5" y="-1907.75" as="targetPoint" />
            <mxPoint x="-1725.5" y="-1780" as="sourcePoint" />
            <Array as="points">
              <mxPoint x="-1979" y="-1885.75" />
            </Array>
          </mxGeometry>
        </mxCell>
        <mxCell id="hpePCL_Ej60tjbjKGio5-4" value="hasIdentifier" style="edgeLabel;html=1;align=center;verticalAlign=middle;resizable=0;points=[];" parent="hpePCL_Ej60tjbjKGio5-3" vertex="1" connectable="0">
          <mxGeometry x="-0.0634" y="1" relative="1" as="geometry">
            <mxPoint y="1" as="offset" />
          </mxGeometry>
        </mxCell>
        <mxCell id="hpePCL_Ej60tjbjKGio5-5" value="saref:Device" style="rounded=0;whiteSpace=wrap;html=1;strokeWidth=1;strokeColor=#000000;fillColor=#fff2cc;fontStyle=0;fontSize=13;verticalAlign=middle;" parent="1" vertex="1">
          <mxGeometry x="-2007" y="-2020" width="120" height="32.25" as="geometry" />
        </mxCell>
        <mxCell id="hpePCL_Ej60tjbjKGio5-6" value="Clock" style="rounded=0;whiteSpace=wrap;html=1;strokeWidth=1;fontStyle=0;fontSize=13;verticalAlign=middle;fillColor=#dae8fc;strokeColor=#000000;" parent="1" vertex="1">
          <mxGeometry x="-2087" y="-1952.25" width="101" height="31.25" as="geometry" />
        </mxCell>
        <mxCell id="hpePCL_Ej60tjbjKGio5-7" style="edgeStyle=orthogonalEdgeStyle;rounded=0;orthogonalLoop=1;jettySize=auto;html=1;strokeWidth=1;endSize=10;endArrow=block;endFill=0;fontStyle=0;fontSize=13;verticalAlign=middle;exitX=1;exitY=0.5;exitDx=0;exitDy=0;entryX=0.25;entryY=1;entryDx=0;entryDy=0;" parent="1" source="hpePCL_Ej60tjbjKGio5-6" target="hpePCL_Ej60tjbjKGio5-5" edge="1">
          <mxGeometry relative="1" as="geometry">
            <mxPoint x="-1897" y="-1607.75" as="sourcePoint" />
            <mxPoint x="-1898" y="-1568.75" as="targetPoint" />
            <Array as="points">
              <mxPoint x="-1981" y="-1936.75" />
              <mxPoint x="-1981" y="-1971.75" />
              <mxPoint x="-1977" y="-1971.75" />
            </Array>
          </mxGeometry>
        </mxCell>
        <mxCell id="hpePCL_Ej60tjbjKGio5-16" value="hasIntervalBasedSamplingTime" style="edgeStyle=orthogonalEdgeStyle;rounded=0;orthogonalLoop=1;jettySize=auto;html=1;exitX=0.25;exitY=0;exitDx=0;exitDy=0;entryX=0.75;entryY=1;entryDx=0;entryDy=0;" parent="1" source="hpePCL_Ej60tjbjKGio5-8" target="WI2SvS1sXuQpzBF1noll-1" edge="1">
          <mxGeometry relative="1" as="geometry" />
        </mxCell>
        <mxCell id="hpePCL_Ej60tjbjKGio5-8" value="IntervalBasedSamplingTime" style="rounded=0;whiteSpace=wrap;html=1;strokeWidth=1;fontStyle=0;fontSize=13;verticalAlign=middle;fillColor=#dae8fc;strokeColor=#000000;" parent="1" vertex="1">
          <mxGeometry x="-2058.5" y="-1797.37" width="176.5" height="34.75" as="geometry" />
        </mxCell>
        <mxCell id="hpePCL_Ej60tjbjKGio5-9" value="VirtualDevice" style="rounded=0;whiteSpace=wrap;html=1;strokeWidth=1;fontStyle=0;fontSize=13;verticalAlign=middle;fillColor=#dae8fc;strokeColor=#000000;" parent="1" vertex="1">
          <mxGeometry x="-1971" y="-1952.25" width="108" height="33" as="geometry" />
        </mxCell>
        <mxCell id="hpePCL_Ej60tjbjKGio5-10" style="edgeStyle=orthogonalEdgeStyle;rounded=0;orthogonalLoop=1;jettySize=auto;html=1;strokeWidth=1;endSize=10;endArrow=block;endFill=0;fontStyle=0;fontSize=13;verticalAlign=middle;exitX=0.5;exitY=0;exitDx=0;exitDy=0;entryX=0.75;entryY=1;entryDx=0;entryDy=0;" parent="1" source="hpePCL_Ej60tjbjKGio5-9" target="hpePCL_Ej60tjbjKGio5-5" edge="1">
          <mxGeometry relative="1" as="geometry">
            <mxPoint x="-2123" y="-1855.75" as="sourcePoint" />
            <mxPoint x="-2079" y="-1855.75" as="targetPoint" />
          </mxGeometry>
        </mxCell>
        <mxCell id="6907O11MscOs__ElFufE-1" value="SimilarityIndex" style="rounded=0;whiteSpace=wrap;html=1;strokeWidth=1;fontStyle=0;fontSize=13;verticalAlign=middle;fillColor=#dae8fc;strokeColor=#000000;" parent="1" vertex="1">
          <mxGeometry x="-1838" y="-1845.38" width="130" height="29.25" as="geometry" />
        </mxCell>
        <mxCell id="6907O11MscOs__ElFufE-2" value="Identifier" style="rounded=0;whiteSpace=wrap;html=1;strokeWidth=1;fontStyle=0;fontSize=13;verticalAlign=middle;fillColor=#dae8fc;strokeColor=#000000;" parent="1" vertex="1">
          <mxGeometry x="-1839.5" y="-1900" width="130" height="29.25" as="geometry" />
        </mxCell>
        <mxCell id="6907O11MscOs__ElFufE-3" style="edgeStyle=orthogonalEdgeStyle;rounded=0;orthogonalLoop=1;jettySize=auto;html=1;exitX=0.25;exitY=0;exitDx=0;exitDy=0;entryX=1;entryY=0.5;entryDx=0;entryDy=0;" parent="1" source="6907O11MscOs__ElFufE-1" target="WI2SvS1sXuQpzBF1noll-1" edge="1">
          <mxGeometry relative="1" as="geometry">
            <mxPoint x="-1969" y="-1860.75" as="targetPoint" />
            <mxPoint x="-1829" y="-1875.75" as="sourcePoint" />
            <Array as="points">
              <mxPoint x="-1805" y="-1855.75" />
            </Array>
          </mxGeometry>
        </mxCell>
        <mxCell id="6907O11MscOs__ElFufE-4" value="hasSimilarityIndex" style="edgeLabel;html=1;align=center;verticalAlign=middle;resizable=0;points=[];" parent="6907O11MscOs__ElFufE-3" vertex="1" connectable="0">
          <mxGeometry x="-0.0634" y="1" relative="1" as="geometry">
            <mxPoint y="1" as="offset" />
          </mxGeometry>
        </mxCell>
        <mxCell id="YQni53sdSjk8hPps1CFz-1" value="" style="edgeStyle=orthogonalEdgeStyle;rounded=0;orthogonalLoop=1;jettySize=auto;html=1;" parent="1" source="6907O11MscOs__ElFufE-5" target="hpePCL_Ej60tjbjKGio5-8" edge="1">
          <mxGeometry relative="1" as="geometry" />
        </mxCell>
        <mxCell id="6907O11MscOs__ElFufE-5" value="xsd:boolean" style="rounded=0;whiteSpace=wrap;html=1;strokeWidth=1;fontStyle=0;fontSize=13;verticalAlign=middle;" parent="1" vertex="1">
          <mxGeometry x="-1849" y="-1790" width="75.5" height="20" as="geometry" />
        </mxCell>
        <mxCell id="6907O11MscOs__ElFufE-6" style="edgeStyle=orthogonalEdgeStyle;rounded=0;orthogonalLoop=1;jettySize=auto;html=1;exitX=0;exitY=0.5;exitDx=0;exitDy=0;entryX=1;entryY=0.75;entryDx=0;entryDy=0;" parent="1" source="6907O11MscOs__ElFufE-5" target="WI2SvS1sXuQpzBF1noll-1" edge="1">
          <mxGeometry relative="1" as="geometry">
            <mxPoint x="-1937" y="-1845.75" as="targetPoint" />
            <mxPoint x="-1828" y="-1832.75" as="sourcePoint" />
            <Array as="points">
              <mxPoint x="-1861" y="-1800.75" />
              <mxPoint x="-1861" y="-1827.75" />
              <mxPoint x="-1911" y="-1827.75" />
              <mxPoint x="-1911" y="-1845.75" />
              <mxPoint x="-1941" y="-1845.75" />
              <mxPoint x="-1941" y="-1848.75" />
            </Array>
          </mxGeometry>
        </mxCell>
        <mxCell id="6907O11MscOs__ElFufE-7" value="hasProgression" style="edgeLabel;html=1;align=center;verticalAlign=middle;resizable=0;points=[];" parent="6907O11MscOs__ElFufE-6" vertex="1" connectable="0">
          <mxGeometry x="-0.0634" y="1" relative="1" as="geometry">
            <mxPoint y="1" as="offset" />
          </mxGeometry>
        </mxCell>
        <mxCell id="D19UyOq0NKjgO4asgjqT-1" style="edgeStyle=orthogonalEdgeStyle;rounded=0;orthogonalLoop=1;jettySize=auto;html=1;exitX=0;exitY=0.75;exitDx=0;exitDy=0;entryX=0.5;entryY=0;entryDx=0;entryDy=0;" parent="1" source="D19UyOq0NKjgO4asgjqT-3" target="D19UyOq0NKjgO4asgjqT-4" edge="1">
          <mxGeometry relative="1" as="geometry">
            <Array as="points">
              <mxPoint x="-1984" y="-1727" />
            </Array>
          </mxGeometry>
        </mxCell>
        <mxCell id="D19UyOq0NKjgO4asgjqT-2" value="saref:isMeasuredIn" style="edgeLabel;html=1;align=center;verticalAlign=middle;resizable=0;points=[];" parent="D19UyOq0NKjgO4asgjqT-1" vertex="1" connectable="0">
          <mxGeometry x="-0.1793" y="-2" relative="1" as="geometry">
            <mxPoint y="-1" as="offset" />
          </mxGeometry>
        </mxCell>
        <mxCell id="D19UyOq0NKjgO4asgjqT-3" value="saref:Observation" style="rounded=0;whiteSpace=wrap;html=1;strokeWidth=1;strokeColor=#000000;fillColor=#fff2cc;fontStyle=0;fontSize=13;verticalAlign=middle;" parent="1" vertex="1">
          <mxGeometry x="-1912" y="-1746" width="140" height="25" as="geometry" />
        </mxCell>
        <mxCell id="D19UyOq0NKjgO4asgjqT-4" value="saref:UnitOfMeasure" style="rounded=0;whiteSpace=wrap;html=1;strokeWidth=1;strokeColor=#000000;fillColor=#fff2cc;fontStyle=0;fontSize=13;verticalAlign=middle;" parent="1" vertex="1">
          <mxGeometry x="-2049" y="-1686" width="130" height="30" as="geometry" />
        </mxCell>
        <mxCell id="D19UyOq0NKjgO4asgjqT-5" style="edgeStyle=orthogonalEdgeStyle;rounded=0;orthogonalLoop=1;jettySize=auto;html=1;exitX=0.75;exitY=0;exitDx=0;exitDy=0;" parent="1" source="D19UyOq0NKjgO4asgjqT-6" edge="1">
          <mxGeometry relative="1" as="geometry">
            <mxPoint x="-1763" y="-1586" as="targetPoint" />
          </mxGeometry>
        </mxCell>
        <mxCell id="D19UyOq0NKjgO4asgjqT-6" value="saref:FeatureOfInterest" style="rounded=0;whiteSpace=wrap;html=1;strokeWidth=1;strokeColor=#000000;fillColor=#fff2cc;fontStyle=0;fontSize=13;verticalAlign=middle;" parent="1" vertex="1">
          <mxGeometry x="-1875.5" y="-1582.9999999999998" width="160" height="30" as="geometry" />
        </mxCell>
        <mxCell id="D19UyOq0NKjgO4asgjqT-7" style="edgeStyle=orthogonalEdgeStyle;rounded=0;html=1;jettySize=auto;orthogonalLoop=1;strokeWidth=1;fontStyle=0;dashed=1;fontSize=13;verticalAlign=middle;entryX=0.75;entryY=0;entryDx=0;entryDy=0;exitX=1;exitY=0.75;exitDx=0;exitDy=0;" parent="1" source="D19UyOq0NKjgO4asgjqT-3" target="D19UyOq0NKjgO4asgjqT-6" edge="1">
          <mxGeometry relative="1" as="geometry">
            <mxPoint x="-1763" y="-1716" as="sourcePoint" />
            <mxPoint x="-1772" y="-1586" as="targetPoint" />
            <Array as="points">
              <mxPoint x="-1733" y="-1727" />
              <mxPoint x="-1733" y="-1616" />
              <mxPoint x="-1755" y="-1616" />
            </Array>
          </mxGeometry>
        </mxCell>
        <mxCell id="D19UyOq0NKjgO4asgjqT-8" value="saref:isMeasurementOf" style="text;html=1;resizable=0;points=[];align=center;verticalAlign=middle;labelBackgroundColor=#ffffff;fontSize=13;" parent="D19UyOq0NKjgO4asgjqT-7" vertex="1" connectable="0">
          <mxGeometry x="-0.262" y="-1" relative="1" as="geometry">
            <mxPoint x="-59" y="8.5" as="offset" />
          </mxGeometry>
        </mxCell>
        <mxCell id="D19UyOq0NKjgO4asgjqT-9" value="saref:hasMeasurement" style="edgeStyle=orthogonalEdgeStyle;rounded=0;html=1;jettySize=auto;orthogonalLoop=1;strokeWidth=1;fontStyle=0;dashed=1;fontSize=13;verticalAlign=middle;entryX=0.25;entryY=1;entryDx=0;entryDy=0;exitX=0.25;exitY=0;exitDx=0;exitDy=0;" parent="1" source="D19UyOq0NKjgO4asgjqT-6" target="D19UyOq0NKjgO4asgjqT-3" edge="1">
          <mxGeometry relative="1" as="geometry">
            <mxPoint x="-1842" y="-1656" as="sourcePoint" />
            <mxPoint x="-1852" y="-1427" as="targetPoint" />
            <Array as="points">
              <mxPoint x="-1870" y="-1606" />
              <mxPoint x="-1877" y="-1606" />
            </Array>
          </mxGeometry>
        </mxCell>
        <mxCell id="D19UyOq0NKjgO4asgjqT-10" value="saref:Property" style="rounded=0;whiteSpace=wrap;html=1;strokeWidth=1;strokeColor=#000000;fillColor=#fff2cc;fontStyle=0;fontSize=13;verticalAlign=middle;" parent="1" vertex="1">
          <mxGeometry x="-2034" y="-1626" width="100" height="30" as="geometry" />
        </mxCell>
        <mxCell id="D19UyOq0NKjgO4asgjqT-11" style="edgeStyle=orthogonalEdgeStyle;rounded=0;html=1;jettySize=auto;orthogonalLoop=1;strokeWidth=1;fontStyle=0;dashed=1;fontSize=13;verticalAlign=middle;exitX=0;exitY=0.5;exitDx=0;exitDy=0;entryX=0.5;entryY=1;entryDx=0;entryDy=0;" parent="1" source="D19UyOq0NKjgO4asgjqT-6" target="D19UyOq0NKjgO4asgjqT-10" edge="1">
          <mxGeometry relative="1" as="geometry">
            <mxPoint x="-1639.5" y="-1571" as="sourcePoint" />
            <mxPoint x="-1457.7142857142858" y="-1403" as="targetPoint" />
          </mxGeometry>
        </mxCell>
        <mxCell id="D19UyOq0NKjgO4asgjqT-12" value="saref:hasProperty" style="text;html=1;resizable=0;points=[];align=center;verticalAlign=middle;labelBackgroundColor=#ffffff;fontSize=13;" parent="D19UyOq0NKjgO4asgjqT-11" vertex="1" connectable="0">
          <mxGeometry x="-0.1295" y="-2" relative="1" as="geometry">
            <mxPoint x="10" y="-17" as="offset" />
          </mxGeometry>
        </mxCell>
      </root>
    </mxGraphModel>
  </diagram>
  <diagram id="y5vbZPJbc4dvFBfLDq5A" name="ComputationGraph">
    <mxGraphModel dx="4594" dy="3900" grid="1" gridSize="10" guides="1" tooltips="1" connect="1" arrows="1" fold="1" page="1" pageScale="1" pageWidth="850" pageHeight="1100" math="0" shadow="0">
      <root>
        <mxCell id="0" />
        <mxCell id="1" parent="0" />
        <mxCell id="EsMxBjnMIGvhc-Rs1ErV-1" value="ComputationGraph" style="rounded=0;whiteSpace=wrap;html=1;strokeWidth=1;fontStyle=0;fontSize=13;verticalAlign=middle;fillColor=#dae8fc;strokeColor=#000000;" parent="1" vertex="1">
          <mxGeometry x="-3111" y="-3037" width="210" height="53" as="geometry" />
        </mxCell>
        <mxCell id="EsMxBjnMIGvhc-Rs1ErV-2" value="hasIdentifier" style="edgeStyle=orthogonalEdgeStyle;rounded=0;orthogonalLoop=1;jettySize=auto;html=1;entryX=1;entryY=0.5;entryDx=0;entryDy=0;exitX=0;exitY=0.25;exitDx=0;exitDy=0;" parent="1" source="EsMxBjnMIGvhc-Rs1ErV-1" target="AcbJvg2tRKeWD1OeCflt-3" edge="1">
          <mxGeometry x="0.2711" relative="1" as="geometry">
            <Array as="points">
              <mxPoint x="-3231" y="-3024" />
              <mxPoint x="-3231" y="-3057" />
            </Array>
            <mxPoint x="-2176" y="-2550" as="sourcePoint" />
            <mxPoint x="-3281" y="-3024" as="targetPoint" />
            <mxPoint as="offset" />
          </mxGeometry>
        </mxCell>
        <mxCell id="EsMxBjnMIGvhc-Rs1ErV-3" value="hasDeviceName" style="edgeStyle=orthogonalEdgeStyle;rounded=0;orthogonalLoop=1;jettySize=auto;html=1;entryX=0.25;entryY=1;entryDx=0;entryDy=0;exitX=0;exitY=0.75;exitDx=0;exitDy=0;" parent="1" source="EsMxBjnMIGvhc-Rs1ErV-1" target="AcbJvg2tRKeWD1OeCflt-3" edge="1">
          <mxGeometry x="0.2711" relative="1" as="geometry">
            <Array as="points">
              <mxPoint x="-3338" y="-2997" />
            </Array>
            <mxPoint x="-2970" y="-2988" as="sourcePoint" />
            <mxPoint x="-3331" y="-2997" as="targetPoint" />
            <mxPoint as="offset" />
          </mxGeometry>
        </mxCell>
        <mxCell id="mWTdh8n3FQJXjO4rLSJy-1" value="hasPublicDatasetName" style="edgeStyle=orthogonalEdgeStyle;rounded=0;orthogonalLoop=1;jettySize=auto;html=1;entryX=0.75;entryY=1;entryDx=0;entryDy=0;exitX=0;exitY=0.5;exitDx=0;exitDy=0;" parent="1" source="EsMxBjnMIGvhc-Rs1ErV-1" target="AcbJvg2tRKeWD1OeCflt-3" edge="1">
          <mxGeometry x="0.2711" relative="1" as="geometry">
            <Array as="points">
              <mxPoint x="-3273" y="-3010" />
            </Array>
            <mxPoint x="-3201" y="-3174" as="sourcePoint" />
            <mxPoint x="-3341" y="-3010" as="targetPoint" />
            <mxPoint as="offset" />
          </mxGeometry>
        </mxCell>
        <mxCell id="mWTdh8n3FQJXjO4rLSJy-2" value="hasSequenceFormula" style="edgeStyle=orthogonalEdgeStyle;rounded=0;orthogonalLoop=1;jettySize=auto;html=1;entryX=0.5;entryY=0;entryDx=0;entryDy=0;exitX=0.25;exitY=1;exitDx=0;exitDy=0;" parent="1" source="Uj9nV0cqd_3_DKgxSOMb-1" target="EsMxBjnMIGvhc-Rs1ErV-1" edge="1">
          <mxGeometry x="0.2734" relative="1" as="geometry">
            <Array as="points">
              <mxPoint x="-3231" y="-3156" />
              <mxPoint x="-3006" y="-3156" />
            </Array>
            <mxPoint x="-2607" y="-3114" as="sourcePoint" />
            <mxPoint x="-2847" y="-3161" as="targetPoint" />
            <mxPoint as="offset" />
          </mxGeometry>
        </mxCell>
        <mxCell id="mWTdh8n3FQJXjO4rLSJy-3" value="hasAlignedSequence" style="edgeStyle=orthogonalEdgeStyle;rounded=0;orthogonalLoop=1;jettySize=auto;html=1;entryX=0.25;entryY=0;entryDx=0;entryDy=0;exitX=1;exitY=0.75;exitDx=0;exitDy=0;" parent="1" source="aOJT-qNTir6NBSLDmuM1-1" target="EsMxBjnMIGvhc-Rs1ErV-1" edge="1">
          <mxGeometry x="0.2707" relative="1" as="geometry">
            <Array as="points">
              <mxPoint x="-3241" y="-3127" />
              <mxPoint x="-3058" y="-3127" />
            </Array>
            <mxPoint x="-2830" y="-3088" as="sourcePoint" />
            <mxPoint x="-3070" y="-3135" as="targetPoint" />
            <mxPoint as="offset" />
          </mxGeometry>
        </mxCell>
        <mxCell id="mWTdh8n3FQJXjO4rLSJy-4" value="isMeasuredIn" style="edgeStyle=orthogonalEdgeStyle;rounded=0;orthogonalLoop=1;jettySize=auto;html=1;entryX=0;entryY=0;entryDx=0;entryDy=0;exitX=1;exitY=0.5;exitDx=0;exitDy=0;" parent="1" source="n9MOADmdslBNSYnqQ_Yc-1" target="EsMxBjnMIGvhc-Rs1ErV-1" edge="1">
          <mxGeometry x="0.1903" relative="1" as="geometry">
            <Array as="points">
              <mxPoint x="-3111" y="-3092" />
            </Array>
            <mxPoint x="-3191" y="-3097" as="sourcePoint" />
            <mxPoint x="-3120" y="-3107" as="targetPoint" />
            <mxPoint as="offset" />
          </mxGeometry>
        </mxCell>
        <mxCell id="mWTdh8n3FQJXjO4rLSJy-5" value="hasStationarity" style="edgeStyle=orthogonalEdgeStyle;rounded=0;orthogonalLoop=1;jettySize=auto;html=1;entryX=1;entryY=0;entryDx=0;entryDy=0;exitX=0.75;exitY=1;exitDx=0;exitDy=0;" parent="1" source="Uj9nV0cqd_3_DKgxSOMb-1" target="EsMxBjnMIGvhc-Rs1ErV-1" edge="1">
          <mxGeometry x="0.276" relative="1" as="geometry">
            <Array as="points">
              <mxPoint x="-3151" y="-3216" />
              <mxPoint x="-2901" y="-3216" />
            </Array>
            <mxPoint x="-2860" y="-3323" as="sourcePoint" />
            <mxPoint x="-3031" y="-3373" as="targetPoint" />
            <mxPoint as="offset" />
          </mxGeometry>
        </mxCell>
        <mxCell id="mWTdh8n3FQJXjO4rLSJy-6" value="hasSeasonality" style="edgeStyle=orthogonalEdgeStyle;rounded=0;orthogonalLoop=1;jettySize=auto;html=1;entryX=0.75;entryY=0;entryDx=0;entryDy=0;" parent="1" source="Uj9nV0cqd_3_DKgxSOMb-1" target="EsMxBjnMIGvhc-Rs1ErV-1" edge="1">
          <mxGeometry x="0.2579" y="1" relative="1" as="geometry">
            <Array as="points">
              <mxPoint x="-3191" y="-3187" />
              <mxPoint x="-2953" y="-3187" />
            </Array>
            <mxPoint x="-2711" y="-3216" as="sourcePoint" />
            <mxPoint x="-2843" y="-3228" as="targetPoint" />
            <mxPoint as="offset" />
          </mxGeometry>
        </mxCell>
        <mxCell id="mWTdh8n3FQJXjO4rLSJy-7" value="hasAutoCorrelationOrder" style="edgeStyle=orthogonalEdgeStyle;rounded=0;orthogonalLoop=1;jettySize=auto;html=1;exitX=0;exitY=1;exitDx=0;exitDy=0;entryX=0.25;entryY=0;entryDx=0;entryDy=0;" parent="1" source="EsMxBjnMIGvhc-Rs1ErV-1" target="Uj9nV0cqd_3_DKgxSOMb-3" edge="1">
          <mxGeometry x="0.276" relative="1" as="geometry">
            <Array as="points">
              <mxPoint x="-3316" y="-2984" />
              <mxPoint x="-3316" y="-2970" />
              <mxPoint x="-3334" y="-2970" />
            </Array>
            <mxPoint x="-3351" y="-3386" as="sourcePoint" />
            <mxPoint x="-3300" y="-2950" as="targetPoint" />
            <mxPoint as="offset" />
          </mxGeometry>
        </mxCell>
        <mxCell id="mWTdh8n3FQJXjO4rLSJy-8" value="hasCovarianceValue" style="edgeStyle=orthogonalEdgeStyle;rounded=0;orthogonalLoop=1;jettySize=auto;html=1;exitX=1;exitY=0.75;exitDx=0;exitDy=0;entryX=1;entryY=0;entryDx=0;entryDy=0;" parent="1" source="EsMxBjnMIGvhc-Rs1ErV-1" target="AcbJvg2tRKeWD1OeCflt-1" edge="1">
          <mxGeometry x="0.276" relative="1" as="geometry">
            <Array as="points" />
            <mxPoint x="-2773" y="-3235" as="sourcePoint" />
            <mxPoint x="-2591" y="-2997" as="targetPoint" />
            <mxPoint as="offset" />
          </mxGeometry>
        </mxCell>
        <mxCell id="mWTdh8n3FQJXjO4rLSJy-9" value="hasSamplingInterval" style="edgeStyle=orthogonalEdgeStyle;rounded=0;orthogonalLoop=1;jettySize=auto;html=1;entryX=0.75;entryY=0;entryDx=0;entryDy=0;exitX=0;exitY=1;exitDx=0;exitDy=0;" parent="1" source="EsMxBjnMIGvhc-Rs1ErV-1" target="Uj9nV0cqd_3_DKgxSOMb-3" edge="1">
          <mxGeometry x="0.4389" y="-1" relative="1" as="geometry">
            <Array as="points">
              <mxPoint x="-3111" y="-2957" />
              <mxPoint x="-3285" y="-2957" />
            </Array>
            <mxPoint x="-2913" y="-3395" as="sourcePoint" />
            <mxPoint x="-2742" y="-3345" as="targetPoint" />
            <mxPoint as="offset" />
          </mxGeometry>
        </mxCell>
        <mxCell id="mWTdh8n3FQJXjO4rLSJy-11" value="hasTimeseriesModel" style="edgeStyle=orthogonalEdgeStyle;rounded=0;orthogonalLoop=1;jettySize=auto;html=1;entryX=1;entryY=0.25;entryDx=0;entryDy=0;exitX=1;exitY=0.75;exitDx=0;exitDy=0;" parent="1" source="Uj9nV0cqd_3_DKgxSOMb-1" target="EsMxBjnMIGvhc-Rs1ErV-1" edge="1">
          <mxGeometry x="0.276" relative="1" as="geometry">
            <Array as="points">
              <mxPoint x="-3111" y="-3251" />
              <mxPoint x="-2841" y="-3251" />
              <mxPoint x="-2841" y="-3024" />
            </Array>
            <mxPoint x="-2631" y="-3319" as="sourcePoint" />
            <mxPoint x="-2802" y="-3369" as="targetPoint" />
            <mxPoint as="offset" />
          </mxGeometry>
        </mxCell>
        <mxCell id="mWTdh8n3FQJXjO4rLSJy-12" value="hasErrorModel" style="edgeStyle=orthogonalEdgeStyle;rounded=0;orthogonalLoop=1;jettySize=auto;html=1;entryX=0.75;entryY=1;entryDx=0;entryDy=0;exitX=0;exitY=0.5;exitDx=0;exitDy=0;" parent="1" source="cXeWVPCNNsPkxZDv913H-3" target="EsMxBjnMIGvhc-Rs1ErV-1" edge="1">
          <mxGeometry x="0.1903" relative="1" as="geometry">
            <Array as="points">
              <mxPoint x="-2771" y="-2938" />
              <mxPoint x="-2953" y="-2937" />
            </Array>
            <mxPoint x="-2771" y="-2937" as="sourcePoint" />
            <mxPoint x="-3107" y="-2819" as="targetPoint" />
            <mxPoint as="offset" />
          </mxGeometry>
        </mxCell>
        <mxCell id="mWTdh8n3FQJXjO4rLSJy-13" value="hasRecurrenceRelation" style="edgeStyle=orthogonalEdgeStyle;rounded=0;orthogonalLoop=1;jettySize=auto;html=1;entryX=0.5;entryY=1;entryDx=0;entryDy=0;exitX=0;exitY=0.5;exitDx=0;exitDy=0;" parent="1" source="cXeWVPCNNsPkxZDv913H-2" target="EsMxBjnMIGvhc-Rs1ErV-1" edge="1">
          <mxGeometry x="0.1903" relative="1" as="geometry">
            <Array as="points">
              <mxPoint x="-2771" y="-2908" />
              <mxPoint x="-3006" y="-2907" />
            </Array>
            <mxPoint x="-2771" y="-2907" as="sourcePoint" />
            <mxPoint x="-3151" y="-2789" as="targetPoint" />
            <mxPoint as="offset" />
          </mxGeometry>
        </mxCell>
        <mxCell id="mWTdh8n3FQJXjO4rLSJy-14" value="hasProbabilityDistribution" style="edgeStyle=orthogonalEdgeStyle;rounded=0;orthogonalLoop=1;jettySize=auto;html=1;entryX=0.25;entryY=1;entryDx=0;entryDy=0;exitX=0;exitY=0.5;exitDx=0;exitDy=0;" parent="1" source="cXeWVPCNNsPkxZDv913H-1" target="EsMxBjnMIGvhc-Rs1ErV-1" edge="1">
          <mxGeometry x="0.1903" relative="1" as="geometry">
            <Array as="points">
              <mxPoint x="-2771" y="-2878" />
              <mxPoint x="-3058" y="-2877" />
            </Array>
            <mxPoint x="-2771" y="-2877" as="sourcePoint" />
            <mxPoint x="-3041" y="-2967" as="targetPoint" />
            <mxPoint as="offset" />
          </mxGeometry>
        </mxCell>
        <mxCell id="mWTdh8n3FQJXjO4rLSJy-15" value="hasUppeBoundingCurves" style="edgeStyle=orthogonalEdgeStyle;rounded=0;orthogonalLoop=1;jettySize=auto;html=1;entryX=1;entryY=0.5;entryDx=0;entryDy=0;" parent="1" target="EsMxBjnMIGvhc-Rs1ErV-1" edge="1">
          <mxGeometry x="0.1903" relative="1" as="geometry">
            <Array as="points">
              <mxPoint x="-2710" y="-3260" />
              <mxPoint x="-2710" y="-3010" />
            </Array>
            <mxPoint x="-3110" y="-3260" as="sourcePoint" />
            <mxPoint x="-3222" y="-2726" as="targetPoint" />
            <mxPoint as="offset" />
          </mxGeometry>
        </mxCell>
        <mxCell id="mWTdh8n3FQJXjO4rLSJy-16" value="hasForecastingModel" style="edgeStyle=orthogonalEdgeStyle;rounded=0;orthogonalLoop=1;jettySize=auto;html=1;entryX=1;entryY=1;entryDx=0;entryDy=0;exitX=0;exitY=0.5;exitDx=0;exitDy=0;" parent="1" source="cXeWVPCNNsPkxZDv913H-4" target="EsMxBjnMIGvhc-Rs1ErV-1" edge="1">
          <mxGeometry x="0.2509" y="7" relative="1" as="geometry">
            <Array as="points">
              <mxPoint x="-2901" y="-2968" />
            </Array>
            <mxPoint x="-2771" y="-2967" as="sourcePoint" />
            <mxPoint x="-3060" y="-2844" as="targetPoint" />
            <mxPoint as="offset" />
          </mxGeometry>
        </mxCell>
        <mxCell id="mWTdh8n3FQJXjO4rLSJy-17" value="hasConvergenceLimitValue" style="edgeStyle=orthogonalEdgeStyle;rounded=0;orthogonalLoop=1;jettySize=auto;html=1;entryX=0;entryY=0.5;entryDx=0;entryDy=0;exitX=0.129;exitY=1;exitDx=0;exitDy=0;exitPerimeter=0;" parent="1" source="EsMxBjnMIGvhc-Rs1ErV-1" target="AcbJvg2tRKeWD1OeCflt-1" edge="1">
          <mxGeometry x="0.2249" y="-1" relative="1" as="geometry">
            <Array as="points">
              <mxPoint x="-3084" y="-2840" />
              <mxPoint x="-3081" y="-2840" />
              <mxPoint x="-3081" y="-2842" />
            </Array>
            <mxPoint x="-3061" y="-2660" as="sourcePoint" />
            <mxPoint x="-2775" y="-2800" as="targetPoint" />
            <mxPoint as="offset" />
          </mxGeometry>
        </mxCell>
        <mxCell id="cXeWVPCNNsPkxZDv913H-1" value="ProbabilityDistribution" style="rounded=0;whiteSpace=wrap;html=1;strokeWidth=1;fontStyle=0;fontSize=13;verticalAlign=middle;fillColor=#dae8fc;strokeColor=#000000;" parent="1" vertex="1">
          <mxGeometry x="-2758" y="-2887" width="140" height="18.5" as="geometry" />
        </mxCell>
        <mxCell id="cXeWVPCNNsPkxZDv913H-2" value="AlignedSequence" style="rounded=0;whiteSpace=wrap;html=1;strokeWidth=1;fontStyle=0;fontSize=13;verticalAlign=middle;fillColor=#dae8fc;strokeColor=#000000;" parent="1" vertex="1">
          <mxGeometry x="-2758" y="-2917" width="140" height="18.5" as="geometry" />
        </mxCell>
        <mxCell id="cXeWVPCNNsPkxZDv913H-3" value="ErrorModel" style="rounded=0;whiteSpace=wrap;html=1;strokeWidth=1;fontStyle=0;fontSize=13;verticalAlign=middle;fillColor=#dae8fc;strokeColor=#000000;" parent="1" vertex="1">
          <mxGeometry x="-2758" y="-2947" width="140" height="18.5" as="geometry" />
        </mxCell>
        <mxCell id="cXeWVPCNNsPkxZDv913H-4" value="ForecastingModel" style="rounded=0;whiteSpace=wrap;html=1;strokeWidth=1;fontStyle=0;fontSize=13;verticalAlign=middle;fillColor=#dae8fc;strokeColor=#000000;" parent="1" vertex="1">
          <mxGeometry x="-2758" y="-2977" width="140" height="18.5" as="geometry" />
        </mxCell>
        <mxCell id="AcbJvg2tRKeWD1OeCflt-1" value="xsd:decimal" style="rounded=0;whiteSpace=wrap;html=1;strokeWidth=1;fontStyle=0;fontSize=13;verticalAlign=middle;" parent="1" vertex="1">
          <mxGeometry x="-2716" y="-2852" width="130" height="20" as="geometry" />
        </mxCell>
        <mxCell id="AcbJvg2tRKeWD1OeCflt-3" value="xsd:string" style="rounded=0;whiteSpace=wrap;html=1;strokeWidth=1;fontStyle=0;fontSize=13;verticalAlign=middle;" parent="1" vertex="1">
          <mxGeometry x="-3371" y="-3067" width="130" height="20" as="geometry" />
        </mxCell>
        <mxCell id="n9MOADmdslBNSYnqQ_Yc-1" value="saref:UnitOfMeasure" style="rounded=0;whiteSpace=wrap;html=1;strokeWidth=1;strokeColor=#000000;fillColor=#fff2cc;fontStyle=0;fontSize=13;verticalAlign=middle;" parent="1" vertex="1">
          <mxGeometry x="-3371" y="-3107" width="130" height="30" as="geometry" />
        </mxCell>
        <mxCell id="aOJT-qNTir6NBSLDmuM1-1" value="AlignedSequence" style="rounded=0;whiteSpace=wrap;html=1;strokeWidth=1;fontStyle=0;fontSize=13;verticalAlign=middle;fillColor=#dae8fc;strokeColor=#000000;" parent="1" vertex="1">
          <mxGeometry x="-3371" y="-3147" width="130" height="28.5" as="geometry" />
        </mxCell>
        <mxCell id="Uj9nV0cqd_3_DKgxSOMb-1" value="MathematicalStatement" style="rounded=0;whiteSpace=wrap;html=1;strokeWidth=1;fontStyle=0;fontSize=13;verticalAlign=middle;fillColor=#dae8fc;strokeColor=#000000;" parent="1" vertex="1">
          <mxGeometry x="-3271" y="-3277" width="160" height="33" as="geometry" />
        </mxCell>
        <mxCell id="Uj9nV0cqd_3_DKgxSOMb-3" value="xsd:integer" style="rounded=0;whiteSpace=wrap;html=1;strokeWidth=1;fontStyle=0;fontSize=13;verticalAlign=middle;" parent="1" vertex="1">
          <mxGeometry x="-3359" y="-2933" width="99" height="20" as="geometry" />
        </mxCell>
      </root>
    </mxGraphModel>
  </diagram>
  <diagram id="wgxEqu7Hdy6g18rsk90c" name="ontologies">
    <mxGraphModel dx="344" dy="600" grid="1" gridSize="10" guides="1" tooltips="1" connect="1" arrows="1" fold="1" page="1" pageScale="1" pageWidth="850" pageHeight="1100" math="0" shadow="0">
      <root>
        <mxCell id="0" />
        <mxCell id="1" parent="0" />
        <mxCell id="cbYkHmGZBTVsbkGFeJrn-1" value="" style="rounded=0;whiteSpace=wrap;html=1;dashed=1;labelBackgroundColor=#FF0080;fontSize=11;fillColor=#f5f5f5;fontColor=#333333;strokeColor=none;" parent="1" vertex="1">
          <mxGeometry x="1110" y="30" width="560" height="490" as="geometry" />
        </mxCell>
        <mxCell id="cbYkHmGZBTVsbkGFeJrn-2" value="&lt;div&gt;&lt;b&gt;Forecast&lt;/b&gt;&lt;/div&gt;&lt;div&gt;(ic-fc)&lt;br&gt;&lt;/div&gt;" style="rounded=0;whiteSpace=wrap;html=1;snapToPoint=1;points=[[0.1,0],[0.2,0],[0.3,0],[0.4,0],[0.5,0],[0.6,0],[0.7,0],[0.8,0],[0.9,0],[0,0.1],[0,0.3],[0,0.5],[0,0.7],[0,0.9],[0.1,1],[0.2,1],[0.3,1],[0.4,1],[0.5,1],[0.6,1],[0.7,1],[0.8,1],[0.9,1],[1,0.1],[1,0.3],[1,0.5],[1,0.7],[1,0.9]];fontFamily=Helvetica;" parent="1" vertex="1">
          <mxGeometry x="1320" y="90.5" width="120" height="60" as="geometry" />
        </mxCell>
        <mxCell id="cbYkHmGZBTVsbkGFeJrn-3" value="&lt;div&gt;&lt;b&gt;Incentive Table&lt;br&gt;&lt;/b&gt;&lt;/div&gt;&lt;div&gt;(ic-inc)&lt;br&gt;&lt;/div&gt;" style="rounded=0;whiteSpace=wrap;html=1;snapToPoint=1;points=[[0.1,0],[0.2,0],[0.3,0],[0.4,0],[0.5,0],[0.6,0],[0.7,0],[0.8,0],[0.9,0],[0,0.1],[0,0.3],[0,0.5],[0,0.7],[0,0.9],[0.1,1],[0.2,1],[0.3,1],[0.4,1],[0.5,1],[0.6,1],[0.7,1],[0.8,1],[0.9,1],[1,0.1],[1,0.3],[1,0.5],[1,0.7],[1,0.9]];fontFamily=Helvetica;" parent="1" vertex="1">
          <mxGeometry x="1520" y="330.5" width="120" height="60" as="geometry" />
        </mxCell>
        <mxCell id="cbYkHmGZBTVsbkGFeJrn-4" value="reuses" style="edgeStyle=orthogonalEdgeStyle;rounded=0;orthogonalLoop=1;jettySize=auto;html=1;exitX=0.2;exitY=0;exitDx=0;exitDy=0;labelBackgroundColor=#FFFFFF;fontSize=11;endArrow=classic;endFill=1;" parent="1" source="cbYkHmGZBTVsbkGFeJrn-5" edge="1">
          <mxGeometry x="0.0179" relative="1" as="geometry">
            <mxPoint x="1420" y="150" as="targetPoint" />
            <Array as="points">
              <mxPoint x="1544" y="180" />
              <mxPoint x="1420" y="180" />
              <mxPoint x="1420" y="150" />
            </Array>
            <mxPoint as="offset" />
          </mxGeometry>
        </mxCell>
        <mxCell id="cbYkHmGZBTVsbkGFeJrn-5" value="&lt;div&gt;&lt;b&gt;Flexibility&lt;/b&gt;&lt;/div&gt;&lt;div&gt;(ic-flex)&lt;br&gt;&lt;/div&gt;" style="rounded=0;whiteSpace=wrap;html=1;snapToPoint=1;points=[[0.1,0],[0.2,0],[0.3,0],[0.4,0],[0.5,0],[0.6,0],[0.7,0],[0.8,0],[0.9,0],[0,0.1],[0,0.3],[0,0.5],[0,0.7],[0,0.9],[0.1,1],[0.2,1],[0.3,1],[0.4,1],[0.5,1],[0.6,1],[0.7,1],[0.8,1],[0.9,1],[1,0.1],[1,0.3],[1,0.5],[1,0.7],[1,0.9]];fontFamily=Helvetica;" parent="1" vertex="1">
          <mxGeometry x="1520" y="210.5" width="120" height="60" as="geometry" />
        </mxCell>
        <mxCell id="cbYkHmGZBTVsbkGFeJrn-6" value="extends" style="edgeStyle=orthogonalEdgeStyle;rounded=0;orthogonalLoop=1;jettySize=auto;html=1;labelBackgroundColor=#FFFFFF;fontSize=11;endArrow=classic;endFill=1;" parent="1" source="cbYkHmGZBTVsbkGFeJrn-7" edge="1">
          <mxGeometry relative="1" as="geometry">
            <mxPoint x="1580" y="210" as="targetPoint" />
          </mxGeometry>
        </mxCell>
        <mxCell id="cbYkHmGZBTVsbkGFeJrn-7" value="&lt;div&gt;&lt;b&gt;S2&lt;/b&gt;&lt;/div&gt;&lt;div&gt;(ic-s2)&lt;br&gt;&lt;/div&gt;" style="rounded=0;whiteSpace=wrap;html=1;snapToPoint=1;points=[[0.1,0],[0.2,0],[0.3,0],[0.4,0],[0.5,0],[0.6,0],[0.7,0],[0.8,0],[0.9,0],[0,0.1],[0,0.3],[0,0.5],[0,0.7],[0,0.9],[0.1,1],[0.2,1],[0.3,1],[0.4,1],[0.5,1],[0.6,1],[0.7,1],[0.8,1],[0.9,1],[1,0.1],[1,0.3],[1,0.5],[1,0.7],[1,0.9]];fontFamily=Helvetica;" parent="1" vertex="1">
          <mxGeometry x="1520" y="90.5" width="120" height="60" as="geometry" />
        </mxCell>
        <mxCell id="cbYkHmGZBTVsbkGFeJrn-8" value="extends" style="edgeStyle=orthogonalEdgeStyle;rounded=0;orthogonalLoop=1;jettySize=auto;html=1;labelBackgroundColor=#FFFFFF;fontSize=11;endArrow=classic;endFill=1;exitX=0;exitY=0.7;exitDx=0;exitDy=0;" parent="1" source="cbYkHmGZBTVsbkGFeJrn-9" edge="1">
          <mxGeometry relative="1" as="geometry">
            <mxPoint x="1380" y="570" as="targetPoint" />
          </mxGeometry>
        </mxCell>
        <mxCell id="cbYkHmGZBTVsbkGFeJrn-9" value="&lt;div&gt;&lt;b&gt;Power Limit&lt;br&gt;&lt;/b&gt;&lt;/div&gt;&lt;div&gt;(ic-pwlm)&lt;br&gt;&lt;/div&gt;" style="rounded=0;whiteSpace=wrap;html=1;snapToPoint=1;points=[[0.1,0],[0.2,0],[0.3,0],[0.4,0],[0.5,0],[0.6,0],[0.7,0],[0.8,0],[0.9,0],[0,0.1],[0,0.3],[0,0.5],[0,0.7],[0,0.9],[0.1,1],[0.2,1],[0.3,1],[0.4,1],[0.5,1],[0.6,1],[0.7,1],[0.8,1],[0.9,1],[1,0.1],[1,0.3],[1,0.5],[1,0.7],[1,0.9]];fontFamily=Helvetica;" parent="1" vertex="1">
          <mxGeometry x="1520" y="430" width="120" height="60" as="geometry" />
        </mxCell>
        <mxCell id="cbYkHmGZBTVsbkGFeJrn-10" value="extends" style="edgeStyle=orthogonalEdgeStyle;rounded=0;orthogonalLoop=1;jettySize=auto;html=1;labelBackgroundColor=#FFFFFF;fontSize=11;endArrow=classic;endFill=1;entryX=0;entryY=0.5;entryDx=0;entryDy=0;" parent="1" source="cbYkHmGZBTVsbkGFeJrn-11" target="cbYkHmGZBTVsbkGFeJrn-33" edge="1">
          <mxGeometry relative="1" as="geometry">
            <mxPoint x="1180" y="570" as="targetPoint" />
            <Array as="points">
              <mxPoint x="1270" y="480" />
              <mxPoint x="1270" y="590" />
            </Array>
          </mxGeometry>
        </mxCell>
        <mxCell id="cbYkHmGZBTVsbkGFeJrn-11" value="&lt;div&gt;&lt;b&gt;Devices &amp;amp; Sensors&lt;/b&gt;&lt;/div&gt;&lt;div&gt;(ic-dev)&lt;br&gt;&lt;/div&gt;" style="rounded=0;whiteSpace=wrap;html=1;snapToPoint=1;points=[[0.1,0],[0.2,0],[0.3,0],[0.4,0],[0.5,0],[0.6,0],[0.7,0],[0.8,0],[0.9,0],[0,0.1],[0,0.3],[0,0.5],[0,0.7],[0,0.9],[0.1,1],[0.2,1],[0.3,1],[0.4,1],[0.5,1],[0.6,1],[0.7,1],[0.8,1],[0.9,1],[1,0.1],[1,0.3],[1,0.5],[1,0.7],[1,0.9]];fontFamily=Helvetica;" parent="1" vertex="1">
          <mxGeometry x="1120" y="450.5" width="120" height="60" as="geometry" />
        </mxCell>
        <mxCell id="cbYkHmGZBTVsbkGFeJrn-12" value="&lt;div&gt;&lt;b&gt;User Preferences&lt;br&gt;&lt;/b&gt;&lt;/div&gt;&lt;div&gt;(ic-user)&lt;br&gt;&lt;/div&gt;" style="rounded=0;whiteSpace=wrap;html=1;snapToPoint=1;points=[[0.1,0],[0.2,0],[0.3,0],[0.4,0],[0.5,0],[0.6,0],[0.7,0],[0.8,0],[0.9,0],[0,0.1],[0,0.3],[0,0.5],[0,0.7],[0,0.9],[0.1,1],[0.2,1],[0.3,1],[0.4,1],[0.5,1],[0.6,1],[0.7,1],[0.8,1],[0.9,1],[1,0.1],[1,0.3],[1,0.5],[1,0.7],[1,0.9]];fontFamily=Helvetica;" parent="1" vertex="1">
          <mxGeometry x="1320" y="330.5" width="120" height="60" as="geometry" />
        </mxCell>
        <mxCell id="cbYkHmGZBTVsbkGFeJrn-13" value="&lt;div&gt;&lt;b&gt;Topology&lt;/b&gt;&lt;/div&gt;&lt;div&gt;ic-tplg&lt;br&gt;&lt;/div&gt;" style="rounded=0;whiteSpace=wrap;html=1;snapToPoint=1;points=[[0.1,0],[0.2,0],[0.3,0],[0.4,0],[0.5,0],[0.6,0],[0.7,0],[0.8,0],[0.9,0],[0,0.1],[0,0.3],[0,0.5],[0,0.7],[0,0.9],[0.1,1],[0.2,1],[0.3,1],[0.4,1],[0.5,1],[0.6,1],[0.7,1],[0.8,1],[0.9,1],[1,0.1],[1,0.3],[1,0.5],[1,0.7],[1,0.9]];fontFamily=Helvetica;" parent="1" vertex="1">
          <mxGeometry x="1120" y="330.5" width="120" height="60" as="geometry" />
        </mxCell>
        <mxCell id="cbYkHmGZBTVsbkGFeJrn-14" value="reuses" style="edgeStyle=orthogonalEdgeStyle;rounded=0;orthogonalLoop=1;jettySize=auto;html=1;exitX=0;exitY=0.328;exitDx=0;exitDy=0;entryX=1.003;entryY=0.326;entryDx=0;entryDy=0;labelBackgroundColor=#FFFFFF;fontSize=11;endArrow=classic;endFill=1;exitPerimeter=0;entryPerimeter=0;" parent="1" source="cbYkHmGZBTVsbkGFeJrn-12" target="cbYkHmGZBTVsbkGFeJrn-13" edge="1">
          <mxGeometry relative="1" as="geometry" />
        </mxCell>
        <mxCell id="cbYkHmGZBTVsbkGFeJrn-15" value="&lt;div&gt;&lt;b&gt;Units of Measure&lt;br&gt;&lt;/b&gt;&lt;/div&gt;&lt;div&gt;(ic-uom)&lt;br&gt;&lt;/div&gt;" style="rounded=0;whiteSpace=wrap;html=1;snapToPoint=1;points=[[0.1,0],[0.2,0],[0.3,0],[0.4,0],[0.5,0],[0.6,0],[0.7,0],[0.8,0],[0.9,0],[0,0.1],[0,0.3],[0,0.5],[0,0.7],[0,0.9],[0.1,1],[0.2,1],[0.3,1],[0.4,1],[0.5,1],[0.6,1],[0.7,1],[0.8,1],[0.9,1],[1,0.1],[1,0.3],[1,0.5],[1,0.7],[1,0.9]];fontFamily=Helvetica;" parent="1" vertex="1">
          <mxGeometry x="1120" y="90.5" width="120" height="60" as="geometry" />
        </mxCell>
        <mxCell id="cbYkHmGZBTVsbkGFeJrn-16" value="reuses" style="edgeStyle=orthogonalEdgeStyle;rounded=0;orthogonalLoop=1;jettySize=auto;html=1;exitX=0.5;exitY=1;exitDx=0;exitDy=0;labelBackgroundColor=#FFFFFF;fontSize=11;endArrow=classic;endFill=1;" parent="1" source="cbYkHmGZBTVsbkGFeJrn-18" edge="1">
          <mxGeometry relative="1" as="geometry">
            <mxPoint x="1180" y="330" as="targetPoint" />
          </mxGeometry>
        </mxCell>
        <mxCell id="cbYkHmGZBTVsbkGFeJrn-17" value="reuses" style="edgeStyle=orthogonalEdgeStyle;rounded=0;orthogonalLoop=1;jettySize=auto;html=1;entryX=0.5;entryY=1;entryDx=0;entryDy=0;labelBackgroundColor=#FFFFFF;fontSize=11;endArrow=classic;endFill=1;exitX=0.5;exitY=0;exitDx=0;exitDy=0;" parent="1" source="cbYkHmGZBTVsbkGFeJrn-18" target="cbYkHmGZBTVsbkGFeJrn-15" edge="1">
          <mxGeometry relative="1" as="geometry">
            <Array as="points">
              <mxPoint x="1340" y="210" />
              <mxPoint x="1340" y="190" />
              <mxPoint x="1180" y="190" />
            </Array>
          </mxGeometry>
        </mxCell>
        <mxCell id="cbYkHmGZBTVsbkGFeJrn-18" value="&lt;div&gt;&lt;b&gt;DataPoint &amp;amp; TimeSeries&lt;/b&gt;&lt;/div&gt;&lt;div&gt;(ic-data)&lt;br&gt;&lt;/div&gt;" style="rounded=0;whiteSpace=wrap;html=1;snapToPoint=1;points=[[0.1,0],[0.2,0],[0.3,0],[0.4,0],[0.5,0],[0.6,0],[0.7,0],[0.8,0],[0.9,0],[0,0.1],[0,0.3],[0,0.5],[0,0.7],[0,0.9],[0.1,1],[0.2,1],[0.3,1],[0.4,1],[0.5,1],[0.6,1],[0.7,1],[0.8,1],[0.9,1],[1,0.1],[1,0.3],[1,0.5],[1,0.7],[1,0.9]];fontFamily=Helvetica;" parent="1" vertex="1">
          <mxGeometry x="1320" y="210.5" width="120" height="60" as="geometry" />
        </mxCell>
        <mxCell id="cbYkHmGZBTVsbkGFeJrn-19" value="reuses" style="edgeStyle=orthogonalEdgeStyle;rounded=0;orthogonalLoop=1;jettySize=auto;html=1;entryX=0.5;entryY=0;entryDx=0;entryDy=0;labelBackgroundColor=#FFFFFF;fontSize=11;endArrow=classic;endFill=1;" parent="1" source="cbYkHmGZBTVsbkGFeJrn-2" target="cbYkHmGZBTVsbkGFeJrn-18" edge="1">
          <mxGeometry relative="1" as="geometry" />
        </mxCell>
        <mxCell id="cbYkHmGZBTVsbkGFeJrn-20" value="reuses" style="edgeStyle=orthogonalEdgeStyle;rounded=0;orthogonalLoop=1;jettySize=auto;html=1;entryX=1;entryY=0.5;entryDx=0;entryDy=0;labelBackgroundColor=#FFFFFF;fontSize=11;endArrow=classic;endFill=1;" parent="1" source="cbYkHmGZBTVsbkGFeJrn-3" target="cbYkHmGZBTVsbkGFeJrn-18" edge="1">
          <mxGeometry x="-0.1974" relative="1" as="geometry">
            <Array as="points">
              <mxPoint x="1500" y="360" />
              <mxPoint x="1500" y="240" />
            </Array>
            <mxPoint as="offset" />
          </mxGeometry>
        </mxCell>
        <mxCell id="cbYkHmGZBTVsbkGFeJrn-21" value="reuses" style="edgeStyle=orthogonalEdgeStyle;rounded=0;orthogonalLoop=1;jettySize=auto;html=1;labelBackgroundColor=#FFFFFF;fontSize=11;endArrow=classic;endFill=1;exitX=0;exitY=0.3;exitDx=0;exitDy=0;entryX=1;entryY=0.3;entryDx=0;entryDy=0;" parent="1" source="cbYkHmGZBTVsbkGFeJrn-5" target="cbYkHmGZBTVsbkGFeJrn-18" edge="1">
          <mxGeometry relative="1" as="geometry" />
        </mxCell>
        <mxCell id="cbYkHmGZBTVsbkGFeJrn-22" value="reuses" style="edgeStyle=orthogonalEdgeStyle;rounded=0;orthogonalLoop=1;jettySize=auto;html=1;labelBackgroundColor=#FFFFFF;fontSize=11;endArrow=classic;endFill=1;exitX=0;exitY=0.7;exitDx=0;exitDy=0;" parent="1" source="cbYkHmGZBTVsbkGFeJrn-9" edge="1">
          <mxGeometry x="-0.3907" y="-10" relative="1" as="geometry">
            <Array as="points">
              <mxPoint x="1520" y="450" />
              <mxPoint x="1480" y="450" />
              <mxPoint x="1480" y="250" />
            </Array>
            <mxPoint as="offset" />
            <mxPoint x="1440" y="250" as="targetPoint" />
          </mxGeometry>
        </mxCell>
        <mxCell id="cbYkHmGZBTVsbkGFeJrn-23" value="&lt;div style=&quot;font-size: 11px&quot;&gt;&lt;b style=&quot;font-size: 11px&quot;&gt;Ontology of Units of Measurement&lt;br style=&quot;font-size: 11px&quot;&gt;&lt;/b&gt;&lt;/div&gt;&lt;div style=&quot;font-size: 11px&quot;&gt;(om)&lt;br style=&quot;font-size: 11px&quot;&gt;&lt;/div&gt;" style="rounded=0;whiteSpace=wrap;html=1;snapToPoint=1;points=[[0.1,0],[0.2,0],[0.3,0],[0.4,0],[0.5,0],[0.6,0],[0.7,0],[0.8,0],[0.9,0],[0,0.1],[0,0.3],[0,0.5],[0,0.7],[0,0.9],[0.1,1],[0.2,1],[0.3,1],[0.4,1],[0.5,1],[0.6,1],[0.7,1],[0.8,1],[0.9,1],[1,0.1],[1,0.3],[1,0.5],[1,0.7],[1,0.9]];fontFamily=Helvetica;fontSize=11;fillColor=#DAE8FC;strokeColor=#10739e;" parent="1" vertex="1">
          <mxGeometry x="920" y="90" width="100" height="40" as="geometry" />
        </mxCell>
        <mxCell id="cbYkHmGZBTVsbkGFeJrn-24" value="reuses" style="edgeStyle=orthogonalEdgeStyle;rounded=0;orthogonalLoop=1;jettySize=auto;html=1;entryX=1.002;entryY=0.22;entryDx=0;entryDy=0;labelBackgroundColor=#FFFFFF;fontSize=11;endArrow=classic;endFill=1;exitX=0.003;exitY=0.15;exitDx=0;exitDy=0;entryPerimeter=0;exitPerimeter=0;" parent="1" source="cbYkHmGZBTVsbkGFeJrn-15" target="cbYkHmGZBTVsbkGFeJrn-23" edge="1">
          <mxGeometry x="0.0148" relative="1" as="geometry">
            <Array as="points">
              <mxPoint x="1020" y="100" />
            </Array>
            <mxPoint as="offset" />
          </mxGeometry>
        </mxCell>
        <mxCell id="cbYkHmGZBTVsbkGFeJrn-25" value="reuses" style="edgeStyle=orthogonalEdgeStyle;rounded=0;orthogonalLoop=1;jettySize=auto;html=1;entryX=1;entryY=0.7;entryDx=0;entryDy=0;labelBackgroundColor=#FFFFFF;fontSize=11;endArrow=classic;endFill=1;exitX=0;exitY=0.3;exitDx=0;exitDy=0;" parent="1" source="cbYkHmGZBTVsbkGFeJrn-18" target="cbYkHmGZBTVsbkGFeJrn-23" edge="1">
          <mxGeometry x="0.4197" relative="1" as="geometry">
            <Array as="points">
              <mxPoint x="1090" y="228" />
              <mxPoint x="1090" y="118" />
            </Array>
            <mxPoint as="offset" />
          </mxGeometry>
        </mxCell>
        <mxCell id="cbYkHmGZBTVsbkGFeJrn-26" value="&lt;div style=&quot;font-size: 11px&quot;&gt;&lt;b style=&quot;font-size: 11px&quot;&gt;Friend Of A Friend &lt;br style=&quot;font-size: 11px&quot;&gt;&lt;/b&gt;&lt;/div&gt;&lt;div style=&quot;font-size: 11px&quot;&gt;(foaf)&lt;br style=&quot;font-size: 11px&quot;&gt;&lt;/div&gt;" style="rounded=0;whiteSpace=wrap;html=1;snapToPoint=1;points=[[0.1,0],[0.2,0],[0.3,0],[0.4,0],[0.5,0],[0.6,0],[0.7,0],[0.8,0],[0.9,0],[0,0.1],[0,0.3],[0,0.5],[0,0.7],[0,0.9],[0.1,1],[0.2,1],[0.3,1],[0.4,1],[0.5,1],[0.6,1],[0.7,1],[0.8,1],[0.9,1],[1,0.1],[1,0.3],[1,0.5],[1,0.7],[1,0.9]];fontFamily=Helvetica;fontSize=11;fillColor=#e1d5e7;strokeColor=#9673a6;" parent="1" vertex="1">
          <mxGeometry x="920" y="170.5" width="100" height="40" as="geometry" />
        </mxCell>
        <mxCell id="cbYkHmGZBTVsbkGFeJrn-27" value="reuses" style="edgeStyle=orthogonalEdgeStyle;rounded=0;orthogonalLoop=1;jettySize=auto;html=1;entryX=1.027;entryY=0.513;entryDx=0;entryDy=0;entryPerimeter=0;labelBackgroundColor=#FFFFFF;fontSize=11;endArrow=classic;endFill=1;" parent="1" source="cbYkHmGZBTVsbkGFeJrn-18" target="cbYkHmGZBTVsbkGFeJrn-26" edge="1">
          <mxGeometry x="0.6284" relative="1" as="geometry">
            <Array as="points">
              <mxPoint x="1060" y="240" />
              <mxPoint x="1060" y="191" />
            </Array>
            <mxPoint as="offset" />
          </mxGeometry>
        </mxCell>
        <mxCell id="cbYkHmGZBTVsbkGFeJrn-28" value="&lt;div style=&quot;font-size: 11px&quot;&gt;&lt;b style=&quot;font-size: 11px&quot;&gt;Time ontology&lt;br style=&quot;font-size: 11px&quot;&gt;&lt;/b&gt;&lt;/div&gt;&lt;div style=&quot;font-size: 11px&quot;&gt;(time)&lt;br style=&quot;font-size: 11px&quot;&gt;&lt;/div&gt;" style="rounded=0;whiteSpace=wrap;html=1;snapToPoint=1;points=[[0.1,0],[0.2,0],[0.3,0],[0.4,0],[0.5,0],[0.6,0],[0.7,0],[0.8,0],[0.9,0],[0,0.1],[0,0.3],[0,0.5],[0,0.7],[0,0.9],[0.1,1],[0.2,1],[0.3,1],[0.4,1],[0.5,1],[0.6,1],[0.7,1],[0.8,1],[0.9,1],[1,0.1],[1,0.3],[1,0.5],[1,0.7],[1,0.9]];fontFamily=Helvetica;fontSize=11;fillColor=#ffe6cc;strokeColor=#d79b00;" parent="1" vertex="1">
          <mxGeometry x="920" y="409" width="100" height="40" as="geometry" />
        </mxCell>
        <mxCell id="cbYkHmGZBTVsbkGFeJrn-29" value="reuses" style="edgeStyle=orthogonalEdgeStyle;rounded=0;orthogonalLoop=1;jettySize=auto;html=1;exitX=0;exitY=0.5;exitDx=0;exitDy=0;entryX=1;entryY=0.7;entryDx=0;entryDy=0;labelBackgroundColor=#FFFFFF;fontSize=11;endArrow=classic;endFill=1;" parent="1" source="cbYkHmGZBTVsbkGFeJrn-12" target="cbYkHmGZBTVsbkGFeJrn-28" edge="1">
          <mxGeometry x="-0.5748" relative="1" as="geometry">
            <Array as="points">
              <mxPoint x="1270" y="361" />
              <mxPoint x="1270" y="437" />
            </Array>
            <mxPoint as="offset" />
          </mxGeometry>
        </mxCell>
        <mxCell id="cbYkHmGZBTVsbkGFeJrn-30" value="reuses" style="edgeStyle=orthogonalEdgeStyle;rounded=0;orthogonalLoop=1;jettySize=auto;html=1;exitX=0;exitY=0.7;exitDx=0;exitDy=0;entryX=1;entryY=0.3;entryDx=0;entryDy=0;labelBackgroundColor=#FFFFFF;fontSize=11;endArrow=classic;endFill=1;" parent="1" source="cbYkHmGZBTVsbkGFeJrn-18" target="cbYkHmGZBTVsbkGFeJrn-28" edge="1">
          <mxGeometry x="-0.4984" relative="1" as="geometry">
            <Array as="points">
              <mxPoint x="1090" y="252" />
              <mxPoint x="1090" y="421" />
            </Array>
            <mxPoint as="offset" />
          </mxGeometry>
        </mxCell>
        <mxCell id="cbYkHmGZBTVsbkGFeJrn-31" value="&lt;div style=&quot;font-size: 11px&quot;&gt;&lt;b style=&quot;font-size: 11px&quot;&gt;SAREF for ENERGY&lt;br style=&quot;font-size: 11px&quot;&gt;&lt;/b&gt;&lt;/div&gt;&lt;div style=&quot;font-size: 11px&quot;&gt;(s4ener v1)&lt;br style=&quot;font-size: 11px&quot;&gt;&lt;/div&gt;" style="rounded=0;whiteSpace=wrap;html=1;snapToPoint=1;points=[[0.1,0],[0.2,0],[0.3,0],[0.4,0],[0.5,0],[0.6,0],[0.7,0],[0.8,0],[0.9,0],[0,0.1],[0,0.3],[0,0.5],[0,0.7],[0,0.9],[0.1,1],[0.2,1],[0.3,1],[0.4,1],[0.5,1],[0.6,1],[0.7,1],[0.8,1],[0.9,1],[1,0.1],[1,0.3],[1,0.5],[1,0.7],[1,0.9]];fontFamily=Helvetica;fontSize=11;fillColor=#d5e8d4;strokeColor=#82b366;" parent="1" vertex="1">
          <mxGeometry x="1520" y="570.5" width="100" height="40" as="geometry" />
        </mxCell>
        <mxCell id="cbYkHmGZBTVsbkGFeJrn-32" value="extends" style="rounded=0;orthogonalLoop=1;jettySize=auto;html=1;entryX=1;entryY=0.5;entryDx=0;entryDy=0;labelBackgroundColor=#FFFFFF;fontSize=11;endArrow=none;endFill=0;startArrow=classic;startFill=1;exitX=1;exitY=0.3;exitDx=0;exitDy=0;edgeStyle=orthogonalEdgeStyle;" parent="1" source="cbYkHmGZBTVsbkGFeJrn-5" target="cbYkHmGZBTVsbkGFeJrn-31" edge="1">
          <mxGeometry x="0.6074" relative="1" as="geometry">
            <Array as="points">
              <mxPoint x="1680" y="229" />
              <mxPoint x="1680" y="591" />
            </Array>
            <mxPoint as="offset" />
          </mxGeometry>
        </mxCell>
        <mxCell id="cbYkHmGZBTVsbkGFeJrn-33" value="&lt;div style=&quot;font-size: 11px&quot;&gt;&lt;b style=&quot;font-size: 11px&quot;&gt;SAREF&lt;br style=&quot;font-size: 11px&quot;&gt;&lt;/b&gt;&lt;/div&gt;&lt;div style=&quot;font-size: 11px&quot;&gt;(saref)&lt;br style=&quot;font-size: 11px&quot;&gt;&lt;/div&gt;" style="rounded=0;whiteSpace=wrap;html=1;snapToPoint=1;points=[[0.1,0],[0.2,0],[0.3,0],[0.4,0],[0.5,0],[0.6,0],[0.7,0],[0.8,0],[0.9,0],[0,0.1],[0,0.3],[0,0.5],[0,0.7],[0,0.9],[0.1,1],[0.2,1],[0.3,1],[0.4,1],[0.5,1],[0.6,1],[0.7,1],[0.8,1],[0.9,1],[1,0.1],[1,0.3],[1,0.5],[1,0.7],[1,0.9]];fontFamily=Helvetica;fontSize=11;fillColor=#d5e8d4;strokeColor=#82b366;" parent="1" vertex="1">
          <mxGeometry x="1320" y="570.5" width="100" height="40" as="geometry" />
        </mxCell>
        <mxCell id="cbYkHmGZBTVsbkGFeJrn-34" value="extends" style="edgeStyle=orthogonalEdgeStyle;rounded=0;orthogonalLoop=1;jettySize=auto;html=1;exitX=-0.001;exitY=0.656;exitDx=0;exitDy=0;entryX=0;entryY=0.3;entryDx=0;entryDy=0;labelBackgroundColor=#FFFFFF;fontSize=11;endArrow=classic;endFill=1;exitPerimeter=0;" parent="1" source="cbYkHmGZBTVsbkGFeJrn-12" target="cbYkHmGZBTVsbkGFeJrn-33" edge="1">
          <mxGeometry x="-0.46" relative="1" as="geometry">
            <Array as="points">
              <mxPoint x="1300" y="370" />
              <mxPoint x="1300" y="582" />
            </Array>
            <mxPoint as="offset" />
          </mxGeometry>
        </mxCell>
        <mxCell id="cbYkHmGZBTVsbkGFeJrn-35" value="&lt;div&gt;extends&lt;/div&gt;" style="edgeStyle=orthogonalEdgeStyle;rounded=0;orthogonalLoop=1;jettySize=auto;html=1;entryX=0.99;entryY=0.246;entryDx=0;entryDy=0;entryPerimeter=0;labelBackgroundColor=#FFFFFF;fontSize=11;endArrow=classic;endFill=1;exitX=1;exitY=0.9;exitDx=0;exitDy=0;" parent="1" source="cbYkHmGZBTVsbkGFeJrn-18" target="cbYkHmGZBTVsbkGFeJrn-33" edge="1">
          <mxGeometry x="0.3562" relative="1" as="geometry">
            <Array as="points">
              <mxPoint x="1460" y="265" />
              <mxPoint x="1460" y="580" />
            </Array>
            <mxPoint as="offset" />
          </mxGeometry>
        </mxCell>
        <mxCell id="cbYkHmGZBTVsbkGFeJrn-36" value="extends" style="edgeStyle=orthogonalEdgeStyle;rounded=0;orthogonalLoop=1;jettySize=auto;html=1;entryX=1;entryY=0.7;entryDx=0;entryDy=0;labelBackgroundColor=#FFFFFF;fontSize=11;endArrow=classic;endFill=1;exitX=0;exitY=0.737;exitDx=0;exitDy=0;exitPerimeter=0;" parent="1" source="cbYkHmGZBTVsbkGFeJrn-31" target="cbYkHmGZBTVsbkGFeJrn-33" edge="1">
          <mxGeometry relative="1" as="geometry" />
        </mxCell>
        <mxCell id="cbYkHmGZBTVsbkGFeJrn-37" value="extends" style="edgeStyle=orthogonalEdgeStyle;rounded=0;orthogonalLoop=1;jettySize=auto;html=1;entryX=0.6;entryY=1;entryDx=0;entryDy=0;labelBackgroundColor=#FFFFFF;fontSize=11;endArrow=classic;endFill=1;" parent="1" source="cbYkHmGZBTVsbkGFeJrn-38" target="cbYkHmGZBTVsbkGFeJrn-33" edge="1">
          <mxGeometry relative="1" as="geometry">
            <Array as="points">
              <mxPoint x="970" y="631" />
              <mxPoint x="1380" y="631" />
            </Array>
          </mxGeometry>
        </mxCell>
        <mxCell id="cbYkHmGZBTVsbkGFeJrn-38" value="&lt;div style=&quot;font-size: 11px&quot;&gt;&lt;b style=&quot;font-size: 11px&quot;&gt;SAREF for Building&lt;br style=&quot;font-size: 11px&quot;&gt;&lt;/b&gt;&lt;/div&gt;&lt;div style=&quot;font-size: 11px&quot;&gt;(s4bldg)&lt;br style=&quot;font-size: 11px&quot;&gt;&lt;/div&gt;" style="rounded=0;whiteSpace=wrap;html=1;snapToPoint=1;points=[[0.1,0],[0.2,0],[0.3,0],[0.4,0],[0.5,0],[0.6,0],[0.7,0],[0.8,0],[0.9,0],[0,0.1],[0,0.3],[0,0.5],[0,0.7],[0,0.9],[0.1,1],[0.2,1],[0.3,1],[0.4,1],[0.5,1],[0.6,1],[0.7,1],[0.8,1],[0.9,1],[1,0.1],[1,0.3],[1,0.5],[1,0.7],[1,0.9]];fontFamily=Helvetica;fontSize=11;fillColor=#d5e8d4;strokeColor=#82b366;" parent="1" vertex="1">
          <mxGeometry x="920" y="570.5" width="100" height="40" as="geometry" />
        </mxCell>
        <mxCell id="cbYkHmGZBTVsbkGFeJrn-39" value="reuses" style="edgeStyle=orthogonalEdgeStyle;rounded=0;orthogonalLoop=1;jettySize=auto;html=1;entryX=1;entryY=0.5;entryDx=0;entryDy=0;labelBackgroundColor=#FFFFFF;fontSize=11;endArrow=classic;endFill=1;exitX=0;exitY=0.7;exitDx=0;exitDy=0;" parent="1" source="cbYkHmGZBTVsbkGFeJrn-13" target="cbYkHmGZBTVsbkGFeJrn-38" edge="1">
          <mxGeometry x="0.1792" relative="1" as="geometry">
            <Array as="points">
              <mxPoint x="1100" y="372" />
              <mxPoint x="1100" y="590" />
            </Array>
            <mxPoint as="offset" />
          </mxGeometry>
        </mxCell>
        <mxCell id="cbYkHmGZBTVsbkGFeJrn-40" value="extends" style="edgeStyle=orthogonalEdgeStyle;rounded=0;orthogonalLoop=1;jettySize=auto;html=1;entryX=0;entryY=0.7;entryDx=0;entryDy=0;labelBackgroundColor=#FFFFFF;fontSize=11;endArrow=classic;endFill=1;exitX=1;exitY=0.7;exitDx=0;exitDy=0;" parent="1" source="cbYkHmGZBTVsbkGFeJrn-42" target="cbYkHmGZBTVsbkGFeJrn-33" edge="1">
          <mxGeometry relative="1" as="geometry" />
        </mxCell>
        <mxCell id="cbYkHmGZBTVsbkGFeJrn-41" value="reuses" style="edgeStyle=orthogonalEdgeStyle;rounded=0;orthogonalLoop=1;jettySize=auto;html=1;entryX=1;entryY=0.5;entryDx=0;entryDy=0;shadow=0;labelBackgroundColor=#FFFFFF;fontSize=11;fontColor=#000000;endArrow=classic;endFill=1;exitX=-0.002;exitY=0.242;exitDx=0;exitDy=0;exitPerimeter=0;" parent="1" source="cbYkHmGZBTVsbkGFeJrn-42" target="cbYkHmGZBTVsbkGFeJrn-45" edge="1">
          <mxGeometry x="-0.1764" relative="1" as="geometry">
            <mxPoint as="offset" />
          </mxGeometry>
        </mxCell>
        <mxCell id="cbYkHmGZBTVsbkGFeJrn-42" value="&lt;div style=&quot;font-size: 11px&quot;&gt;&lt;b style=&quot;font-size: 11px&quot;&gt;SAREF for City&lt;br style=&quot;font-size: 11px&quot;&gt;&lt;/b&gt;&lt;/div&gt;&lt;div style=&quot;font-size: 11px&quot;&gt;(s4city)&lt;br style=&quot;font-size: 11px&quot;&gt;&lt;/div&gt;" style="rounded=0;whiteSpace=wrap;html=1;snapToPoint=1;points=[[0.1,0],[0.2,0],[0.3,0],[0.4,0],[0.5,0],[0.6,0],[0.7,0],[0.8,0],[0.9,0],[0,0.1],[0,0.3],[0,0.5],[0,0.7],[0,0.9],[0.1,1],[0.2,1],[0.3,1],[0.4,1],[0.5,1],[0.6,1],[0.7,1],[0.8,1],[0.9,1],[1,0.1],[1,0.3],[1,0.5],[1,0.7],[1,0.9]];fontFamily=Helvetica;fontSize=11;fillColor=#d5e8d4;strokeColor=#82b366;" parent="1" vertex="1">
          <mxGeometry x="1120" y="570.5" width="100" height="40" as="geometry" />
        </mxCell>
        <mxCell id="cbYkHmGZBTVsbkGFeJrn-43" value="&lt;div style=&quot;font-size: 11px&quot;&gt;&lt;b&gt;Schema.org&lt;/b&gt;&lt;/div&gt;&lt;div style=&quot;font-size: 11px&quot;&gt;(schema)&lt;/div&gt;" style="rounded=0;whiteSpace=wrap;html=1;snapToPoint=1;points=[[0.1,0],[0.2,0],[0.3,0],[0.4,0],[0.5,0],[0.6,0],[0.7,0],[0.8,0],[0.9,0],[0,0.1],[0,0.3],[0,0.5],[0,0.7],[0,0.9],[0.1,1],[0.2,1],[0.3,1],[0.4,1],[0.5,1],[0.6,1],[0.7,1],[0.8,1],[0.9,1],[1,0.1],[1,0.3],[1,0.5],[1,0.7],[1,0.9]];fontFamily=Helvetica;fontSize=11;fillColor=#fad9d5;strokeColor=#ae4132;" parent="1" vertex="1">
          <mxGeometry x="920" y="330.5" width="100" height="40" as="geometry" />
        </mxCell>
        <mxCell id="cbYkHmGZBTVsbkGFeJrn-44" value="reuses" style="edgeStyle=orthogonalEdgeStyle;rounded=0;orthogonalLoop=1;jettySize=auto;html=1;exitX=0;exitY=0.5;exitDx=0;exitDy=0;labelBackgroundColor=#FFFFFF;fontSize=11;endArrow=classic;endFill=1;" parent="1" source="cbYkHmGZBTVsbkGFeJrn-13" edge="1">
          <mxGeometry x="0.2119" relative="1" as="geometry">
            <mxPoint x="1020" y="359" as="targetPoint" />
            <Array as="points">
              <mxPoint x="1120" y="359" />
              <mxPoint x="1070" y="359" />
            </Array>
            <mxPoint as="offset" />
          </mxGeometry>
        </mxCell>
        <mxCell id="cbYkHmGZBTVsbkGFeJrn-45" value="&lt;div style=&quot;font-size: 11px&quot;&gt;&lt;b style=&quot;font-size: 11px&quot;&gt;GeoSPARQL ontology&lt;br style=&quot;font-size: 11px&quot;&gt;&lt;/b&gt;&lt;/div&gt;&lt;div style=&quot;font-size: 11px&quot;&gt;(geosp)&lt;br style=&quot;font-size: 11px&quot;&gt;&lt;/div&gt;" style="rounded=0;whiteSpace=wrap;html=1;snapToPoint=1;points=[[0.1,0],[0.2,0],[0.3,0],[0.4,0],[0.5,0],[0.6,0],[0.7,0],[0.8,0],[0.9,0],[0,0.1],[0,0.3],[0,0.5],[0,0.7],[0,0.9],[0.1,1],[0.2,1],[0.3,1],[0.4,1],[0.5,1],[0.6,1],[0.7,1],[0.8,1],[0.9,1],[1,0.1],[1,0.3],[1,0.5],[1,0.7],[1,0.9]];fontFamily=Helvetica;fontSize=11;fillColor=#CCCCCC;strokeColor=#666666;fontColor=#333333;" parent="1" vertex="1">
          <mxGeometry x="920" y="490" width="100" height="40" as="geometry" />
        </mxCell>
        <mxCell id="cbYkHmGZBTVsbkGFeJrn-46" value="&lt;div style=&quot;font-size: 11px&quot;&gt;&lt;b style=&quot;font-size: 11px&quot;&gt;WGS84 ontology&lt;br style=&quot;font-size: 11px&quot;&gt;&lt;/b&gt;&lt;/div&gt;&lt;div style=&quot;font-size: 11px&quot;&gt;(geo)&lt;br style=&quot;font-size: 11px&quot;&gt;&lt;/div&gt;" style="rounded=0;whiteSpace=wrap;html=1;snapToPoint=1;points=[[0.1,0],[0.2,0],[0.3,0],[0.4,0],[0.5,0],[0.6,0],[0.7,0],[0.8,0],[0.9,0],[0,0.1],[0,0.3],[0,0.5],[0,0.7],[0,0.9],[0.1,1],[0.2,1],[0.3,1],[0.4,1],[0.5,1],[0.6,1],[0.7,1],[0.8,1],[0.9,1],[1,0.1],[1,0.3],[1,0.5],[1,0.7],[1,0.9]];fontFamily=Helvetica;fontSize=11;fillColor=#fff2cc;strokeColor=#d6b656;" parent="1" vertex="1">
          <mxGeometry x="920" y="250" width="100" height="40" as="geometry" />
        </mxCell>
        <mxCell id="cbYkHmGZBTVsbkGFeJrn-47" value="reuses" style="edgeStyle=orthogonalEdgeStyle;rounded=0;orthogonalLoop=1;jettySize=auto;html=1;entryX=1;entryY=0.5;entryDx=0;entryDy=0;labelBackgroundColor=#FFFFFF;fontSize=11;endArrow=classic;endFill=1;exitX=0;exitY=0.3;exitDx=0;exitDy=0;" parent="1" source="cbYkHmGZBTVsbkGFeJrn-13" target="cbYkHmGZBTVsbkGFeJrn-46" edge="1">
          <mxGeometry x="0.1111" relative="1" as="geometry">
            <mxPoint x="1120" y="340" as="sourcePoint" />
            <Array as="points">
              <mxPoint x="1060" y="348" />
              <mxPoint x="1060" y="270" />
            </Array>
            <mxPoint as="offset" />
          </mxGeometry>
        </mxCell>
        <mxCell id="cbYkHmGZBTVsbkGFeJrn-48" value="reuses" style="edgeStyle=orthogonalEdgeStyle;rounded=0;orthogonalLoop=1;jettySize=auto;html=1;entryX=0;entryY=0.5;entryDx=0;entryDy=0;labelBackgroundColor=#FFFFFF;fontSize=11;endArrow=classic;endFill=1;shadow=0;" parent="1" source="cbYkHmGZBTVsbkGFeJrn-38" target="cbYkHmGZBTVsbkGFeJrn-46" edge="1">
          <mxGeometry x="-0.6636" relative="1" as="geometry">
            <Array as="points">
              <mxPoint x="900" y="591" />
              <mxPoint x="900" y="270" />
            </Array>
            <mxPoint as="offset" />
          </mxGeometry>
        </mxCell>
        <mxCell id="cbYkHmGZBTVsbkGFeJrn-49" value="INTERCONNECT ONTOLOGIES" style="text;html=1;strokeColor=none;fillColor=none;align=center;verticalAlign=middle;whiteSpace=wrap;rounded=0;dashed=1;labelBackgroundColor=none;fontSize=14;fontColor=#999999;" parent="1" vertex="1">
          <mxGeometry x="1110" y="30" width="540" height="30" as="geometry" />
        </mxCell>
        <mxCell id="cbYkHmGZBTVsbkGFeJrn-50" value="reuses" style="edgeStyle=orthogonalEdgeStyle;rounded=0;orthogonalLoop=1;jettySize=auto;html=1;labelBackgroundColor=#FFFFFF;fontSize=11;endArrow=classic;endFill=1;exitX=0.5;exitY=1;exitDx=0;exitDy=0;" parent="1" source="cbYkHmGZBTVsbkGFeJrn-5" target="cbYkHmGZBTVsbkGFeJrn-3" edge="1">
          <mxGeometry relative="1" as="geometry">
            <mxPoint x="1530" y="238.5" as="sourcePoint" />
            <mxPoint x="1450" y="238.5" as="targetPoint" />
          </mxGeometry>
        </mxCell>
        <mxCell id="cbYkHmGZBTVsbkGFeJrn-51" value="reuses" style="edgeStyle=orthogonalEdgeStyle;rounded=0;orthogonalLoop=1;jettySize=auto;html=1;labelBackgroundColor=#FFFFFF;fontSize=11;endArrow=classic;endFill=1;exitX=1;exitY=0.7;exitDx=0;exitDy=0;entryX=1;entryY=0.5;entryDx=0;entryDy=0;" parent="1" source="cbYkHmGZBTVsbkGFeJrn-5" target="cbYkHmGZBTVsbkGFeJrn-9" edge="1">
          <mxGeometry x="-0.4545" y="-10" relative="1" as="geometry">
            <mxPoint x="1590" y="280.5" as="sourcePoint" />
            <mxPoint x="1590" y="341" as="targetPoint" />
            <mxPoint as="offset" />
          </mxGeometry>
        </mxCell>
      </root>
    </mxGraphModel>
  </diagram>
  <diagram id="8-F6MrN3srLGlrzDQyVe" name="Containers">
    <mxGraphModel dx="1194" dy="600" grid="1" gridSize="10" guides="1" tooltips="1" connect="1" arrows="1" fold="1" page="1" pageScale="1" pageWidth="850" pageHeight="1100" math="0" shadow="0">
      <root>
        <mxCell id="0" />
        <mxCell id="1" parent="0" />
        <mxCell id="DyJy0zdkJY4Wv9_60vg5-1" value="Time series observations" style="shape=document;whiteSpace=wrap;html=1;boundedLbl=1;&#xa;fontFamily=Helvetica;fontSize=11;fillColor=#fad9d5;strokeColor=#ae4132;" parent="1" vertex="1">
          <mxGeometry x="14" y="49" width="120" height="50" as="geometry" />
        </mxCell>
        <mxCell id="DyJy0zdkJY4Wv9_60vg5-2" value="IoT Data Import Service" style="rounded=1;whiteSpace=wrap;html=1;fontFamily=Helvetica;fontSize=11;fillColor=#DAE8FC;strokeColor=#10739e;" parent="1" vertex="1">
          <mxGeometry x="182" y="52" width="120" height="38" as="geometry" />
        </mxCell>
        <mxCell id="DyJy0zdkJY4Wv9_60vg5-3" value="Graph database" style="shape=cylinder3;whiteSpace=wrap;html=1;boundedLbl=1;backgroundOutline=1;size=15;fontFamily=Helvetica;fontSize=11;fillColor=#d5e8d4;strokeColor=#82b366;" parent="1" vertex="1">
          <mxGeometry x="40" y="120" width="60" height="84" as="geometry" />
        </mxCell>
        <mxCell id="DyJy0zdkJY4Wv9_60vg5-4" value="Static IoT database" style="shape=cylinder3;whiteSpace=wrap;html=1;boundedLbl=1;backgroundOutline=1;size=15;fontFamily=Helvetica;fontSize=11;fillColor=#d5e8d4;strokeColor=#82b366;" parent="1" vertex="1">
          <mxGeometry x="353" y="34" width="60" height="80" as="geometry" />
        </mxCell>
        <mxCell id="DyJy0zdkJY4Wv9_60vg5-9" value="&lt;div&gt;&lt;br&gt;&lt;/div&gt;Client" style="shape=actor;whiteSpace=wrap;html=1;fontFamily=Helvetica;fontSize=11;fillColor=#fad9d5;strokeColor=#ae4132;" parent="1" vertex="1">
          <mxGeometry x="460" y="39" width="40" height="60" as="geometry" />
        </mxCell>
        <mxCell id="DyJy0zdkJY4Wv9_60vg5-13" value="data" style="endArrow=classic;startArrow=classic;html=1;rounded=0;entryX=0;entryY=1;entryDx=0;entryDy=-15;entryPerimeter=0;exitX=1;exitY=0;exitDx=0;exitDy=15;exitPerimeter=0;" parent="1" source="DyJy0zdkJY4Wv9_60vg5-3" target="DyJy0zdkJY4Wv9_60vg5-4" edge="1">
          <mxGeometry width="50" height="50" relative="1" as="geometry">
            <mxPoint x="60" y="358" as="sourcePoint" />
            <mxPoint x="180" y="238" as="targetPoint" />
          </mxGeometry>
        </mxCell>
        <mxCell id="DyJy0zdkJY4Wv9_60vg5-15" value="Authentication&amp;nbsp;&lt;div&gt;service&lt;/div&gt;" style="rounded=1;whiteSpace=wrap;html=1;fontFamily=Helvetica;fontSize=11;fillColor=#DAE8FC;strokeColor=#10739e;" parent="1" vertex="1">
          <mxGeometry x="390" y="144" width="110" height="38" as="geometry" />
        </mxCell>
        <mxCell id="DyJy0zdkJY4Wv9_60vg5-16" value="authentication ontology" style="endArrow=classic;startArrow=classic;html=1;rounded=0;exitX=0.5;exitY=1;exitDx=0;exitDy=0;entryX=0.5;entryY=0;entryDx=0;entryDy=0;" parent="1" source="DyJy0zdkJY4Wv9_60vg5-9" target="DyJy0zdkJY4Wv9_60vg5-15" edge="1">
          <mxGeometry width="50" height="50" relative="1" as="geometry">
            <mxPoint x="276" y="297" as="sourcePoint" />
            <mxPoint x="390" y="160" as="targetPoint" />
          </mxGeometry>
        </mxCell>
        <mxCell id="DyJy0zdkJY4Wv9_60vg5-17" value="Publish Subscribe&lt;div&gt;service&lt;/div&gt;" style="rounded=1;whiteSpace=wrap;html=1;fontFamily=Helvetica;fontSize=11;fillColor=#DAE8FC;strokeColor=#10739e;" parent="1" vertex="1">
          <mxGeometry x="380" y="244" width="120" height="44" as="geometry" />
        </mxCell>
        <mxCell id="DyJy0zdkJY4Wv9_60vg5-18" value="analysis" style="endArrow=classic;startArrow=classic;html=1;rounded=0;entryX=0;entryY=0.25;entryDx=0;entryDy=0;exitX=1;exitY=0.25;exitDx=0;exitDy=0;" parent="1" source="DyJy0zdkJY4Wv9_60vg5-25" target="DyJy0zdkJY4Wv9_60vg5-17" edge="1">
          <mxGeometry width="50" height="50" relative="1" as="geometry">
            <mxPoint x="38" y="416" as="sourcePoint" />
            <mxPoint x="644" y="339" as="targetPoint" />
          </mxGeometry>
        </mxCell>
        <mxCell id="DyJy0zdkJY4Wv9_60vg5-19" value="RDF Graph service" style="rounded=1;whiteSpace=wrap;html=1;fontFamily=Helvetica;fontSize=11;fillColor=#DAE8FC;strokeColor=#10739e;" parent="1" vertex="1">
          <mxGeometry x="578" y="144" width="120" height="38" as="geometry" />
        </mxCell>
        <mxCell id="DyJy0zdkJY4Wv9_60vg5-20" value="request&amp;nbsp;" style="endArrow=classic;startArrow=classic;html=1;rounded=0;entryX=1;entryY=0.5;entryDx=0;entryDy=0;exitX=0;exitY=0.5;exitDx=0;exitDy=0;" parent="1" source="DyJy0zdkJY4Wv9_60vg5-15" target="DyJy0zdkJY4Wv9_60vg5-30" edge="1">
          <mxGeometry width="50" height="50" relative="1" as="geometry">
            <mxPoint x="210" y="321" as="sourcePoint" />
            <mxPoint x="713" y="486" as="targetPoint" />
          </mxGeometry>
        </mxCell>
        <mxCell id="DyJy0zdkJY4Wv9_60vg5-21" value="" style="endArrow=classic;html=1;rounded=0;exitX=1;exitY=0.25;exitDx=0;exitDy=0;entryX=0;entryY=0;entryDx=0;entryDy=27.5;entryPerimeter=0;" parent="1" source="DyJy0zdkJY4Wv9_60vg5-2" target="DyJy0zdkJY4Wv9_60vg5-4" edge="1">
          <mxGeometry width="50" height="50" relative="1" as="geometry">
            <mxPoint x="687" y="-107" as="sourcePoint" />
            <mxPoint x="640" y="-102" as="targetPoint" />
          </mxGeometry>
        </mxCell>
        <mxCell id="DyJy0zdkJY4Wv9_60vg5-22" value="" style="endArrow=classic;html=1;rounded=0;exitX=1;exitY=0.25;exitDx=0;exitDy=0;entryX=0;entryY=0.25;entryDx=0;entryDy=0;" parent="1" source="DyJy0zdkJY4Wv9_60vg5-1" target="DyJy0zdkJY4Wv9_60vg5-2" edge="1">
          <mxGeometry width="50" height="50" relative="1" as="geometry">
            <mxPoint x="697" y="-97" as="sourcePoint" />
            <mxPoint x="650" y="-92" as="targetPoint" />
          </mxGeometry>
        </mxCell>
        <mxCell id="DyJy0zdkJY4Wv9_60vg5-25" value="Symbolic Analysis Engine service" style="rounded=1;whiteSpace=wrap;html=1;fontFamily=Helvetica;fontSize=11;fillColor=#DAE8FC;strokeColor=#10739e;" parent="1" vertex="1">
          <mxGeometry x="188" y="244" width="120" height="44" as="geometry" />
        </mxCell>
        <mxCell id="DyJy0zdkJY4Wv9_60vg5-26" value="data" style="endArrow=classic;startArrow=classic;html=1;rounded=0;exitX=1;exitY=0.5;exitDx=0;exitDy=0;exitPerimeter=0;entryX=0;entryY=0.5;entryDx=0;entryDy=0;" parent="1" source="DyJy0zdkJY4Wv9_60vg5-3" target="DyJy0zdkJY4Wv9_60vg5-30" edge="1">
          <mxGeometry width="50" height="50" relative="1" as="geometry">
            <mxPoint x="555" y="110" as="sourcePoint" />
            <mxPoint x="80" y="198" as="targetPoint" />
          </mxGeometry>
        </mxCell>
        <mxCell id="DyJy0zdkJY4Wv9_60vg5-27" value="inference" style="endArrow=classic;startArrow=classic;html=1;rounded=0;entryX=1;entryY=0.25;entryDx=0;entryDy=0;exitX=0;exitY=0.25;exitDx=0;exitDy=0;" parent="1" source="DyJy0zdkJY4Wv9_60vg5-29" target="DyJy0zdkJY4Wv9_60vg5-17" edge="1">
          <mxGeometry width="50" height="50" relative="1" as="geometry">
            <mxPoint x="468" y="415" as="sourcePoint" />
            <mxPoint x="139" y="407" as="targetPoint" />
          </mxGeometry>
        </mxCell>
        <mxCell id="DyJy0zdkJY4Wv9_60vg5-28" value="communication" style="endArrow=classic;startArrow=classic;html=1;rounded=0;exitX=0.25;exitY=1;exitDx=0;exitDy=0;entryX=0.75;entryY=0;entryDx=0;entryDy=0;" parent="1" source="DyJy0zdkJY4Wv9_60vg5-19" target="DyJy0zdkJY4Wv9_60vg5-17" edge="1">
          <mxGeometry width="50" height="50" relative="1" as="geometry">
            <mxPoint x="378" y="423" as="sourcePoint" />
            <mxPoint x="229" y="422" as="targetPoint" />
          </mxGeometry>
        </mxCell>
        <mxCell id="DyJy0zdkJY4Wv9_60vg5-29" value="Inference Engine service" style="rounded=1;whiteSpace=wrap;html=1;fontFamily=Helvetica;fontSize=11;fillColor=#DAE8FC;strokeColor=#10739e;" parent="1" vertex="1">
          <mxGeometry x="581" y="244" width="120" height="44" as="geometry" />
        </mxCell>
        <mxCell id="DyJy0zdkJY4Wv9_60vg5-30" value="Measurement Sequence&lt;div&gt;service&lt;/div&gt;" style="rounded=1;whiteSpace=wrap;html=1;fontFamily=Helvetica;fontSize=11;fillColor=#DAE8FC;strokeColor=#10739e;" parent="1" vertex="1">
          <mxGeometry x="180.5" y="144" width="135" height="38" as="geometry" />
        </mxCell>
        <mxCell id="hubnxAy9jfzjhHoUBt92-1" value="request" style="endArrow=classic;startArrow=classic;html=1;rounded=0;entryX=0;entryY=0.5;entryDx=0;entryDy=0;exitX=1;exitY=0.5;exitDx=0;exitDy=0;" edge="1" parent="1" source="DyJy0zdkJY4Wv9_60vg5-15" target="DyJy0zdkJY4Wv9_60vg5-19">
          <mxGeometry width="50" height="50" relative="1" as="geometry">
            <mxPoint x="212" y="324" as="sourcePoint" />
            <mxPoint x="223" y="410" as="targetPoint" />
          </mxGeometry>
        </mxCell>
        <mxCell id="hubnxAy9jfzjhHoUBt92-3" value="communication" style="endArrow=classic;startArrow=classic;html=1;rounded=0;exitX=0.75;exitY=1;exitDx=0;exitDy=0;entryX=0.25;entryY=0;entryDx=0;entryDy=0;" edge="1" parent="1" source="DyJy0zdkJY4Wv9_60vg5-30" target="DyJy0zdkJY4Wv9_60vg5-17">
          <mxGeometry width="50" height="50" relative="1" as="geometry">
            <mxPoint x="648" y="192" as="sourcePoint" />
            <mxPoint x="480" y="254" as="targetPoint" />
          </mxGeometry>
        </mxCell>
      </root>
    </mxGraphModel>
  </diagram>
</mxfile>
